<svg width="32" height="15" viewBox="0 0 32 15" fill="none" xmlns="http://www.w3.org/2000/svg">
<g clip-path="url(#clip0_601_69)">
<path fill-rule="evenodd" clip-rule="evenodd" d="M15.9999 6.00939C15.9414 6.00939 15.8984 6.0532 15.898 6.05417C15.8954 6.05612 14.8599 7.04427 14.8599 7.04427C14.4781 7.41283 13.9712 7.25853 13.917 7.24059C13.917 7.24059 9.49087 6.03316 9.49031 6.03277C8.64564 5.77799 8.4778 5.50317 8.34856 5.1693C8.34856 5.1693 8.27349 4.96166 8.08962 4.90732C8.08962 4.90732 2.67909 3.31904 2.67865 3.31904C2.45787 3.25088 2.33637 3.18855 2.24957 3.02046C2.24957 3.02046 1.95262 2.49749 1.95164 2.49609C1.88571 2.37072 1.76641 2.35745 1.7595 2.35648C1.35031 2.30116 1.23032 2.07308 1.17957 1.97588L0.938221 1.55203C0.862731 1.42069 0.754776 1.40963 0.75146 1.40921C0.518802 1.39441 0.408062 1.33581 0.311866 1.17778C0.311866 1.17778 0.0758918 0.785307 0.0749163 0.783385C-0.0410643 0.56912 -0.0009642 0.415658 0.0525395 0.324701C0.165204 0.138079 0.371471 0.123839 0.454264 0.120941H13.3919C13.7582 0.120941 14.0542 0.231961 14.2731 0.451465C14.4303 0.608103 14.5385 0.812421 14.5945 1.05862C14.5955 1.06442 14.6107 1.11586 14.7214 1.11586H17.2786C17.3893 1.11586 17.4045 1.06445 17.4055 1.05862C17.4615 0.81242 17.5697 0.608075 17.7269 0.451465C17.9457 0.231933 18.2417 0.120941 18.6081 0.120941H31.5457C31.6285 0.123839 31.8348 0.138079 31.9474 0.324701C32.0009 0.415658 32.041 0.569119 31.925 0.783385C31.9241 0.785336 31.6881 1.17778 31.6881 1.17778C31.5919 1.33578 31.4812 1.39441 31.2485 1.40921C31.2452 1.40963 31.1372 1.42069 31.0617 1.55203L30.8204 1.97588C30.7696 2.07305 30.6496 2.30116 30.2405 2.35648C30.2335 2.35745 30.1142 2.37072 30.0483 2.49609C30.0473 2.49748 29.7504 3.02046 29.7504 3.02046C29.6636 3.18857 29.5421 3.25091 29.3213 3.31904C29.3209 3.31904 23.9103 4.90732 23.9103 4.90732C23.7265 4.96166 23.6514 5.1693 23.6514 5.1693C23.5222 5.50314 23.3543 5.77798 22.5097 6.03277C22.5091 6.03316 18.083 7.24059 18.083 7.24059C18.0288 7.25856 17.5218 7.41283 17.14 7.04427C17.14 7.04427 16.1046 6.05612 16.102 6.05417C16.1015 6.0532 16.0585 6.00939 16.0001 6.00939H15.9999H15.9999Z" fill="black"/>
<path fill-rule="evenodd" clip-rule="evenodd" d="M17.6406 1.11104C17.6858 0.910569 17.7723 0.746212 17.8966 0.621928C18.0687 0.449546 18.3083 0.361906 18.6076 0.361906C18.6076 0.361906 21.5015 0.361906 24.551 0.361906C24.3467 0.51481 24.2394 0.708203 24.2322 0.721077C24.1634 0.850043 24.0774 1.001 23.9751 1.17009H17.6196C17.6327 1.14688 17.6406 1.11107 17.6406 1.11107L17.6406 1.11104L17.6406 1.11104ZM31.7132 0.668101C31.7099 0.67334 31.4811 1.05394 31.4811 1.05394C31.4377 1.12542 31.4109 1.15777 31.2326 1.16911C31.2316 1.16911 24.1941 1.17006 24.1941 1.17006C24.2728 1.0368 24.3404 0.915835 24.397 0.810501C24.399 0.806767 24.6482 0.362464 25.0909 0.362464L31.5388 0.361907C31.6064 0.364805 31.6943 0.372412 31.7408 0.449129C31.7464 0.459495 31.7597 0.480925 31.7597 0.519492C31.7597 0.553768 31.7488 0.602423 31.7133 0.668104H31.7132L31.7132 0.668101ZM30.8524 1.43301L30.6067 1.86447C30.5731 1.92834 30.5214 2.0269 30.3572 2.08358C30.2199 2.11786 29.9469 2.09601 29.8523 2.08456L23.8655 1.68682C23.9429 1.57209 24.0146 1.46163 24.08 1.35682H30.9041C30.8863 1.37962 30.8687 1.40436 30.8524 1.43298V1.43301L30.8524 1.43301ZM29.8346 2.38356C29.8362 2.38175 29.5992 2.79897 29.5499 2.88566C29.5377 2.90185 29.4704 2.97511 29.251 2.94608L23.5142 2.17649C23.5929 2.07363 23.6674 1.97161 23.7372 1.87305L29.8314 2.27742C29.8402 2.2784 29.8659 2.28129 29.9026 2.28461C29.8776 2.31323 29.8547 2.34555 29.8347 2.38359L29.8346 2.38356L29.8346 2.38356ZM27.8615 3.49708C27.6456 3.55432 27.2231 3.48948 27.0764 3.45907C27.0764 3.45907 24.3779 2.90459 23.1344 2.64883C23.2207 2.54748 23.3035 2.44699 23.382 2.34745L29.1431 3.12078L27.8615 3.49709H27.8615L27.8615 3.49708ZM25.9074 4.07052C25.6303 4.14476 25.2685 4.02476 25.265 4.02379L25.2607 4.0224C25.2607 4.0224 25.2602 4.02198 25.2598 4.02198L22.6213 3.20802C22.752 3.07516 22.8763 2.94315 22.9934 2.81084L27.0388 3.64238C27.0477 3.64374 27.1305 3.66091 27.2469 3.67707L25.9074 4.07052H25.9074L25.9074 4.07052ZM23.8464 4.67589C23.6591 4.72678 23.383 4.61866 23.2914 4.57248C23.2914 4.57248 22.5854 4.24196 21.8604 3.90285C22.0782 3.72422 22.2815 3.54189 22.471 3.35761L25.2071 4.202C25.2124 4.20392 25.2622 4.22011 25.3383 4.23725L23.8464 4.6759L23.8464 4.67589ZM23.4241 5.08882C23.3444 5.29314 23.2611 5.50356 22.6998 5.71451C22.4681 5.78652 22.1926 5.58164 22.1902 5.5793C22.1893 5.57835 21.5644 5.13112 20.8529 4.62197C21.1419 4.44349 21.4239 4.24719 21.6975 4.03293L23.2095 4.7406C23.2178 4.74489 23.3737 4.82353 23.5626 4.85878C23.4723 4.96164 23.4314 5.06781 23.424 5.08882H23.4241L23.4241 5.08882ZM21.3094 6.11085L21.0987 6.16795C20.9213 6.21039 20.7048 6.03467 20.6356 5.96168C20.6356 5.96168 20.2955 5.60792 19.8585 5.15158C20.138 5.02495 20.4112 4.88353 20.6779 4.72731L22.0791 5.72983C22.0847 5.73454 22.1648 5.79454 22.2824 5.84554C21.9711 5.93028 21.3094 6.11083 21.3094 6.11083V6.11085L21.3094 6.11085ZM19.4568 6.61613C19.3089 6.63948 19.1372 6.3966 19.0874 6.30603L18.6648 5.59078C19.01 5.49124 19.3474 5.37208 19.6756 5.23161L20.4998 6.09174C20.5072 6.09893 20.5984 6.19362 20.7306 6.26841L19.4568 6.6161L19.4568 6.61613L19.4568 6.61613ZM18.0538 6.99851C17.9542 7.02145 17.8702 7.01136 17.798 6.96769C17.6429 6.87286 17.5913 6.6547 17.5884 6.64185L17.3729 5.8641C17.7499 5.81171 18.118 5.73789 18.4779 5.64264L18.9249 6.39952C18.9403 6.42661 19.031 6.58478 19.167 6.69524L18.0537 6.99854L18.0538 6.99851L18.0538 6.99851ZM17.1445 6.71623C17.1445 6.71623 16.5451 6.14418 16.3418 5.95079C16.6271 5.94084 16.9086 5.91983 17.185 5.88748L17.4055 6.68279C17.4118 6.71043 17.4557 6.88477 17.5782 7.02343C17.4093 6.9753 17.3581 6.92528 17.1445 6.71626V6.71623V6.71623ZM16.0936 5.76885V3.34574H16.4804L17.1343 5.70512C16.794 5.7441 16.4471 5.76553 16.0936 5.76885V5.76885ZM14.8652 5.70512L15.5195 3.34574H15.9063V5.76846C15.5521 5.76556 15.2054 5.74371 14.8652 5.70515V5.70512L14.8652 5.70512ZM14.6935 6.86994C14.6088 6.95234 14.5135 6.99851 14.4213 7.02337C14.5446 6.88429 14.5875 6.70943 14.594 6.68234L14.8145 5.88842C15.091 5.92036 15.3724 5.94123 15.6576 5.95076C15.4292 6.16795 14.6935 6.86994 14.6935 6.86994L14.6935 6.86994ZM14.4111 6.64046C14.4111 6.6428 14.3603 6.8705 14.2012 6.9677C14.129 7.01139 14.0453 7.02145 13.9457 6.99852L12.8325 6.69522C12.9685 6.5842 13.0602 6.42605 13.0759 6.39702C13.0753 6.39758 13.2645 6.07798 13.5209 5.6432C13.8809 5.73845 14.2496 5.81227 14.6266 5.8641L14.411 6.64046H14.4111V6.64046ZM12.5427 6.61613L11.269 6.26844C11.4011 6.19323 11.4928 6.0984 11.4997 6.09135C11.4997 6.09135 11.8638 5.71116 12.3239 5.23161C12.6525 5.37164 12.989 5.49163 13.3343 5.59117L12.9135 6.30422C12.8622 6.39656 12.6905 6.63945 12.5427 6.6161L12.5427 6.61612L12.5427 6.61613ZM10.9005 6.16795L9.71704 5.84556C9.83508 5.79415 9.9157 5.7336 9.92233 5.72833C9.92136 5.72931 10.5835 5.25541 11.3216 4.72734C11.5883 4.883 11.8615 5.02498 12.1414 5.1516L11.3639 5.96171C11.2947 6.0347 11.0782 6.21039 10.9005 6.16798V6.16795L10.9005 6.16795ZM9.29818 5.71451C8.73926 5.50353 8.65549 5.29356 8.57599 5.0898C8.5695 5.07168 8.52859 4.96303 8.43693 4.85878C8.6262 4.82298 8.78268 4.74448 8.7929 4.73921C8.79137 4.73963 9.54895 4.38586 10.3024 4.03293C10.5753 4.2472 10.8573 4.44391 11.1465 4.62198L9.81106 5.57738C9.80677 5.58167 9.52986 5.78749 9.29818 5.71451L9.29818 5.71451ZM8.1535 4.67589C8.0971 4.65915 7.46977 4.47487 6.66116 4.23725C6.7383 4.22011 6.78904 4.20297 6.7947 4.20102C6.79236 4.202 9.01196 3.51712 9.52885 3.35761C9.71837 3.54148 9.92174 3.72422 10.1395 3.90243L8.71086 4.57112C8.6163 4.61866 8.34079 4.72678 8.15347 4.6759H8.1535L8.1535 4.67589ZM6.09344 4.07094C5.65354 3.94197 5.18976 3.80579 4.75234 3.67707C4.86901 3.66091 4.95236 3.64375 4.96109 3.64182C4.96067 3.64238 7.81705 3.05512 9.00646 2.81084C9.12412 2.94271 9.24743 3.07516 9.3782 3.20803L6.73678 4.02296C6.73082 4.02477 6.37056 4.14434 6.0934 4.07094H6.09343L6.09344 4.07094ZM4.13977 3.49764C3.54546 3.32236 3.06245 3.18094 2.85632 3.1208L8.61829 2.34748C8.69696 2.44646 8.77934 2.54695 8.86547 2.64844L4.92305 3.4591C4.77677 3.4895 4.35624 3.55435 4.13975 3.49767L4.13977 3.49764L4.13977 3.49764ZM2.74893 2.94605C2.53104 2.97509 2.46263 2.90319 2.45006 2.88605L2.16334 2.3812C2.14386 2.3436 2.12076 2.31223 2.09685 2.28456C2.13361 2.28124 8.2633 1.873 8.2633 1.873C8.33314 1.97156 8.40707 2.07302 8.48573 2.17643L2.74895 2.94603L2.74893 2.94605L2.74893 2.94605ZM1.64285 2.08355C1.47846 2.02687 1.42635 1.92831 1.39277 1.86444C1.29226 1.69359 1.16009 1.43825 1.09513 1.35682H7.92031C7.98582 1.4616 8.05702 1.57207 8.13485 1.68682L2.14713 2.08456C2.05314 2.09604 1.77996 2.11786 1.64283 2.08358V2.08355L1.64285 2.08355ZM0.768871 1.17003C0.604486 1.15774 0.569514 1.13824 0.517822 1.05336C0.518379 1.05391 0.303277 0.696276 0.286139 0.668074C0.25047 0.602421 0.23871 0.553738 0.240243 0.519462C0.244256 0.431822 0.303834 0.364218 0.460751 0.361849L6.90907 0.362406C7.34551 0.362406 7.60292 0.810443 7.60292 0.810443C7.6596 0.915779 7.7272 1.03675 7.80629 1.17H0.76892L0.768864 1.17003L0.768871 1.17003ZM13.3918 0.361875C13.6916 0.361875 13.9307 0.449516 14.1029 0.621897C14.2272 0.746182 14.3135 0.910539 14.3594 1.11101C14.3594 1.11101 14.3686 1.14529 14.3804 1.17003H8.02493C7.92776 1.0105 7.76767 0.721018 7.76767 0.721018C7.76062 0.708171 7.65319 0.51475 7.44887 0.361847C10.4984 0.361847 13.3918 0.361847 13.3918 0.361847L13.3918 0.361875L13.3918 0.361875ZM22.5951 1.60302V1.35682H23.8586C23.7943 1.45773 23.7241 1.56348 23.6489 1.67255L22.5951 1.60302L22.5951 1.60302ZM22.5951 2.05354V1.79739L23.5177 1.85833C23.4495 1.95302 23.3767 2.04967 23.3007 2.14837L22.5951 2.05354H22.5951ZM22.5951 2.53839V2.24214L23.1657 2.31889C23.089 2.41372 23.0085 2.50938 22.9246 2.60599C22.7775 2.57559 22.6642 2.55263 22.5951 2.53839L22.5951 2.53839ZM22.5951 2.72941L22.7813 2.76742C22.7213 2.83364 22.6589 2.90082 22.5951 2.96706V2.72941ZM20.67 3.34571H22.2123C22.0551 3.50193 21.684 3.80426 21.6719 3.81434C21.2968 3.6385 20.931 3.46804 20.67 3.34571H20.67ZM19.0693 3.34571H20.2283L21.5068 3.94389C21.2411 4.14726 20.9679 4.33389 20.6872 4.50393C20.0702 4.06196 19.4201 3.59665 19.0693 3.34574V3.34571L19.0693 3.34571ZM18.1264 3.34571H18.7482L20.5105 4.60773C20.2536 4.75495 19.9897 4.88879 19.7207 5.00781C19.1404 4.40299 18.4414 3.67378 18.1264 3.34571V3.34571ZM17.3387 3.34571H17.8667L19.5365 5.08687C19.2212 5.21834 18.8974 5.33017 18.5662 5.42405L17.3386 3.34571H17.3387ZM17.1212 3.34571L18.379 5.47452C18.0347 5.56411 17.682 5.63266 17.3222 5.68174L16.6745 3.34571H17.1212V3.34571ZM14.8783 3.34571H15.325L14.6773 5.68173C14.3169 5.63266 13.9648 5.56408 13.6205 5.47505C14.0918 4.67781 14.7206 3.61278 14.8783 3.34571V3.34571ZM14.1327 3.34571H14.6609L13.4333 5.42405C13.1021 5.33076 12.7787 5.21834 12.4627 5.08634C13.1324 4.38864 13.9382 3.54852 14.1327 3.34574L14.1327 3.34571V3.34571ZM13.2514 3.34571H13.8732L12.2794 5.00781C12.0098 4.88879 11.7465 4.75498 11.4888 4.60773C12.2537 4.06002 13.0509 3.48906 13.2514 3.34571V3.34571ZM10.3277 3.81434C10.3136 3.80286 9.94418 3.49237 9.78729 3.34571H11.3294L10.3277 3.81434ZM11.7712 3.34571H12.9299L11.3122 4.50348C11.0313 4.33386 10.7582 4.14723 10.4929 3.94387C11.1002 3.65951 11.6625 3.39657 11.7712 3.34568V3.34571V3.34571ZM9.40298 2.72941V2.96511C9.33967 2.89946 9.27814 2.83322 9.2187 2.76742C9.29266 2.75182 9.35461 2.73936 9.40298 2.72941ZM9.40298 2.24211V2.53836L9.0748 2.60596C8.99103 2.50891 8.911 2.41369 8.8344 2.31886L9.40298 2.24211L9.40298 2.24211ZM9.40298 1.79739V2.05354L8.69932 2.14837C8.62317 2.04967 8.55099 1.95302 8.48286 1.85833L9.40301 1.79739H9.40298H9.40298ZM9.40298 1.60302L8.35163 1.67255C8.27587 1.56348 8.20606 1.45772 8.14177 1.35682H9.40296V1.60302H9.40299L9.40298 1.60302Z" fill="white"/>
<path fill-rule="evenodd" clip-rule="evenodd" d="M9.59309 3.15852C9.59212 3.15755 9.59128 3.15657 9.59033 3.15563V1.35779H22.4081V3.1566C22.4077 3.15758 22.4071 3.15757 22.4067 3.15799L9.59312 3.15855L9.5931 3.15852L9.59309 3.15852Z" fill="url(#paint0_linear_601_69)"/>
<path fill-rule="evenodd" clip-rule="evenodd" d="M10.442 1.6449H10.3885L9.84082 2.87027H9.98915L9.99149 2.86322C10.0359 2.71405 10.093 2.57126 10.1484 2.4341C10.1484 2.4341 10.1563 2.41448 10.1599 2.40506C10.1734 2.40506 10.5699 2.40506 10.5835 2.40506C10.6407 2.53542 10.6993 2.68501 10.7621 2.86361L10.7646 2.87024H10.9693L10.442 1.64487V1.64489L10.442 1.6449ZM10.2014 2.31166C10.2126 2.28457 10.3563 1.94781 10.3735 1.90784C10.3903 1.9478 10.5369 2.28454 10.5485 2.31166C10.5197 2.31166 10.2294 2.31166 10.2013 2.31166H10.2014Z" fill="white"/>
<path fill-rule="evenodd" clip-rule="evenodd" d="M11.0283 2.78316L11.0329 2.78787C11.0976 2.85837 11.2434 2.89128 11.322 2.89128C11.579 2.89128 11.7589 2.72553 11.7589 2.4875C11.7589 2.29023 11.6096 2.23216 11.4653 2.17506C11.3371 2.12403 11.2152 2.07691 11.2152 1.9312C11.2152 1.8206 11.3024 1.7407 11.4219 1.7407C11.5174 1.7407 11.5896 1.79117 11.6262 1.88352L11.6287 1.89015H11.6613L11.7124 1.73544L11.7068 1.7302C11.637 1.6673 11.5296 1.6449 11.4531 1.6449C11.2136 1.6449 11.059 1.77871 11.059 1.98637C11.059 2.19788 11.2167 2.25927 11.3555 2.31456C11.4811 2.36307 11.5988 2.4098 11.5988 2.5551C11.5988 2.68989 11.4983 2.79606 11.3703 2.79606C11.2531 2.79606 11.1753 2.7456 11.0995 2.62173L11.0966 2.61702H11.064L11.0283 2.78319V2.78316L11.0283 2.78316Z" fill="white"/>
<path fill-rule="evenodd" clip-rule="evenodd" d="M12.726 1.6702H11.825V1.7964L11.8366 1.79543C11.94 1.78451 12.0399 1.77497 12.2029 1.77442C12.2029 1.79585 12.2029 2.87414 12.2029 2.87414H12.376C12.376 2.87414 12.376 1.7964 12.376 1.77498C12.4983 1.77498 12.6153 1.78203 12.7246 1.79543L12.7368 1.79682V1.6702H12.726V1.6702Z" fill="white"/>
<path fill-rule="evenodd" clip-rule="evenodd" d="M13.3469 1.6449C12.9646 1.6449 12.6973 1.90258 12.6973 2.27073C12.6973 2.64219 12.9573 2.89129 13.3435 2.89129C13.7428 2.89129 14.0117 2.63126 14.0117 2.24459C14.0117 1.83013 13.6776 1.6449 13.3469 1.6449V1.6449ZM13.6669 2.67744C13.5819 2.76742 13.4751 2.8132 13.3482 2.8132C13.0684 2.8132 12.8875 2.60847 12.8875 2.29176C12.8875 1.94076 13.0703 1.72304 13.364 1.72304C13.5025 1.72304 13.6333 1.78401 13.714 1.88589C13.8028 1.99925 13.8209 2.11746 13.8209 2.25888C13.8214 2.26649 13.8218 2.27504 13.8218 2.28321C13.8218 2.39835 13.775 2.56176 13.6669 2.67746L13.6669 2.67744L13.6669 2.67744Z" fill="white"/>
<path fill-rule="evenodd" clip-rule="evenodd" d="M15.2118 1.6702H15.1044C15.1044 1.6702 15.1044 2.5374 15.1044 2.55841C15.1034 2.55841 15.103 2.55841 15.1024 2.55841C15.0962 2.55122 14.2825 1.6702 14.2825 1.6702H14.1997V2.8703H14.3178C14.3178 2.8703 14.3178 1.96299 14.3178 1.94159C14.3188 1.94159 14.3193 1.94159 14.3203 1.94159C14.3266 1.94878 15.0619 2.76273 15.0619 2.76273L15.1541 2.8703H15.1597H15.2224V1.6702H15.2118H15.2118L15.2118 1.6702Z" fill="white"/>
<path fill-rule="evenodd" clip-rule="evenodd" d="M17.1509 1.67017H17.1085L16.8178 2.19729C16.8178 2.19729 16.6339 2.53266 16.6172 2.56268C16.4379 2.26353 16.2764 1.94875 16.1389 1.67585L16.136 1.67017H16.075L16.0741 1.68011C16.0569 1.85735 15.9537 2.57978 15.9086 2.85834L15.9062 2.87024H16.0517V2.85987C16.0517 2.6908 16.0817 2.43878 16.1136 2.17157C16.1136 2.17157 16.1271 2.0535 16.1327 2.00638C16.1531 2.04536 16.3789 2.47406 16.4652 2.65071L16.5628 2.85171H16.5954L16.5981 2.84508C16.6986 2.61448 16.8402 2.35114 17.0342 2.00443C17.0617 2.21108 17.098 2.62404 17.1181 2.86071L17.1192 2.87024H17.3031L17.3014 2.85834C17.26 2.56733 17.2147 2.18207 17.1616 1.68012L17.1607 1.67017H17.151H17.1509V1.67017Z" fill="white"/>
<path fill-rule="evenodd" clip-rule="evenodd" d="M17.9741 1.64489H17.9203L17.3723 2.87027H17.5215L17.5234 2.86322C17.5679 2.71268 17.6253 2.56931 17.681 2.4312C17.681 2.4312 17.6879 2.41407 17.6912 2.40506C17.7048 2.40506 18.1013 2.40506 18.1151 2.40506C18.1734 2.53835 18.2334 2.69164 18.2934 2.86361L18.2959 2.87024H18.5009L17.9741 1.64487V1.64489V1.64489ZM17.7331 2.31166C17.7443 2.28457 17.8882 1.9478 17.9054 1.90784C17.9225 1.9478 18.0686 2.28454 18.0804 2.31166C18.0515 2.31166 17.7615 2.31166 17.7331 2.31166Z" fill="white"/>
<path fill-rule="evenodd" clip-rule="evenodd" d="M19.0278 2.27738C19.2444 2.23357 19.374 2.11024 19.374 1.94351C19.374 1.7602 19.2454 1.6702 18.9802 1.6702H18.6041V2.8703H18.7768C18.7768 2.8703 18.7768 2.31595 18.7768 2.29508C18.7903 2.29508 18.8196 2.29508 18.8271 2.29508C18.8328 2.30213 18.9616 2.45364 18.9616 2.45364C18.9611 2.45308 19.165 2.71697 19.165 2.71697L19.2767 2.8703H19.2826H19.5028C19.5028 2.8703 19.0483 2.30266 19.0279 2.27738H19.0278L19.0278 2.27738ZM18.7768 2.2088C18.7768 2.18971 18.7768 1.77445 18.7768 1.75536C18.848 1.75204 18.9583 1.74736 19.0183 1.75689C19.138 1.77637 19.199 1.84634 19.199 1.96397C19.199 2.08452 19.1197 2.17257 18.9863 2.19927C18.9113 2.21449 18.8206 2.2117 18.7768 2.2088V2.2088Z" fill="white"/>
<path fill-rule="evenodd" clip-rule="evenodd" d="M20.373 1.6702H19.4717V1.7964L19.4834 1.79543C19.587 1.78451 19.6868 1.77497 19.8492 1.77442C19.8492 1.79585 19.8492 2.87414 19.8492 2.87414H20.0233C20.0233 2.87414 20.0233 1.7964 20.0233 1.77498C20.1452 1.77498 20.2623 1.78203 20.3717 1.79543L20.3839 1.79682V1.6702H20.3731H20.373L20.373 1.6702Z" fill="white"/>
<path fill-rule="evenodd" clip-rule="evenodd" d="M20.5261 2.87035H20.6895V1.6702H20.5261V2.87035Z" fill="white"/>
<path fill-rule="evenodd" clip-rule="evenodd" d="M21.8487 1.6702C21.8487 1.6702 21.8487 2.5374 21.8487 2.55841C21.8482 2.55841 21.8478 2.55841 21.8473 2.55841C21.8408 2.55122 21.0274 1.6702 21.0274 1.6702H20.9445V2.8703H21.0627C21.0627 2.8703 21.0627 1.96299 21.0627 1.94159C21.0636 1.94159 21.0641 1.94159 21.0646 1.94159C21.071 1.94878 21.8073 2.76273 21.8073 2.76273L21.8995 2.8703H21.9668V1.6702H21.8487V1.6702Z" fill="white"/>
<path fill-rule="evenodd" clip-rule="evenodd" d="M6.16455 14.3883C6.09984 14.3844 6.04484 14.3778 5.98621 14.3778C5.92122 14.3778 5.8629 14.3844 5.80426 14.3883C5.70514 14.1034 5.58142 13.7748 5.44401 13.4629H4.57292C4.45279 13.7643 4.32906 14.0658 4.23326 14.3883C4.18513 14.3844 4.14754 14.3778 4.10608 14.3778C4.06155 14.3778 4.02368 14.3844 3.98608 14.3883L5.05649 11.9937H5.13558L6.16452 14.3883H6.16455ZM27.8927 14.3883H27.7893C27.7517 14.3406 27.6829 14.2582 27.6113 14.1791L26.1286 12.5408H26.095V14.3883C26.0606 14.3844 26.0297 14.3778 25.9984 14.3778C25.9644 14.3778 25.9331 14.3844 25.9024 14.3883V12.0445H26.0365L27.666 13.809H27.7005V12.0445C27.7312 12.0474 27.7619 12.0546 27.7967 12.0546C27.8278 12.0546 27.8587 12.0474 27.8927 12.0445V14.3883L27.8927 14.3883ZM25.1149 12.0445C25.163 12.0474 25.2147 12.0546 25.2658 12.0546C25.3138 12.0546 25.3621 12.0474 25.4167 12.0445V14.3883C25.362 14.3844 25.3138 14.3778 25.2658 14.3778C25.2147 14.3778 25.163 14.3844 25.1149 14.3883V12.0445ZM24.0154 14.3949C23.9604 14.3916 23.9122 14.3844 23.8638 14.3844C23.8127 14.3844 23.7614 14.3916 23.7133 14.3949V12.2089C23.3671 12.2089 23.1578 12.2294 22.9614 12.2498C22.9657 12.2156 22.972 12.1813 22.972 12.1474C22.972 12.1127 22.9657 12.0821 22.9614 12.0445H24.7321C24.7287 12.0821 24.7223 12.1127 24.7223 12.1474C24.7223 12.1813 24.7287 12.2156 24.7321 12.2498C24.5608 12.2294 24.3203 12.2089 24.0155 12.2089V14.3949H24.0154H24.0154ZM21.2358 12.0445H21.9632C22.492 12.0445 22.7251 12.2189 22.7251 12.5652C22.7251 12.9623 22.3686 13.1548 22.0219 13.2161L22.7287 14.1106L22.8935 14.3025L22.9582 14.3883C22.8865 14.3844 22.8246 14.3778 22.7594 14.3778C22.6944 14.3778 22.6258 14.3844 22.5632 14.3883C22.4881 14.282 22.4198 14.1854 22.3471 14.0896L21.9428 13.5658L21.6682 13.2442H21.5383V14.3883C21.483 14.3844 21.4351 14.3778 21.387 14.3778C21.3354 14.3778 21.2839 14.3844 21.2358 14.3883V12.0445L21.2358 12.0445ZM21.5383 13.1133C21.5859 13.1166 21.8054 13.1304 21.9805 13.0961C22.2317 13.0451 22.4199 12.8733 22.4199 12.6065C22.4199 12.3698 22.2993 12.2155 22.0423 12.1741C21.9157 12.1542 21.6817 12.1641 21.5383 12.1713V13.1133L21.5383 13.1133H21.5383ZM20.9982 14.3883C20.9325 14.3844 20.8785 14.3778 20.8193 14.3778C20.7543 14.3778 20.696 14.3844 20.6383 14.3883C20.5384 14.1034 20.4145 13.7748 20.2774 13.4629H19.4064C19.286 13.7643 19.1622 14.0658 19.0665 14.3883C19.0184 14.3844 18.9808 14.3778 18.9397 14.3778C18.8952 14.3778 18.8569 14.3844 18.8197 14.3883L19.8897 11.9937H19.9687L20.9982 14.3883ZM19.8454 12.4423L19.4713 13.319H20.2261L19.8454 12.4423H19.8454ZM18.3843 12.0445C18.4736 12.8904 18.5699 13.7339 18.6621 14.3883C18.6002 14.3844 18.5521 14.3778 18.501 14.3778C18.4457 14.3778 18.3912 14.3844 18.3399 14.3883C18.2819 13.6992 18.2121 12.9594 18.1642 12.6203C17.7664 13.3295 17.4712 13.8772 17.2655 14.3506H17.2279L17.0393 13.9629C16.8193 13.5114 16.5793 13.0657 16.3461 12.6203C16.2706 13.288 16.178 13.9662 16.178 14.3883C16.1337 14.3844 16.0956 14.3778 16.0584 14.3778C16.0137 14.3778 15.9756 14.3844 15.9347 14.3883C16.0234 13.8367 16.2293 12.4041 16.2637 12.0445H16.353C16.6275 12.5899 16.957 13.2333 17.3236 13.84C17.6504 13.2533 17.9659 12.6581 18.3121 12.0445H18.3843H18.3843ZM14.5179 14.3883H14.4144C14.377 14.3406 14.3082 14.2582 14.2365 14.1791L12.7539 12.5408H12.7198V14.3883C12.6855 14.3844 12.6544 14.3778 12.6236 14.3778C12.5896 14.3778 12.5589 14.3844 12.5276 14.3883V12.0445H12.6617L14.291 13.809H14.3257V12.0445C14.3564 12.0474 14.3872 12.0546 14.4213 12.0546C14.4519 12.0546 14.4832 12.0474 14.5179 12.0445V14.3883V14.3883H14.5179ZM9.59704 13.2161C9.59704 12.4656 10.156 11.9937 10.8665 11.9937C11.5118 11.9937 12.1667 12.3422 12.1667 13.1647C12.1667 13.9286 11.6249 14.4296 10.8603 14.4296C10.1019 14.4296 9.59706 13.9496 9.59706 13.2161L9.59703 13.2161L9.59704 13.2161ZM11.6147 12.4384C11.4434 12.2227 11.1758 12.106 10.9005 12.106C10.2974 12.106 9.93353 12.5618 9.93353 13.257C9.93353 13.9534 10.3588 14.3158 10.8701 14.3158C11.5942 14.3158 11.855 13.569 11.8306 13.1923C11.8306 12.9085 11.793 12.668 11.6147 12.4383V12.4384L11.6147 12.4384ZM8.92019 14.3949C8.86505 14.3916 8.81734 14.3844 8.7691 14.3844C8.71738 14.3844 8.66569 14.3916 8.61829 14.3949V12.2089C8.27157 12.2089 8.06185 12.2294 7.86678 12.2498C7.8701 12.2156 7.87701 12.1813 7.87701 12.1474C7.87701 12.1127 7.8701 12.0821 7.86678 12.0445H9.63698C9.63324 12.0821 9.62675 12.1127 9.62675 12.1474C9.62675 12.1813 9.63324 12.2156 9.63698 12.2498C9.46526 12.2294 9.22556 12.2089 8.92019 12.2089V14.3949ZM6.40515 13.9253C6.53869 14.1449 6.69282 14.282 6.96118 14.282C7.23862 14.282 7.43769 14.052 7.43769 13.7816C7.43769 13.1443 6.36369 13.4257 6.36369 12.6509C6.36369 12.2089 6.71372 11.9937 7.12556 11.9937C7.28978 11.9937 7.48941 12.0446 7.61562 12.1575C7.57455 12.2465 7.55078 12.3422 7.52341 12.4384H7.48942C7.41724 12.2532 7.26643 12.1403 7.06403 12.1403C6.82709 12.1403 6.63188 12.2984 6.63188 12.5408C6.63188 13.1719 7.71224 12.9181 7.71224 13.6482C7.71224 14.1382 7.33069 14.4297 6.86454 14.4297C6.69686 14.4297 6.4223 14.3578 6.30562 14.2306C6.33937 14.131 6.35675 14.0282 6.3706 13.9253H6.40516L6.40515 13.9253ZM5.0118 12.4422L4.63828 13.319H5.39268L5.01183 12.4422H5.0118H5.0118Z" fill="black"/>
</g>
<defs>
<linearGradient id="paint0_linear_601_69" x1="13.2947" y1="-0.446259" x2="18.7036" y2="4.96264" gradientUnits="userSpaceOnUse">
<stop stop-color="#339966"/>
<stop offset="1" stop-color="#004F32"/>
</linearGradient>
<clipPath id="clip0_601_69">
<rect width="32" height="14.3087" fill="white" transform="translate(0 0.120941)"/>
</clipPath>
</defs>
</svg>
