<svg width="32" height="12" viewBox="0 0 32 12" fill="none" xmlns="http://www.w3.org/2000/svg">
<g clip-path="url(#clip0_601_92)">
<path fill-rule="evenodd" clip-rule="evenodd" d="M18.7726 1.34358C17.826 0.883175 16.965 0.733276 15.9434 0.733276C15.0174 0.733276 14.0493 0.929695 13.1706 1.30924C12.2561 0.990983 10.0652 1.18002 9.58635 1.19072C9.03806 1.20328 6.76965 1.0663 6.23395 1.0663C5.69821 1.0663 4.59059 1.08365 3.75508 1.14088C2.48315 1.22838 1.0451 1.10433 0.871571 1.06113C0.787391 1.04046 0.72498 1.09141 0.72498 1.09141C0.687705 1.14088 0.301514 1.57692 0.301514 1.57692L0.339173 1.70208L1.24852 2.16285L1.12411 2.76134L2.00947 3.16045C2.00947 3.16045 2.00947 3.65814 2.05856 3.72054C2.10842 3.78367 2.99378 4.00741 2.99378 4.00741C2.99378 4.00741 3.082 4.58928 3.14329 4.64282C3.24705 4.73512 4.1782 4.83038 4.1782 4.83038C4.1782 4.83038 4.46432 5.35354 4.58876 5.40339C4.71355 5.45323 5.71076 5.60313 5.89723 5.55292C5.89723 5.55292 5.97993 5.98858 6.15641 6.06722C6.34506 6.15066 7.43018 6.11448 7.43018 6.11448C7.43018 6.11448 7.56493 6.54387 7.78093 6.61107C7.98287 6.67346 8.92583 6.42535 8.92583 6.42535C8.92583 6.42535 9.06356 6.74361 9.20052 6.79936C9.40949 6.88465 10.1712 6.61439 10.1712 6.61439C10.5629 8.2282 11.8677 9.37016 13.4043 9.96717L13.6192 10.3991L14.1243 10.2079L14.3883 10.6129L14.8494 10.3622L15.1636 10.7432L15.5779 10.4434L15.943 10.7824L16.3067 10.4335L16.722 10.7373L17.0348 10.357L17.4966 10.6085L17.7614 10.2068L18.2686 10.4014L18.4776 9.96901C19.902 9.41631 21.2208 8.26549 21.6495 6.80638C21.7828 6.86582 22.0357 6.95221 22.2446 6.96107C22.2446 6.96107 22.4828 6.87505 22.5795 6.57378C22.5795 6.57378 23.4062 6.83185 23.5572 6.7857C23.5572 6.7857 23.696 6.77832 23.8241 6.35557C23.9087 6.39434 23.9788 6.37367 24.1047 6.40099C24.7482 6.54092 25.0288 6.46523 25.0288 6.46523C25.0288 6.46523 25.1728 6.44086 25.2869 5.89886C25.3441 5.90736 25.3851 5.91437 25.4283 5.91179C25.4283 5.91179 26.3838 5.93911 26.5492 5.8564C26.5492 5.8564 26.7002 5.81838 26.7545 5.27527C27.1485 5.33434 27.5029 5.36019 27.7898 5.32733C27.7898 5.32733 28.111 5.21694 28.2347 4.58522C28.4514 4.57156 29.0905 4.5291 29.1699 4.43495C29.1699 4.43495 29.3272 4.36259 29.3272 3.79512C29.5771 3.77887 29.9836 3.72644 30.1302 3.57064C30.1302 3.57064 30.2852 3.3912 30.218 2.95886C30.8084 2.83518 31.0133 2.64282 31.0133 2.64282C31.0093 2.43385 30.8254 2.0495 30.8254 2.0495C30.8254 2.0495 31.4859 1.79475 31.6465 1.66553L31.6986 1.5699C31.6986 1.5699 31.2987 1.09067 31.2367 1.07775C31.0945 1.04821 29.8167 1.23318 28.9908 1.23318C28.1642 1.23318 26.6744 1.10765 26.0611 1.10765C25.4475 1.10765 23.5317 1.24574 22.6305 1.24574C21.7289 1.24574 21.3792 1.10765 20.7158 1.10765C20.3033 1.10765 19.3563 1.13387 18.7726 1.34358Z" fill="black"/>
<path d="M29.6104 2.23443C29.3963 2.2348 29.1829 2.23554 28.9695 2.23554C28.6047 2.25252 28.2133 2.24218 27.8368 2.24809C27.3409 2.25584 26.1993 2.26507 26.1413 2.2695C25.9047 2.2695 25.6676 2.2695 25.4313 2.2695C25.0286 2.2695 24.673 2.26803 24.2706 2.26803C24.2023 2.27098 23.7943 2.28206 23.6654 2.28132C23.6078 2.27984 23.5037 2.27283 23.4465 2.28132C23.3512 2.29609 23.1958 2.49657 23.383 2.49657C23.3911 2.49472 23.4 2.49324 23.4088 2.49214C23.4277 2.48955 23.4465 2.4866 23.4657 2.48328C23.5181 2.46703 23.5864 2.4866 23.6399 2.49066C23.7396 2.49767 23.8404 2.50543 23.9405 2.51244C24.2037 2.53053 24.4666 2.54826 24.7291 2.56672C24.9178 2.58185 25.1072 2.59773 25.2959 2.6125C26.6778 2.69963 28.0431 2.82332 29.4753 2.82332C29.8065 2.82332 30.1022 2.67822 30.2063 2.64499C30.2506 2.63059 30.3437 2.62025 30.3787 2.58887C30.4526 2.52426 30.3677 2.28981 30.2968 2.24698C30.2484 2.21745 29.6639 2.23148 29.6104 2.23443Z" fill="white"/>
<path d="M1.81061 2.33951C1.73825 2.36683 1.7065 2.40301 1.6969 2.48313C1.68913 2.54146 1.73343 2.67586 1.87521 2.74933C1.97637 2.79548 2.36073 2.97491 2.45968 2.99596C2.55124 3.01553 8.33747 2.67733 8.34668 2.67586C8.42496 2.64004 8.63727 2.58134 8.61881 2.45765C8.61364 2.42221 8.55787 2.38714 8.52686 2.37458C8.46152 2.34985 7.74857 2.41483 7.6954 2.4152C7.204 2.4152 1.94353 2.33951 1.81061 2.33951Z" fill="white"/>
<path d="M22.0909 2.42674C22.027 2.42526 21.9624 2.46366 21.9373 2.5327C21.9163 2.58956 21.9092 2.66709 21.9584 2.7066C22.0093 2.74721 22.0883 2.75866 22.1522 2.77527C22.2552 2.80185 22.3586 2.82844 22.4608 2.85502C22.5797 2.88419 22.6787 2.9008 22.8164 2.91446C22.9227 2.92443 23.015 2.9008 23.0427 2.81551C23.0734 2.71657 23.0623 2.65048 22.9851 2.60654C22.9489 2.58624 22.8002 2.54415 22.5831 2.50427C22.3711 2.4655 22.154 2.4308 22.0909 2.42674Z" fill="white"/>
<path d="M9.68309 2.42214C9.48112 2.48454 9.27253 2.51518 9.06208 2.55432C8.97974 2.56872 8.87119 2.57315 8.80438 2.61967C8.77372 2.64108 8.75674 2.67357 8.74826 2.70791C8.74087 2.74225 8.74566 2.78286 8.76633 2.80723C8.79699 2.84378 8.99155 2.92833 9.11782 2.90654C9.31793 2.85818 9.4922 2.79431 9.67828 2.73412C9.7429 2.7153 9.82708 2.70459 9.8736 2.65327C9.92456 2.59678 9.89094 2.53438 9.85071 2.48602C9.80898 2.43728 9.744 2.40774 9.68309 2.42214Z" fill="white"/>
<path d="M23.3567 2.74335C23.3327 2.75405 23.3087 2.76107 23.2895 2.78101C23.2241 2.84746 23.2082 2.95712 23.3349 2.95712C23.3862 2.94161 23.525 2.96266 23.5745 2.97041C23.6664 2.98407 23.758 2.99847 23.8492 3.01287C24.2195 3.0712 24.5902 3.12954 24.9605 3.18787C25.4076 3.26098 25.8566 3.33556 26.3111 3.38577C26.6301 3.42121 26.9476 3.47733 27.2699 3.50798C27.7669 3.55524 28.2572 3.62502 28.7825 3.62502C28.8143 3.62391 28.8464 3.62206 28.8782 3.62095C28.8966 3.61874 28.9158 3.61763 28.9346 3.61689C28.9476 3.61468 28.9616 3.61357 28.9745 3.61209C28.9886 3.61062 29.003 3.60914 29.0177 3.60729C29.0332 3.60619 29.0495 3.60471 29.0653 3.6036C29.079 3.60139 29.0916 3.60065 29.1049 3.59917C29.1152 3.59696 29.1252 3.59585 29.1348 3.59437C29.144 3.59326 29.1525 3.59142 29.1617 3.59031C29.1706 3.58883 29.1787 3.58736 29.1872 3.58588C29.196 3.5844 29.2053 3.5833 29.2138 3.58145C29.2614 3.56927 29.309 3.55671 29.3559 3.54416C29.5224 3.49321 29.6073 3.42343 29.6653 3.25839C29.6779 3.2211 29.6937 3.16867 29.6646 3.13508C29.6384 3.10554 29.5977 3.10037 29.5579 3.09853C29.3489 3.09853 29.1396 3.09779 28.9306 3.09779C28.6456 3.08745 28.3616 3.07674 28.0759 3.0664C27.0199 3.01693 25.9714 2.93238 24.9254 2.86519C24.571 2.83786 24.2166 2.81054 23.8617 2.78285C23.7152 2.77141 23.5099 2.74335 23.3567 2.74335Z" fill="white"/>
<path d="M9.93312 2.88889C9.73931 2.92655 9.56687 3.00962 9.38448 3.07091C9.30916 3.09564 9.21243 3.11336 9.1567 3.17465C9.12273 3.21194 9.11387 3.25957 9.12604 3.31163C9.1338 3.34633 9.14931 3.39839 9.17368 3.42571C9.22241 3.4811 9.35125 3.53278 9.43803 3.53278C9.48638 3.53131 9.56096 3.51617 9.59236 3.50362C9.73487 3.42682 9.87665 3.3504 10.0192 3.2736C10.0679 3.24739 10.1307 3.23963 10.1705 3.19828C10.3064 3.05835 10.0487 2.86932 9.93312 2.88889Z" fill="white"/>
<path d="M21.8245 2.95948C21.7433 2.98606 21.5587 3.08648 21.6381 3.1762C21.6694 3.21238 21.7702 3.24635 21.8134 3.26112C21.867 3.28438 21.8633 3.29102 21.9164 3.31428C21.9766 3.34198 22.0357 3.37003 22.0955 3.39736C22.207 3.45163 22.2664 3.5107 22.4067 3.5107C22.5722 3.50701 22.6464 3.53249 22.7283 3.37594C22.7505 3.33533 22.7357 3.28992 22.7121 3.25927C22.6733 3.20869 22.454 3.12894 22.3588 3.09645C22.1719 3.03295 21.8769 2.94545 21.8245 2.95948Z" fill="white"/>
<path d="M8.49564 2.91492C8.36494 2.92821 7.40982 3.02014 7.06202 3.04229C6.87594 3.05743 3.62765 3.25939 3.34445 3.26345C3.29203 3.26751 2.6053 3.26013 2.53406 3.32068C2.49714 3.35206 2.5381 3.53777 2.57355 3.57174C2.63965 3.63561 2.76037 3.65444 2.84715 3.67844C3.0993 3.74933 3.32599 3.82981 3.61879 3.82981C3.63799 3.82834 8.71681 3.18075 8.80911 3.18075C8.82241 3.16782 8.83531 3.15859 8.8331 3.13792C8.82905 3.09177 8.65145 2.95073 8.60714 2.93042C8.5743 2.91566 8.53626 2.91492 8.49564 2.91492Z" fill="white"/>
<path d="M23.0562 3.12363C23.0063 3.14246 22.9469 3.1683 22.9595 3.23734C22.9679 3.28682 22.9894 3.36546 23.0304 3.39684C23.1005 3.45074 23.2578 3.47179 23.3475 3.49505C23.5967 3.55966 23.847 3.6239 24.0966 3.68778C24.4654 3.78266 24.8373 3.86093 25.2124 3.94954C25.6661 4.05735 26.1354 4.15187 26.6028 4.22756C26.8601 4.26854 27.1182 4.31506 27.3833 4.3494C27.5199 4.36675 27.6528 4.39186 27.7968 4.39186C27.8105 4.39075 27.823 4.38927 27.8367 4.38743C27.8607 4.38632 27.8865 4.38484 27.9109 4.38336C27.9283 4.38189 27.9452 4.38078 27.9633 4.37893C27.9759 4.37746 27.9888 4.37635 28.0021 4.3745C28.0213 4.3734 28.0405 4.37192 28.0586 4.37044C28.0782 4.3686 28.0966 4.36712 28.1154 4.36638C28.1346 4.36417 28.1531 4.36306 28.1723 4.36158C28.1871 4.3601 28.2011 4.35863 28.2155 4.35715C28.2288 4.35567 28.2417 4.3542 28.255 4.35309C28.2679 4.35124 28.2812 4.35014 28.2941 4.34866C28.3071 4.34681 28.32 4.3457 28.3337 4.34386C28.3447 4.34275 28.3565 4.34127 28.3676 4.3398C28.3768 4.33869 28.3853 4.33684 28.3946 4.33537C28.4031 4.33389 28.4119 4.33278 28.4208 4.33094C28.4296 4.32946 28.4381 4.32835 28.4462 4.32651C28.4555 4.3254 28.464 4.32355 28.4732 4.32208C28.5245 4.29845 28.5795 4.29955 28.6275 4.26743C28.6925 4.2235 28.8491 4.00677 28.766 3.9381C28.7003 3.88309 28.3436 3.89416 28.2328 3.8853C27.8954 3.85872 27.5598 3.81774 27.2268 3.78562C26.7483 3.74057 26.2727 3.65602 25.8016 3.59547C25.2423 3.52348 24.6914 3.43228 24.1413 3.34035C23.8858 3.29642 23.6296 3.25322 23.3748 3.20891C23.2637 3.18233 23.181 3.12363 23.0562 3.12363Z" fill="white"/>
<path d="M8.42602 3.45201C8.14247 3.50185 7.85965 3.55096 7.5761 3.60043C7.12788 3.6824 5.36493 3.94601 4.93036 3.99438C4.64902 4.02576 4.36842 4.05825 4.08044 4.08114C3.5536 4.05567 3.46055 4.14243 3.52737 4.2831C3.55616 4.34365 3.58461 4.42377 3.64221 4.46733C3.71271 4.52013 4.2994 4.63901 4.52644 4.63901C4.79966 4.64824 6.01104 4.45552 6.21151 4.40604C6.5235 4.32962 8.89934 3.69015 8.96028 3.64991C9.00715 3.61852 8.96875 3.47564 8.91042 3.40291C8.85947 3.33977 8.55672 3.42838 8.42602 3.45201Z" fill="white"/>
<path d="M10.3431 3.38962C10.2581 3.39369 9.67885 3.75403 9.63749 3.80831C9.60908 3.84523 9.60982 3.8899 9.62385 3.93458C9.63493 3.97002 9.64488 4.00694 9.6722 4.03426C9.7357 4.09813 9.87748 4.09998 9.97312 4.09998C9.99896 4.09001 10.0252 4.07967 10.0514 4.06934C10.1023 4.04091 10.1433 3.99771 10.191 3.96079C10.2888 3.88141 10.3634 3.82529 10.4612 3.74628C10.511 3.7112 10.6255 3.68241 10.6576 3.62739C10.7399 3.48488 10.4409 3.38741 10.3431 3.38962Z" fill="white"/>
<path d="M21.448 3.38965C21.3516 3.39482 21.1747 3.45426 21.1585 3.58164C21.1541 3.61413 21.1596 3.64736 21.1836 3.66692C21.2268 3.70311 21.5683 3.87516 21.6772 3.94494C21.7599 3.99736 21.8238 4.0605 21.9335 4.0605C22.0811 4.0557 22.1336 4.01952 22.1697 3.99773C22.2336 3.95823 22.3104 3.86076 22.255 3.7847C22.2063 3.71677 22.1026 3.6876 22.0317 3.65511C21.9534 3.61819 21.8755 3.58127 21.7968 3.54435C21.7444 3.51813 21.5332 3.38965 21.448 3.38965Z" fill="white"/>
<path d="M22.8642 3.64243C22.8129 3.66495 22.7619 3.68784 22.7106 3.71036C22.6404 3.73842 22.4643 3.77608 22.5064 3.88278C22.5407 3.97028 23.3711 4.21581 23.6255 4.30663C24.2878 4.53591 24.8546 4.73159 25.5527 4.88555C26.06 4.99742 26.6002 5.12369 27.1617 5.12369C27.1846 5.12258 27.2083 5.12147 27.2304 5.11963C27.247 5.11815 27.2622 5.11667 27.2788 5.11557C27.288 5.11372 27.2961 5.11261 27.305 5.11113C27.3434 5.09157 27.3811 5.08307 27.4172 5.05834C27.4734 5.01809 27.5048 4.95828 27.5483 4.90992C27.5885 4.86561 27.6487 4.83164 27.6727 4.77848C27.6831 4.75374 27.6842 4.72162 27.6679 4.69947C27.6491 4.67547 27.6207 4.66845 27.5926 4.6607C27.4638 4.64335 27.3345 4.626 27.205 4.60827C26.9535 4.56766 26.7024 4.52705 26.4506 4.48643C26.1132 4.42995 25.7743 4.35647 25.4438 4.28448C24.9147 4.16965 24.3953 4.05335 23.8799 3.92081C23.6402 3.85767 23.4003 3.79528 23.1607 3.73251C23.1101 3.71664 23.0591 3.7015 23.0082 3.68562C22.9598 3.66827 22.9199 3.64612 22.8642 3.64243Z" fill="white"/>
<path d="M10.852 3.79843C10.7656 3.79843 10.5138 4.0554 10.4208 4.13072C10.3765 4.16764 10.2675 4.2629 10.245 4.31643C10.2025 4.42129 10.2683 4.4774 10.3366 4.52799C10.3993 4.57488 10.5917 4.54497 10.677 4.4811C10.7394 4.43421 11.14 4.07534 11.164 4.03325C11.2799 3.82834 10.9867 3.79843 10.852 3.79843Z" fill="white"/>
<path d="M9.2404 3.79947C9.20644 3.8087 9.17138 3.81867 9.13741 3.82827C9.04768 3.8663 6.96387 4.51241 5.97625 4.72249C5.69122 4.78304 5.40286 4.82218 5.10897 4.86537C5.01888 4.87866 4.82801 4.86611 4.76525 4.91928C4.72464 4.95583 4.84461 5.14855 4.87897 5.20098C4.9661 5.33057 5.98807 5.37377 6.44255 5.25378C6.62641 5.19987 9.33271 4.25249 9.38809 4.18197C9.44494 4.10923 9.43091 3.92795 9.42318 3.89509C9.40359 3.81165 9.32311 3.79947 9.2404 3.79947Z" fill="white"/>
<path d="M20.9549 3.81265C20.8733 3.83444 20.747 3.79936 20.6961 3.87579C20.668 3.91677 20.6621 3.98323 20.6883 4.02347C20.72 4.0711 21.1613 4.43255 21.2137 4.4595C21.2831 4.49495 21.3735 4.49273 21.4603 4.49273C21.5334 4.49126 21.6844 4.42997 21.6663 4.31404C21.6619 4.28339 21.6412 4.25607 21.618 4.23466C21.5508 4.17374 21.4681 4.1346 21.395 4.08365C21.3326 4.04156 21.2624 3.9884 21.2 3.94631C21.1432 3.90348 21.0933 3.87136 21.0365 3.82853C21.0117 3.81634 20.9851 3.8145 20.9549 3.81265Z" fill="white"/>
<path d="M20.2971 4.16121C20.2233 4.1793 20.1383 4.21031 20.1527 4.30889C20.1542 4.32772 20.2698 4.41596 20.3137 4.45879C20.413 4.55847 20.4861 4.73126 20.6124 4.7992C20.7003 4.84682 20.8302 4.90479 20.9292 4.85421C21.0525 4.79403 21.0208 4.67293 21.0004 4.64671C20.91 4.52931 20.787 4.43922 20.6818 4.334C20.6309 4.28304 20.5829 4.2092 20.5194 4.17967C20.4584 4.15198 20.3717 4.16121 20.2971 4.16121Z" fill="white"/>
<path d="M11.3488 4.17708C11.282 4.21585 11.1993 4.32255 11.1465 4.37941C11.1073 4.42113 11.0693 4.46285 11.0309 4.50383C10.953 4.58321 10.7902 4.71945 10.929 4.81692C10.9866 4.85716 11.0822 4.89002 11.1454 4.87156C11.1963 4.84793 11.2443 4.8435 11.2886 4.80584C11.3326 4.76892 11.3621 4.71465 11.3916 4.66776C11.4263 4.61533 11.543 4.45177 11.5722 4.4263C11.6324 4.37313 11.721 4.33289 11.6619 4.22545C11.6357 4.17671 11.412 4.1409 11.3488 4.17708Z" fill="white"/>
<path d="M22.3929 4.18283C22.3339 4.20831 22.1275 4.28067 22.1312 4.33974C22.1374 4.4254 22.2615 4.46306 22.3368 4.4889C22.3937 4.50884 22.4446 4.54096 22.4971 4.56791C22.6041 4.62477 22.7119 4.68126 22.8186 4.73812C22.9888 4.82378 23.159 4.90943 23.3292 4.99509C23.5759 5.12505 23.8273 5.24467 24.0839 5.35137C24.3475 5.46103 24.617 5.5921 24.908 5.64563C25.155 5.69105 25.4415 5.67775 25.7139 5.67775C25.7357 5.67591 25.7579 5.6748 25.7793 5.67332C25.8158 5.67185 25.852 5.67037 25.8886 5.66889C25.9078 5.66742 25.9263 5.66594 25.9451 5.66483C25.9565 5.66262 25.9683 5.66188 25.9802 5.66003C25.9916 5.65855 26.0034 5.65745 26.0152 5.6556C26.0237 5.65412 26.0318 5.65302 26.0407 5.65117C26.0666 5.63973 26.0931 5.62791 26.1197 5.61683C26.1803 5.57401 26.3224 5.42706 26.2626 5.35137C26.2065 5.28196 25.9691 5.26535 25.8757 5.24467C25.6715 5.2 25.4688 5.15237 25.2698 5.10253C24.5495 4.92235 23.858 4.68717 23.169 4.45346C22.9918 4.38848 22.8142 4.3235 22.637 4.25815C22.5583 4.22898 22.4826 4.18578 22.3929 4.18283Z" fill="white"/>
<path d="M9.61516 4.35712C9.48003 4.36302 8.99306 4.64436 8.79921 4.72522C8.25573 4.95634 7.68902 5.15239 7.12191 5.34142C6.97163 5.3872 6.82064 5.43336 6.67 5.4784C6.57584 5.50498 6.46325 5.52012 6.37942 5.56664C6.3547 5.57956 6.33364 5.60208 6.32959 5.63051C6.32109 5.68109 6.36356 5.7206 6.399 5.74718C6.44219 5.77893 6.48354 5.81586 6.53375 5.83468C6.61241 5.86311 6.70397 5.86127 6.79589 5.8657C7.01041 5.87567 7.43683 5.94286 7.71521 5.82102C7.97144 5.70952 9.0547 5.1391 9.34047 4.9844C9.47524 4.90871 10.0671 4.63254 10.0589 4.52326C10.046 4.35084 9.76839 4.35712 9.61516 4.35712Z" fill="white"/>
<path d="M21.8485 4.53607C21.7998 4.56819 21.6705 4.6664 21.6871 4.73323C21.7063 4.80744 21.9471 4.91857 21.9866 4.94737C22.3543 5.22354 22.7209 5.49749 23.1045 5.7467C23.3157 5.88331 23.5302 6.02656 23.765 6.1148C23.9943 6.20083 24.2672 6.23074 24.5378 6.23074C24.5533 6.22963 24.5696 6.22815 24.5858 6.22704C24.6083 6.21708 24.6312 6.20821 24.6541 6.19898C24.7172 6.15985 24.8675 6.03173 24.8217 5.95014C24.8103 5.93057 24.7911 5.91654 24.7711 5.90731C24.7154 5.88848 24.6596 5.86928 24.6039 5.85008C24.5075 5.81501 24.4108 5.77919 24.3148 5.74449C24.0161 5.6245 23.7248 5.49417 23.435 5.35534C23.0377 5.16446 22.6471 4.96288 22.2638 4.75169C22.1439 4.68339 22.0242 4.61434 21.905 4.54567C21.895 4.54309 21.8847 4.5405 21.8747 4.53718C21.8655 4.53718 21.8577 4.53644 21.8485 4.53607Z" fill="white"/>
<path d="M21.2734 4.78885C21.2508 4.80029 21.2302 4.81174 21.2143 4.83389C21.1862 4.87303 21.1766 4.92619 21.1589 4.97087C21.1415 5.01111 21.1235 5.05025 21.1054 5.08975C21.0998 5.11191 21.0995 5.13849 21.1087 5.15843C21.1316 5.20421 21.1921 5.20532 21.2328 5.22636C21.2675 5.24408 21.2992 5.26771 21.3288 5.29503C21.5972 5.54794 21.8497 5.81451 22.1214 6.05376C22.2222 6.14347 22.3105 6.25423 22.4253 6.31552C22.5172 6.36537 22.6287 6.38936 22.7325 6.41632C22.8931 6.4573 23.0493 6.51416 23.2302 6.51416C23.2959 6.4813 23.4912 6.42112 23.4583 6.31478C23.4569 6.31072 23.455 6.30666 23.4528 6.3026C23.4487 6.29632 23.4443 6.28931 23.4399 6.28303C23.3738 6.20993 23.2745 6.17264 23.1947 6.1228C23.0452 6.03013 22.9001 5.93266 22.7535 5.83629C22.3969 5.60148 22.059 5.33195 21.7149 5.07388C21.5879 4.97862 21.5015 4.83057 21.3428 4.79365C21.3335 4.79254 21.3254 4.7918 21.3166 4.78996C21.3096 4.78922 21.3025 4.78922 21.2951 4.78922C21.2874 4.78885 21.2811 4.78885 21.2734 4.78885Z" fill="white"/>
<path d="M10.1953 4.7927C10.0978 4.82002 7.86892 6.04136 7.83678 6.09416C7.78326 6.18055 7.94793 6.31457 8.02989 6.33266C8.15208 6.35962 8.82738 6.29427 9.12015 6.11963C9.20545 6.05576 10.2145 5.2627 10.2939 5.19661C10.3906 5.11391 10.7059 4.95072 10.6708 4.88205C10.6309 4.80414 10.2872 4.76353 10.1953 4.7927Z" fill="white"/>
<path d="M10.8185 5.10246C10.7569 5.0947 10.4017 5.53517 9.55546 6.12738C9.48274 6.17759 9.31769 6.28318 9.28151 6.35813C9.22873 6.50434 9.47019 6.54089 9.5588 6.54089C9.57909 6.53904 10.038 6.48034 10.251 6.35666C10.3489 6.29943 11.3 5.34355 11.3295 5.30146C11.3428 5.28263 11.3528 5.18553 11.3487 5.17704C11.2985 5.10098 11.1405 5.15341 11.0515 5.14196C10.9832 5.13236 10.8857 5.11279 10.8185 5.10246Z" fill="white"/>
<path d="M20.6106 5.10681C20.5276 5.13266 20.4471 5.23123 20.4843 5.32944C20.5039 5.38224 20.5608 5.39332 20.6007 5.42655C20.6379 5.45904 20.6653 5.49596 20.6926 5.53472C20.8624 5.76954 21.0304 6.00768 21.2124 6.23511C21.2822 6.32151 21.3538 6.43153 21.4495 6.49836C21.5732 6.58549 21.8201 6.67151 21.9881 6.67151C22.0483 6.64124 22.1975 6.6357 22.2004 6.54414C22.2004 6.54045 22.2004 6.53602 22.1997 6.53195C22.1897 6.44482 22.0291 6.3311 21.9656 6.27129C21.7135 6.02946 21.4617 5.78763 21.2087 5.5458C21.1563 5.49226 21.1035 5.4391 21.0507 5.38593C21.002 5.33055 20.961 5.26926 20.9012 5.22164C20.8218 5.15739 20.7218 5.11013 20.6106 5.10681Z" fill="white"/>
<path d="M10.6112 6.95287C10.5728 6.96616 10.5861 7.0352 10.5968 7.07065C10.6156 7.13267 10.8634 7.53659 10.973 7.69867C11.0672 7.83823 11.1573 7.98148 11.2691 8.11218C11.6919 8.6084 12.2025 9.04886 12.7519 9.33131C12.8357 9.3734 13.2928 9.61117 13.3965 9.60157C13.4183 9.59972 13.4257 9.57868 13.4216 9.56612C13.4146 9.53991 13.3917 9.5244 13.3703 9.51074C13.2665 9.46201 13.1624 9.4129 13.0583 9.36417C12.8792 9.27962 12.7028 9.17735 12.5348 9.0688C12.1408 8.81331 11.7775 8.51093 11.443 8.14283C11.2902 7.97484 11.1879 7.80094 11.0495 7.60009C10.9188 7.41143 10.7452 7.06548 10.7013 6.99422C10.6784 6.95656 10.6463 6.93219 10.6112 6.95287Z" fill="white"/>
<path d="M21.1688 6.99365C21.1245 7.01728 20.8757 7.47805 20.6616 7.7893C20.4234 8.13414 20.1225 8.46642 19.7898 8.73447C19.5118 8.95895 19.2401 9.12251 18.9307 9.28422C18.7369 9.37837 18.4928 9.48839 18.447 9.52716C18.3858 9.57774 18.4168 9.61687 18.4884 9.61687C18.5512 9.59066 18.8362 9.47141 19.1234 9.31302C19.7278 8.97999 20.3418 8.4295 20.7631 7.85575C20.9444 7.60801 21.1895 7.1454 21.2161 7.08079C21.2368 7.0302 21.2253 6.99919 21.1688 6.99365Z" fill="white"/>
<path fill-rule="evenodd" clip-rule="evenodd" d="M13.5547 1.48496C13.5547 1.48496 13.493 1.36977 13.6274 1.30257C13.7632 1.23501 14.7697 0.912689 15.9597 0.912689C17.2667 0.912689 18.4024 1.33617 18.4684 1.39008C18.5585 1.46318 18.4765 1.59942 18.375 1.57911C18.2746 1.55917 17.2445 1.12203 15.9733 1.12203C14.7022 1.12203 13.8142 1.45949 13.7359 1.50527C13.6429 1.55917 13.5547 1.48496 13.5547 1.48496Z" fill="white"/>
<path d="M12.1779 5.58014C12.1779 4.01876 13.8485 2.75311 15.9098 2.75311C17.9715 2.75311 19.6425 4.01876 19.6425 5.58014C19.6425 7.14189 17.9715 8.40753 15.9098 8.40753C13.8485 8.40753 12.1779 7.14189 12.1779 5.58014Z" stroke="white" stroke-width="0.2" stroke-miterlimit="3.864"/>
<path d="M15.6298 3.31134C15.6006 3.32832 15.5512 3.31762 15.5165 3.32168C15.3655 3.34162 15.2145 3.36045 15.0682 3.38814C14.6448 3.46678 14.2372 3.63218 13.8923 3.86884C13.8048 3.92903 13.7048 3.99807 13.635 4.08409C13.6331 4.08778 13.6309 4.09111 13.628 4.09517C13.6029 4.13689 13.5586 4.16864 13.5416 4.21442C13.5349 4.23288 13.5286 4.26131 13.5357 4.28199C13.5593 4.34955 13.6852 4.46585 13.748 4.50314C13.779 4.52197 13.8318 4.55779 13.8366 4.59692C13.8432 4.65673 13.8299 4.71396 13.8262 4.76676C13.8255 4.83801 13.8255 4.90927 13.8255 4.98053V6.03056V6.4485C13.8244 6.50979 13.8229 6.56997 13.8211 6.63089C13.8129 6.66116 13.6926 6.77709 13.6642 6.80959C13.6265 6.85278 13.6069 6.90706 13.5759 6.95284C13.5756 6.95653 13.5737 6.95985 13.5722 6.96318C13.5903 6.98016 13.587 7.01302 13.5995 7.03369C13.6361 7.09387 13.697 7.15738 13.755 7.20205C14.2272 7.57089 14.9372 7.77433 15.5685 7.82491C15.8181 7.84447 16.0747 7.82601 16.3276 7.82601C16.349 7.80423 16.5059 7.80423 16.5492 7.80423C16.5694 7.78429 16.6795 7.78282 16.7149 7.78282C16.7356 7.7603 16.8046 7.7603 16.8371 7.7603C16.8497 7.74737 16.8737 7.74737 16.894 7.74737C16.9143 7.72596 16.9623 7.72596 16.9937 7.72596C17.0084 7.70934 17.0487 7.70418 17.0723 7.70418C17.0867 7.68867 17.1236 7.68202 17.1461 7.68202C17.1606 7.66615 17.2019 7.66061 17.2244 7.66061C17.247 7.63587 17.3127 7.61704 17.347 7.61704C17.364 7.59341 17.3946 7.58972 17.4186 7.57865C17.4796 7.54911 17.5401 7.51957 17.6003 7.49004C17.8111 7.36561 18.0005 7.19762 18.112 6.97794C18.1341 6.93548 18.1663 6.89413 18.1663 6.84097C18.1836 6.82361 18.1877 6.78965 18.1877 6.7627C18.2132 6.73759 18.2095 6.67962 18.2095 6.64086C18.2375 6.6091 18.2231 6.512 18.2224 6.46659C18.2161 6.03499 17.8805 5.61963 17.5061 5.45939C17.4991 5.45644 17.4818 5.4557 17.4818 5.44647C17.5091 5.42764 17.5464 5.38961 17.5825 5.38961C17.6103 5.34826 17.7011 5.31282 17.7432 5.27663C17.8314 5.20242 18.0441 4.99271 18.0441 4.88047C18.0588 4.86644 18.0655 4.8454 18.0655 4.82362C18.0832 4.807 18.0876 4.77451 18.0876 4.74904C18.1186 4.71655 18.1094 4.63274 18.1094 4.58363C18.1371 4.55372 18.1179 4.48284 18.112 4.4485C18.0743 4.24285 17.9913 4.0708 17.8499 3.91943C17.8177 3.88509 17.7819 3.85961 17.7502 3.82712C17.6501 3.72338 17.5187 3.65692 17.3961 3.59563C17.052 3.42358 16.6525 3.33165 16.2357 3.31208C16.033 3.31171 15.8314 3.31134 15.6298 3.31134Z" fill="white"/>
<path d="M15.8426 3.68619C16.0786 3.68619 16.3115 3.70649 16.4932 3.8132C16.7752 3.9786 16.8591 4.32012 16.8173 4.64502C16.7915 4.83885 16.7269 5.02604 16.5803 5.15453C16.437 5.27969 16.2513 5.31033 16.0568 5.33544C15.6259 5.39082 15.1799 5.24092 15.0573 4.82704C15.0274 4.72698 15.0042 4.61696 15.0027 4.50546C15.0053 4.45045 15.0082 4.3947 15.0108 4.34005C15.0293 4.31975 15.0322 4.26843 15.0322 4.23963C15.047 4.22486 15.0547 4.19606 15.0547 4.17428C15.0665 4.16357 15.0758 4.14364 15.0758 4.12628C15.0843 4.11853 15.0891 4.10819 15.0891 4.09564C15.1127 4.07718 15.1548 4.01294 15.1548 3.98229C15.1888 3.96309 15.208 3.92543 15.2356 3.89922C15.3102 3.82944 15.4498 3.74305 15.5554 3.74305C15.5657 3.73123 15.5827 3.73012 15.5989 3.73012C15.6215 3.70576 15.6861 3.70797 15.7212 3.70797C15.7474 3.67954 15.8105 3.70391 15.8426 3.68619Z" fill="black"/>
<path d="M15.7869 5.67786C16.0764 5.67786 16.3315 5.68192 16.5611 5.78788C17.0511 6.01421 17.0965 6.82905 16.7576 7.20269C16.512 7.4759 15.9833 7.5239 15.62 7.42827C15.537 7.40575 15.4535 7.38803 15.3797 7.34631C15.2818 7.28982 15.2047 7.21745 15.1378 7.12515C15.0433 6.99482 14.9891 6.80763 14.9809 6.63632C14.9765 6.53996 14.9891 6.44433 14.9891 6.35277C15.0071 6.33505 15.0108 6.2937 15.0108 6.266C15.0267 6.25013 15.0322 6.21948 15.0322 6.19622C15.0466 6.18441 15.0548 6.163 15.0548 6.1438C15.0706 6.13014 15.0891 6.09691 15.0891 6.07365C15.1279 6.04448 15.1533 5.98615 15.181 5.94738C15.2128 5.90307 15.3376 5.80006 15.39 5.80006C15.4081 5.7768 15.4557 5.75576 15.486 5.75576C15.4996 5.73988 15.5336 5.73435 15.5554 5.73435C15.5724 5.71552 15.616 5.71256 15.6429 5.71256C15.6747 5.67859 15.7514 5.70813 15.7869 5.67786Z" fill="black"/>
<path d="M19.258 1.5687C19.3134 1.55246 19.3673 1.56501 19.4042 1.60489C19.4393 1.64328 19.4293 1.7079 19.3843 1.733C19.3477 1.75331 19.299 1.75515 19.258 1.76586C19.1528 1.79318 18.7913 1.84598 18.7714 1.97151C18.7607 2.04388 18.8563 2.12769 18.8928 2.15353C18.9427 2.1971 18.8563 2.11513 18.9061 2.1587C18.9789 2.22257 19.1409 2.33444 19.0534 2.44927C19.032 2.47696 18.9969 2.48988 18.9608 2.48619C18.7884 2.46883 18.5532 2.12658 18.5329 2.07009C18.5081 1.99994 18.5181 1.92794 18.558 1.86998C18.6927 1.67688 19.0508 1.63959 19.258 1.5687Z" fill="black"/>
<path d="M22.1341 2.12551C22.1248 2.27209 22.5446 2.24218 22.6469 2.25141C22.7986 2.26507 23.094 2.37436 23.1505 2.32378C23.2188 2.26286 23.2915 1.97414 23.1689 1.9686C22.991 1.96121 22.9238 1.98115 22.7255 1.99629C22.5217 2.00884 22.1433 1.98263 22.1341 2.12551Z" fill="white"/>
<path d="M9.70717 2.17643C9.71308 2.27759 9.28371 2.27648 9.1818 2.28571C9.03043 2.29937 8.78784 2.40349 8.70626 2.3134C8.64459 2.24584 8.56558 2.04868 8.6889 2.04351C8.86612 2.03576 8.99129 2.04794 9.1888 2.06308C9.39373 2.07563 9.69796 2.02985 9.70717 2.17643Z" fill="white"/>
<path d="M12.9599 1.53887C13.1607 1.58908 13.2755 1.58354 13.3914 1.77257C13.4498 1.86635 13.4535 2.01662 13.3556 2.14658C13.2925 2.2315 13.2685 2.25808 13.1991 2.34263C13.1282 2.42829 13.1197 2.48625 12.9997 2.50361C12.9599 2.50951 12.9255 2.49991 12.9033 2.46779C12.824 2.35297 12.9927 2.21378 13.0817 2.11335C13.1157 2.07495 13.1925 1.96087 13.1799 1.91324C13.1563 1.75633 12.968 1.75891 12.8432 1.72015C12.7974 1.70538 12.6697 1.68175 12.6294 1.65627C12.581 1.62563 12.5954 1.56656 12.6242 1.52262C12.6468 1.48828 12.7634 1.49271 12.9599 1.53887Z" fill="black"/>
<path d="M21.814 2.07571C21.8572 2.08679 21.9118 2.08789 21.9203 2.14069C21.9299 2.20641 21.8801 2.26881 21.7468 2.28357C21.6541 2.27398 21.4669 2.10857 21.3942 2.25441C21.3318 2.37772 21.7243 2.42683 21.7065 2.54904C21.6925 2.65131 21.6552 2.66792 21.5648 2.66792C21.5238 2.67014 21.4271 2.61106 21.3942 2.59888C21.3041 2.55716 21.0907 2.38769 21.0102 2.52356C20.9308 2.65795 21.4728 2.84034 21.4584 2.9452C21.444 3.04451 21.3444 3.12278 21.269 3.09694C21.1649 3.07183 20.8315 2.68047 20.6801 2.83406C20.5406 2.97584 21.0981 3.22432 21.0704 3.31071C21.0231 3.45581 20.8961 3.49901 20.7193 3.35206C20.627 3.27527 20.4815 3.13238 20.3984 3.24425C20.2962 3.38234 20.5908 3.55623 20.6166 3.60239C20.6813 3.71869 20.5328 3.85308 20.435 3.83093C20.3442 3.81874 20.2102 3.47612 20.0831 3.59389C19.9857 3.68361 20.2238 3.89738 20.1991 3.98267C20.1891 4.06205 19.9872 4.16653 19.8934 4.09306C19.7645 4.00741 20.0684 3.56214 19.7701 3.14235C19.6257 2.96402 19.5083 2.68712 19.5002 2.63838C19.4887 2.5531 19.495 2.40652 19.5496 2.33342C19.7586 2.05319 20.7067 2.07202 21.1118 2.05319C21.3831 2.04027 21.536 2.07571 21.814 2.07571Z" fill="white"/>
<path d="M9.96386 2.11707C9.90922 2.11707 9.86196 2.12888 9.85383 2.18352C9.8435 2.25072 9.85345 2.35742 9.96717 2.36037C10.1012 2.36259 10.2647 2.18426 10.343 2.29687C10.4316 2.42388 9.97381 2.5003 10.0469 2.65463C10.1411 2.85179 10.3268 2.67125 10.3607 2.65906C10.453 2.61587 10.741 2.35927 10.8581 2.52836C10.9618 2.67715 10.4889 2.89314 10.4316 2.96403C10.4154 2.9847 10.3818 3.0962 10.3947 3.12353C10.4981 3.35317 10.7591 3.13313 10.9341 2.94151C10.9991 2.87025 11.0464 2.83111 11.1114 2.81413C11.2011 2.79087 11.2793 2.80859 11.3033 2.88908C11.3177 2.93486 11.3041 2.98877 11.2705 3.02015C11.2339 3.05522 10.8263 3.34948 10.84 3.43735C10.868 3.61568 10.9758 3.63931 11.0549 3.60128C11.1398 3.56362 11.3783 3.1586 11.519 3.21214C11.5562 3.22654 11.6028 3.23281 11.6175 3.26862C11.6382 3.31773 11.6301 3.3864 11.5991 3.42775C11.5596 3.48092 11.485 3.5507 11.4348 3.595C11.392 3.63266 11.3443 3.67734 11.3189 3.72423C11.2524 3.84348 11.351 3.89812 11.4599 3.89812C11.4983 3.89812 11.519 3.87671 11.5455 3.85382C11.612 3.79733 11.681 3.54553 11.8158 3.61273C11.9568 3.68361 11.6958 3.88299 11.7216 4.02439C11.76 4.13109 11.9295 4.15288 11.9764 4.0735C12.0281 3.94686 11.9975 3.75155 12.0495 3.5315C12.1001 3.33434 12.2419 3.0327 12.3102 2.91382C12.3537 2.84367 12.4065 2.78865 12.4265 2.70484C12.428 2.69894 12.429 2.6934 12.4302 2.68749C12.4416 2.59925 12.3859 2.52652 12.3261 2.47261C12.2278 2.3829 12.0953 2.32788 11.9723 2.2869C11.6098 2.16617 11.2217 2.15509 10.806 2.1359C10.5265 2.12223 10.2489 2.11707 9.96386 2.11707Z" fill="white"/>
<path d="M19.735 4.37543C19.786 4.27242 20.0175 4.3854 20.0389 4.40496C20.1028 4.46108 20.1246 4.55302 20.1718 4.62021C20.2298 4.70291 20.3804 4.87792 20.3719 4.9717C20.3649 5.04775 20.0721 5.27482 20.0083 5.22128C20.0064 5.21944 20.0049 5.21685 20.002 5.21464C19.9588 4.93182 19.8654 4.66009 19.7284 4.4057C19.7284 4.39463 19.7313 4.38429 19.735 4.37543Z" fill="white"/>
<path d="M20.0519 5.36401C20.1324 5.36401 20.2697 5.3954 20.3254 5.4445C20.3716 5.48474 20.3949 5.54529 20.4277 5.59514L20.5976 5.83475L20.9919 6.36457L21.1724 6.59754C21.206 6.65476 21.1968 6.69722 21.147 6.73673L21.1163 6.74079C20.9328 6.74079 20.6478 6.67249 20.523 6.56246C20.4606 6.50708 20.4274 6.44136 20.3875 6.37527L20.1948 6.01899C20.1637 5.96582 20.053 5.803 20.0334 5.74504C20.0312 5.73839 20.0283 5.72953 20.026 5.71919C20.029 5.67304 20.0301 5.62689 20.0301 5.58C20.0301 5.51834 20.0279 5.45668 20.0234 5.3954C20.0301 5.37767 20.0393 5.36586 20.0519 5.36401Z" fill="white"/>
<path d="M11.368 5.54188C11.4736 5.39567 11.611 5.27494 11.7391 5.29451C11.7686 5.29561 11.79 5.30669 11.804 5.32331C11.7944 5.40785 11.79 5.49388 11.79 5.58027L11.7911 5.62015L11.7878 5.62901C11.7516 5.7586 11.7383 5.7287 11.6508 5.89816C11.5179 6.15476 11.3728 6.52175 11.2871 6.56126C11.1624 6.61886 10.9722 6.61184 10.8349 6.64618C10.6385 6.69602 10.4989 6.64507 10.4989 6.55351C10.4996 6.4361 11.2894 5.66076 11.368 5.54188Z" fill="white"/>
<path d="M11.42 6.75397C11.5355 6.76505 11.5721 6.91901 11.7083 6.9515C11.7947 6.97218 11.8948 6.92566 11.9627 6.88652C12.0066 6.86104 12.0679 6.81083 12.1263 6.81711C12.5176 7.5031 13.2247 8.06171 14.1089 8.38772C14.1108 8.39141 14.1122 8.39473 14.1141 8.39843C14.1211 8.43276 14.1111 8.46119 14.0993 8.47559C14.0528 8.52876 13.6027 9.2369 13.5108 9.25905C13.4303 9.28748 13.1213 9.08958 13.0101 9.02903C12.4235 8.71151 11.8685 8.28619 11.4392 7.73311C11.3033 7.55922 10.9197 7.11284 10.9241 6.92861C10.9278 6.79865 11.352 6.75102 11.42 6.75397Z" fill="white"/>
<path d="M20.4338 6.85904C20.4826 6.83947 20.833 6.96906 20.8389 7.05509C20.8355 7.12598 20.621 7.42651 20.3807 7.74883C19.9594 8.31446 19.437 8.69733 18.8533 9.0226C18.7277 9.09238 18.5944 9.15588 18.4615 9.21089L18.3489 9.2552C18.3138 9.2552 18.2821 9.24597 18.2599 9.22234C18.2149 9.17582 17.7597 8.49721 17.7383 8.46805C17.7209 8.44479 17.7257 8.40491 17.7419 8.37722C18.5715 8.06376 19.2424 7.54577 19.6386 6.90999C19.7054 6.89153 19.8224 6.99195 19.8734 7.01706C19.962 7.06063 20.0739 7.10456 20.1831 7.07429C20.2976 7.0429 20.3441 6.90002 20.4338 6.85904Z" fill="white"/>
<path d="M16.5277 8.66653C16.5739 8.69386 16.5979 8.74591 16.6152 8.78099C16.6503 8.85261 16.7614 9.49836 16.8194 9.75053C16.8371 9.83434 16.8604 9.96393 16.8467 10.0522C16.8349 10.1293 16.7456 10.2371 16.6525 10.2497C16.5754 10.2611 16.421 10.1445 16.3948 10.0861C16.3609 10.009 16.3664 9.91446 16.3583 9.82437C16.338 9.55263 16.2981 8.89803 16.2981 8.82788C16.2981 8.78653 16.3117 8.72265 16.355 8.68315C16.4129 8.67835 16.4705 8.67318 16.5277 8.66653Z" fill="white"/>
<path d="M17.0597 8.57788C17.0845 8.59966 17.1029 8.62662 17.1177 8.64618C17.1665 8.71264 17.3939 9.34509 17.4969 9.59062C17.5305 9.67147 17.577 9.79885 17.5785 9.89005C17.5803 9.97053 17.5094 10.0953 17.4183 10.1241C17.3415 10.1496 17.1653 10.0599 17.1288 10.0049C17.0801 9.93324 17.069 9.83688 17.0442 9.74679C16.9756 9.47579 16.8183 8.82156 16.8057 8.75104C16.7998 8.71744 16.8002 8.66797 16.8194 8.62477C16.901 8.61111 16.9804 8.59523 17.0597 8.57788Z" fill="white"/>
<path d="M17.5456 8.4455C17.5773 8.46506 17.6024 8.49275 17.6224 8.51343C17.6785 8.57324 17.9816 9.17357 18.1138 9.40433C18.1563 9.48075 18.2187 9.60112 18.232 9.69157C18.2426 9.77095 18.1877 9.90313 18.1005 9.94374C18.0278 9.97771 17.8417 9.91014 17.7985 9.8603C17.7416 9.79495 17.7191 9.7008 17.6837 9.61441C17.5821 9.35375 17.3466 8.72351 17.3255 8.65484C17.3141 8.61828 17.3086 8.56032 17.33 8.51085C17.4027 8.49054 17.4751 8.46912 17.5456 8.4455Z" fill="white"/>
<path d="M15.9948 8.70044C16.0369 8.73404 16.0538 8.78794 16.0671 8.82412C16.0934 8.90018 16.1255 9.55479 16.1513 9.81249C16.1591 9.89704 16.1668 10.0292 16.1425 10.1145C16.1207 10.1898 16.0195 10.2858 15.9257 10.2873C15.8475 10.2884 15.7079 10.1547 15.6898 10.0935C15.6647 10.0126 15.6828 9.91956 15.685 9.82837C15.6983 9.55663 15.7374 8.90203 15.7463 8.83298C15.7511 8.79311 15.771 8.73478 15.8146 8.70044C15.8471 8.70118 15.8788 8.70118 15.9099 8.70118C15.9383 8.70118 15.9667 8.70118 15.9948 8.70044Z" fill="white"/>
<path d="M15.5023 8.68622C15.5362 8.72498 15.5444 8.77999 15.551 8.81655C15.5654 8.89593 15.4945 9.54684 15.4805 9.80602C15.4742 9.89057 15.4613 10.0224 15.424 10.1029C15.3904 10.1738 15.2756 10.2528 15.1833 10.2395C15.105 10.2288 14.9895 10.0741 14.9806 10.0109C14.9688 9.92675 15.0005 9.83814 15.0168 9.7488C15.0725 9.48223 15.2143 8.84165 15.2335 8.77483C15.2427 8.7416 15.266 8.69729 15.3026 8.66776C15.3686 8.67477 15.4355 8.68105 15.5023 8.68622Z" fill="white"/>
<path d="M15.006 8.62552C15.0477 8.67241 15.0458 8.7396 15.0466 8.78317C15.0466 8.86366 14.8638 9.49242 14.8044 9.74459C14.7837 9.82766 14.7483 9.95467 14.6973 10.0281C14.6523 10.0916 14.5256 10.1496 14.437 10.1204C14.3624 10.0961 14.2742 9.92439 14.2764 9.86015C14.2794 9.7756 14.3262 9.69364 14.3587 9.60835C14.4592 9.35544 14.7099 8.74957 14.7405 8.68681C14.7564 8.65579 14.7867 8.61518 14.8291 8.59192C14.8867 8.60484 14.9462 8.61555 15.006 8.62552Z" fill="white"/>
<path d="M14.52 8.51905C14.5496 8.57074 14.5374 8.63277 14.5315 8.67375C14.5197 8.75276 14.2405 9.34608 14.1423 9.58606C14.1091 9.66471 14.0537 9.7847 13.9924 9.84857C13.9378 9.90506 13.803 9.94198 13.72 9.89952C13.6505 9.86371 13.5907 9.68021 13.6029 9.61708C13.6188 9.53437 13.6779 9.46053 13.7233 9.38152C13.8621 9.14745 14.2044 8.58846 14.2446 8.53087C14.2612 8.50724 14.2889 8.47881 14.3236 8.46146C14.3882 8.48213 14.4543 8.50096 14.52 8.51905Z" fill="white"/>
<path d="M11.8938 4.35217C11.9621 4.33518 12.098 4.28313 12.1231 4.34995C11.9776 4.60508 11.8768 4.87755 11.8266 5.16221C11.7738 5.19285 11.6409 5.11569 11.5047 5.05846C11.3204 4.97982 11.5951 4.82365 11.6908 4.68261C11.7425 4.60618 11.8281 4.4046 11.8938 4.35217Z" fill="white"/>
<path d="M11.8096 5.89535C11.8469 6.16598 11.9278 6.42553 12.0489 6.67068C12.0219 6.72053 11.7505 6.82354 11.604 6.69985C11.5213 6.59758 11.7158 5.88353 11.8096 5.89535Z" fill="white"/>
<path d="M30.5691 1.26743C30.6359 1.26743 30.695 1.26743 30.7474 1.29438C30.8198 1.3313 31.0335 1.54322 31.0313 1.62851C31.0299 1.67392 30.7629 1.75736 30.6429 1.80278C30.5536 1.84302 30.3524 1.92351 30.318 1.93458C30.2955 1.94271 30.1356 1.94418 30.109 1.94345C30.0729 1.94455 29.8237 1.94714 29.7192 1.94714C29.6771 1.94861 28.918 1.96855 28.6599 1.96855C28.373 1.96855 28.0913 1.9752 27.8056 1.9752C27.7417 1.9752 27.4153 1.98037 27.3961 1.98258H26.1715H25.906L25.8015 1.98664L25.7361 1.9907H24.9475C24.8877 1.9907 24.489 2.00252 24.311 2.01286C24.0655 2.03316 23.7037 2.06381 23.6878 2.06491C23.6398 2.06491 23.5438 2.08301 23.5294 2.02947C23.5143 1.97224 23.6328 1.94529 23.6701 1.93828C24.1091 1.85188 24.5495 1.74666 25.0465 1.68463C25.8731 1.58088 26.2711 1.56833 26.4059 1.52846C26.4842 1.50446 26.4683 1.40256 26.4059 1.3948C25.5194 1.29032 23.5368 1.67909 23.2521 1.73817C22.7234 1.85225 22.3317 1.88068 22.2014 1.88179H20.9686C20.2829 1.88068 19.9861 1.956 19.9392 1.96523C19.8067 1.9955 19.6815 2.03722 19.5637 2.09814C19.3141 2.22626 19.1554 2.38428 19.2606 2.68408C19.2979 2.74869 19.3333 2.83767 19.3695 2.90228C19.4544 3.07101 19.5637 3.27887 19.652 3.44391C19.7158 3.56131 19.7554 3.70863 19.7554 3.85594L19.7199 4.03907C19.7177 4.07045 19.6409 4.20558 19.6007 4.18158C19.5966 4.17863 19.5896 4.17088 19.5804 4.16054C19.532 4.08965 19.4807 4.01987 19.426 3.95231C19.4083 3.92757 19.3943 3.90763 19.388 3.90025C19.3241 3.81681 19.5087 3.70272 19.4917 3.59676C19.457 3.38668 19.1484 2.98461 18.9165 2.79299C18.7807 2.68075 18.6547 2.53196 18.534 2.39462C18.4842 2.32631 18.4284 2.26982 18.3778 2.20226C18.3335 2.14245 18.3129 2.10516 18.2948 2.03206C18.2597 1.88622 18.3472 1.79761 18.4413 1.72266C18.4975 1.67798 18.6038 1.61153 18.6906 1.57608C18.9246 1.47972 19.4736 1.38225 19.7985 1.33979C19.9064 1.32908 20.17 1.2977 20.3671 1.29364C20.5872 1.29364 20.7969 1.30029 21.0029 1.31616C21.4046 1.34754 21.7971 1.42249 22.2146 1.4284C22.8224 1.438 23.4072 1.39997 23.9968 1.37154C24.2597 1.35899 24.537 1.34164 24.8183 1.31801C25.2499 1.28109 26.5658 1.2977 26.76 1.30988C26.8556 1.31542 27.7269 1.35124 28.1674 1.3852C28.2652 1.39259 28.3446 1.40182 28.4077 1.41289C28.6012 1.40883 28.7932 1.41732 28.9826 1.40588C29.3367 1.38336 29.6918 1.34422 30.0415 1.31616L30.5691 1.26743Z" fill="white"/>
<path d="M6.19665 1.23299C6.75859 1.23299 7.25554 1.28025 7.79828 1.30647C8.07701 1.31902 8.34692 1.32493 8.62566 1.33785C8.90664 1.35114 9.19497 1.37255 9.48074 1.37255C9.9932 1.37255 10.4761 1.33933 10.9749 1.31607L11.3585 1.31496C11.5978 1.3109 11.8621 1.30093 12.104 1.32419C12.2546 1.33822 12.4067 1.33933 12.5526 1.35631C12.7508 1.3792 13.0935 1.41981 13.2374 1.48479C13.3704 1.54387 13.4671 1.63358 13.518 1.69007C13.6159 1.79788 13.7617 1.96624 13.6801 2.09325C13.6465 2.15712 13.5531 2.25016 13.5044 2.30628C13.4394 2.37901 12.9317 2.80065 12.8055 2.98009C12.691 3.13995 12.6578 3.26031 12.5873 3.38584C12.4909 3.54719 12.5969 3.66718 12.5614 3.7617C12.4566 3.8732 12.3602 3.9895 12.2742 4.11134C12.2554 4.12168 12.2387 4.125 12.2254 4.1154C12.1383 4.05448 12.1553 3.92415 12.1763 3.75505C12.1856 3.62768 12.2878 3.36443 12.3251 3.2965C12.3967 3.16137 12.6279 2.87781 12.6463 2.82649C12.7944 2.41151 12.382 2.15491 12.0685 2.05264C11.9644 2.01867 11.8603 1.9799 11.751 1.95996C11.3471 1.88686 10.9144 1.89498 10.4787 1.88132C10.1793 1.87209 9.86363 1.86028 9.55866 1.86028L8.90035 1.8588C8.69028 1.84219 8.47762 1.83 8.28155 1.78348C7.94558 1.70373 7.66388 1.63063 7.32791 1.55642C7.04214 1.49365 6.73348 1.43901 6.42813 1.41981C6.22028 1.40689 5.85846 1.384 5.64284 1.384C5.48408 1.384 4.30814 1.37182 4.13426 1.42018C4.07406 1.432 4.08366 1.54534 4.12427 1.55531C4.35023 1.61992 5.18907 1.63838 5.7451 1.61919C6.07186 1.63506 6.43699 1.67567 6.74603 1.71998C7.14587 1.77684 7.51508 1.84957 7.88576 1.96698L8.28155 2.07036C8.34692 2.09066 8.43219 2.13423 8.34284 2.19552C8.09807 2.19552 7.87173 2.14789 7.62363 2.1442C6.99893 2.1442 6.0977 2.12537 5.47114 2.12537C5.40581 2.12131 2.36832 2.08882 2.00576 2.06814C1.60223 2.04488 1.23854 1.85142 1.10268 1.78459C1.05099 1.7617 0.898874 1.64355 0.908118 1.62029C0.937271 1.54534 1.10268 1.2629 1.23228 1.25256C1.50697 1.27841 1.84552 1.31496 2.12872 1.32751C2.12872 1.32751 4.1575 1.30499 4.21731 1.30056C4.52302 1.27656 5.24926 1.24518 5.56309 1.23964C5.73697 1.23669 6.03125 1.22561 6.19665 1.23299Z" fill="white"/>
<path d="M20.04 6.03574C20.1337 6.02393 20.329 6.83286 20.205 6.89415C20.0794 6.96098 19.7808 6.80776 19.7461 6.76714C19.7394 6.76013 19.7357 6.75164 19.735 6.74278C19.8491 6.5279 19.9321 6.30194 19.9805 6.06676C19.9967 6.05014 20.0152 6.04091 20.04 6.03574Z" fill="white"/>
<path d="M15.9806 1.29565C14.9645 1.29565 13.875 1.5829 13.8344 1.64492C13.7402 1.79298 13.9425 1.78707 13.9374 1.99272C13.9311 2.24452 13.7354 2.41325 13.6675 2.48598C13.4087 2.76067 13.0786 2.9006 12.8504 3.20741C12.8331 3.2303 12.8161 3.33368 12.8394 3.36543C12.8995 3.44592 13.0409 3.35694 13.0749 3.32999C13.5549 2.95451 14.0053 2.80387 14.5495 2.63477C14.6847 2.59231 15.3703 2.44906 16.2549 2.48709C17.0369 2.52069 17.7579 2.72523 18.3856 3.0937C18.6363 3.24064 18.86 3.4234 19.0978 3.62093C19.1842 3.69366 19.2518 3.58733 19.2547 3.54782C19.258 3.50204 19.2207 3.43743 19.1971 3.39903C19.0166 3.09739 18.6182 2.82491 18.342 2.50075C18.2054 2.34014 18.1371 2.28218 18.0858 2.19025C17.9171 1.90485 18.1751 1.8886 18.1427 1.7579C18.1176 1.65379 17.1166 1.29565 15.9806 1.29565Z" fill="white"/>
</g>
<defs>
<clipPath id="clip0_601_92">
<rect width="32" height="10.6562" fill="white" transform="translate(0 0.429688)"/>
</clipPath>
</defs>
</svg>
