<svg width="32" height="17" viewBox="0 0 32 17" fill="none" xmlns="http://www.w3.org/2000/svg">
<g clip-path="url(#clip0_601_153)">
<path fill-rule="evenodd" clip-rule="evenodd" d="M0 8.75266C0 4.4076 7.16344 0.885223 16 0.885223C24.8366 0.885223 32 4.4076 32 8.75266C32 13.0977 24.8366 16.6201 16 16.6201C7.16344 16.6201 0 13.0977 0 8.75266Z" fill="#DB1C30"/>
<path fill-rule="evenodd" clip-rule="evenodd" d="M17.0917 15.3534C16.8557 15.3534 16.6644 15.5446 16.6644 15.7806C16.6644 16.0166 16.8557 16.2078 17.0917 16.2078C17.3278 16.2078 17.5191 16.0166 17.5191 15.7806C17.5191 15.5446 17.3278 15.3534 17.0917 15.3534ZM16.0011 15.3534C15.7652 15.3534 15.5739 15.5446 15.5739 15.7806C15.5739 16.0166 15.7652 16.2078 16.0011 16.2078C16.2371 16.2078 16.4284 16.0166 16.4284 15.7806C16.4284 15.5446 16.2371 15.3534 16.0011 15.3534ZM14.895 15.3534C14.6591 15.3534 14.4678 15.5446 14.4678 15.7806C14.4678 16.0166 14.6591 16.2078 14.895 16.2078C15.131 16.2078 15.3224 16.0166 15.3224 15.7806C15.3224 15.5446 15.131 15.3534 14.895 15.3534ZM18.1824 15.2922C17.9464 15.2922 17.7552 15.4835 17.7552 15.7195C17.7552 15.9554 17.9464 16.1467 18.1824 16.1467C18.4183 16.1467 18.6096 15.9554 18.6096 15.7195C18.6096 15.4835 18.4183 15.2922 18.1824 15.2922ZM13.8045 15.2922C13.5685 15.2922 13.3772 15.4835 13.3772 15.7195C13.3772 15.9554 13.5685 16.1467 13.8045 16.1467C14.0404 16.1467 14.2317 15.9554 14.2317 15.7195C14.2317 15.4835 14.0404 15.2922 13.8045 15.2922ZM19.294 15.1835C19.0581 15.1835 18.8668 15.3748 18.8668 15.6108C18.8668 15.8467 19.0581 16.038 19.294 16.038C19.53 16.038 19.7213 15.8467 19.7213 15.6108C19.7213 15.3748 19.53 15.1835 19.294 15.1835ZM12.6928 15.1835C12.4569 15.1835 12.2656 15.3748 12.2656 15.6108C12.2656 15.8467 12.4569 16.038 12.6928 16.038C12.9288 16.038 13.1201 15.8467 13.1201 15.6108C13.1201 15.3748 12.9288 15.1835 12.6928 15.1835ZM20.4461 15.0551C20.2102 15.0551 20.0189 15.2464 20.0189 15.4823C20.0189 15.7183 20.2102 15.9096 20.4461 15.9096C20.6821 15.9096 20.8734 15.7183 20.8734 15.4823C20.8734 15.2464 20.6821 15.0551 20.4461 15.0551ZM11.5408 15.0551C11.3048 15.0551 11.1135 15.2464 11.1135 15.4823C11.1135 15.7183 11.3048 15.9096 11.5408 15.9096C11.7767 15.9096 11.968 15.7183 11.968 15.4823C11.968 15.2464 11.7767 15.0551 11.5408 15.0551ZM21.5982 14.865C21.3622 14.865 21.171 15.0563 21.171 15.2922C21.171 15.5282 21.3622 15.7195 21.5982 15.7195C21.8342 15.7195 22.0254 15.5282 22.0254 15.2922C22.0254 15.0563 21.8342 14.865 21.5982 14.865ZM10.3887 14.865C10.1527 14.865 9.96144 15.0563 9.96144 15.2922C9.96144 15.5282 10.1527 15.7195 10.3887 15.7195C10.6247 15.7195 10.816 15.5282 10.816 15.2922C10.816 15.0563 10.6247 14.865 10.3887 14.865ZM22.7474 14.613C22.5113 14.613 22.32 14.8043 22.32 15.0402C22.32 15.2762 22.5113 15.4675 22.7474 15.4675C22.9833 15.4675 23.1746 15.2762 23.1746 15.0402C23.1746 14.8043 22.9833 14.613 22.7474 14.613ZM9.23955 14.613C9.00358 14.613 8.81229 14.8043 8.81229 15.0402C8.81229 15.2762 9.00358 15.4675 9.23955 15.4675C9.4755 15.4675 9.66679 15.2762 9.66679 15.0402C9.66679 14.8043 9.4755 14.613 9.23955 14.613ZM23.9314 14.3291C23.6953 14.3291 23.504 14.5203 23.504 14.7563C23.504 14.9923 23.6953 15.1835 23.9314 15.1835C24.1673 15.1835 24.3586 14.9923 24.3586 14.7563C24.3586 14.5203 24.1673 14.3291 23.9314 14.3291ZM8.05552 14.3291C7.81955 14.3291 7.62827 14.5203 7.62827 14.7563C7.62827 14.9923 7.81955 15.1835 8.05552 15.1835C8.29148 15.1835 8.48277 14.9923 8.48277 14.7563C8.48277 14.5203 8.29148 14.3291 8.05552 14.3291ZM25.0428 13.9734C24.8068 13.9734 24.6155 14.1647 24.6155 14.4006C24.6155 14.6366 24.8068 14.8279 25.0428 14.8279C25.2787 14.8279 25.47 14.6366 25.47 14.4006C25.47 14.1647 25.2787 13.9734 25.0428 13.9734ZM6.94411 13.9734C6.70814 13.9734 6.51685 14.1647 6.51685 14.4006C6.51685 14.6366 6.70814 14.8279 6.94411 14.8279C7.18007 14.8279 7.37136 14.6366 7.37136 14.4006C7.37136 14.1647 7.18007 13.9734 6.94411 13.9734ZM26.196 13.5252C25.9601 13.5252 25.7688 13.7165 25.7688 13.9525C25.7688 14.1884 25.9601 14.3797 26.196 14.3797C26.432 14.3797 26.6233 14.1884 26.6233 13.9525C26.6233 13.7165 26.432 13.5252 26.196 13.5252ZM5.79076 13.5252C5.5548 13.5252 5.3635 13.7165 5.3635 13.9525C5.3635 14.1884 5.5548 14.3797 5.79076 14.3797C6.02673 14.3797 6.21801 14.1884 6.21801 13.9525C6.21801 13.7165 6.02673 13.5252 5.79076 13.5252ZM27.3146 12.9994C27.0786 12.9994 26.8873 13.1906 26.8873 13.4266C26.8873 13.6625 27.0786 13.8538 27.3146 13.8538C27.5507 13.8538 27.742 13.6625 27.742 13.4266C27.742 13.1906 27.5507 12.9994 27.3146 12.9994ZM4.67219 12.9994C4.43622 12.9994 4.24493 13.1906 4.24493 13.4266C4.24493 13.6625 4.43622 13.8538 4.67219 13.8538C4.90816 13.8538 5.09944 13.6625 5.09944 13.4266C5.09944 13.1906 4.90816 12.9994 4.67219 12.9994ZM28.4233 12.3513C28.1874 12.3513 27.9961 12.5425 27.9961 12.7785C27.9961 13.0145 28.1874 13.2057 28.4233 13.2057C28.6593 13.2057 28.8506 13.0145 28.8506 12.7785C28.8506 12.5425 28.6593 12.3513 28.4233 12.3513ZM3.56352 12.3513C3.32757 12.3513 3.13628 12.5425 3.13628 12.7785C3.13628 13.0145 3.32757 13.2057 3.56352 13.2057C3.79949 13.2057 3.99078 13.0145 3.99078 12.7785C3.99078 12.5425 3.79949 12.3513 3.56352 12.3513ZM29.478 11.56C29.242 11.56 29.0507 11.7512 29.0507 11.9872C29.0507 12.2232 29.242 12.4145 29.478 12.4145C29.7139 12.4145 29.9052 12.2232 29.9052 11.9872C29.9052 11.7512 29.7139 11.56 29.478 11.56ZM2.50883 11.56C2.27288 11.56 2.08158 11.7512 2.08158 11.9872C2.08158 12.2232 2.27288 12.4145 2.50883 12.4145C2.74481 12.4145 2.93609 12.2232 2.93609 11.9872C2.93609 11.7512 2.74481 11.56 2.50883 11.56ZM30.3739 10.5712C30.138 10.5712 29.9467 10.7625 29.9467 10.9985C29.9467 11.2344 30.138 11.4257 30.3739 11.4257C30.6099 11.4257 30.8012 11.2344 30.8012 10.9985C30.8012 10.7625 30.6099 10.5712 30.3739 10.5712ZM1.61289 10.5712C1.37693 10.5712 1.18564 10.7625 1.18564 10.9985C1.18564 11.2344 1.37693 11.4257 1.61289 11.4257C1.84886 11.4257 2.04014 11.2344 2.04014 10.9985C2.04014 10.7625 1.84886 10.5712 1.61289 10.5712ZM30.9329 9.50911C30.697 9.50911 30.5057 9.70038 30.5057 9.93634C30.5057 10.1723 30.697 10.3636 30.9329 10.3636C31.169 10.3636 31.3603 10.1723 31.3603 9.93634C31.3603 9.70038 31.169 9.50911 30.9329 9.50911ZM1.05385 9.50911C0.817891 9.50911 0.626602 9.70038 0.626602 9.93634C0.626602 10.1723 0.817891 10.3636 1.05385 10.3636C1.28982 10.3636 1.48111 10.1723 1.48111 9.93634C1.48111 9.70038 1.28982 9.50911 1.05385 9.50911ZM31.1656 8.32542C30.9296 8.32542 30.7384 8.5167 30.7384 8.75266C30.7384 8.98861 30.9296 9.17988 31.1656 9.17988C31.4016 9.17988 31.5928 8.98861 31.5928 8.75266C31.5928 8.5167 31.4016 8.32542 31.1656 8.32542ZM0.821311 8.32542C0.585346 8.32542 0.394058 8.5167 0.394058 8.75266C0.394058 8.98861 0.585346 9.17988 0.821311 9.17988C1.05728 9.17988 1.24856 8.98861 1.24856 8.75266C1.24856 8.5167 1.05728 8.32542 0.821311 8.32542ZM30.9329 7.14173C30.697 7.14173 30.5057 7.33302 30.5057 7.56896C30.5057 7.80492 30.697 7.9962 30.9329 7.9962C31.169 7.9962 31.3603 7.80492 31.3603 7.56896C31.3603 7.33302 31.169 7.14173 30.9329 7.14173ZM1.05384 7.14173C0.81788 7.14173 0.626592 7.33302 0.626592 7.56896C0.626592 7.80492 0.81788 7.9962 1.05384 7.9962C1.28981 7.9962 1.4811 7.80492 1.4811 7.56896C1.4811 7.33302 1.28981 7.14173 1.05384 7.14173ZM30.3739 6.0796C30.138 6.0796 29.9467 6.27087 29.9467 6.50682C29.9467 6.74278 30.138 6.93406 30.3739 6.93406C30.6099 6.93406 30.8012 6.74278 30.8012 6.50682C30.8012 6.27087 30.6099 6.0796 30.3739 6.0796ZM1.6129 6.0796C1.37694 6.0796 1.18565 6.27087 1.18565 6.50682C1.18565 6.74278 1.37694 6.93406 1.6129 6.93406C1.84887 6.93406 2.04016 6.74278 2.04016 6.50682C2.04016 6.27087 1.84887 6.0796 1.6129 6.0796ZM29.478 5.09088C29.242 5.09088 29.0507 5.28217 29.0507 5.51811C29.0507 5.75407 29.242 5.94534 29.478 5.94534C29.7139 5.94534 29.9052 5.75407 29.9052 5.51811C29.9052 5.28217 29.7139 5.09088 29.478 5.09088ZM2.50885 5.09088C2.27289 5.09088 2.08159 5.28217 2.08159 5.51811C2.08159 5.75407 2.27289 5.94534 2.50885 5.94534C2.74482 5.94534 2.9361 5.75407 2.9361 5.51811C2.9361 5.28217 2.74482 5.09088 2.50885 5.09088ZM28.4233 4.29958C28.1874 4.29958 27.9961 4.49086 27.9961 4.72682C27.9961 4.96278 28.1874 5.15405 28.4233 5.15405C28.6593 5.15405 28.8506 4.96278 28.8506 4.72682C28.8506 4.49086 28.6593 4.29958 28.4233 4.29958ZM3.56354 4.29958C3.32758 4.29958 3.13628 4.49086 3.13628 4.72682C3.13628 4.96276 3.32758 5.15405 3.56354 5.15405C3.79951 5.15405 3.99079 4.96276 3.99079 4.72682C3.99079 4.49086 3.79951 4.29958 3.56354 4.29958ZM27.3146 3.65144C27.0786 3.65144 26.8873 3.84272 26.8873 4.07868C26.8873 4.31464 27.0786 4.50591 27.3146 4.50591C27.5507 4.50591 27.742 4.31464 27.742 4.07868C27.742 3.84272 27.5507 3.65144 27.3146 3.65144ZM4.6722 3.65144C4.43623 3.65144 4.24495 3.84272 4.24495 4.07868C4.24495 4.31464 4.43623 4.50591 4.6722 4.50591C4.90816 4.50591 5.09946 4.31464 5.09946 4.07868C5.09946 3.84272 4.90816 3.65144 4.6722 3.65144ZM26.196 3.12567C25.9601 3.12567 25.7688 3.31695 25.7688 3.55289C25.7688 3.78887 25.9601 3.98014 26.196 3.98014C26.432 3.98014 26.6233 3.78887 26.6233 3.55289C26.6233 3.31695 26.432 3.12567 26.196 3.12567ZM5.79077 3.12567C5.55481 3.12567 5.36352 3.31695 5.36352 3.55289C5.36352 3.78887 5.55481 3.98014 5.79077 3.98014C6.02674 3.98014 6.21802 3.78887 6.21802 3.55289C6.21802 3.31695 6.02674 3.12567 5.79077 3.12567ZM25.0428 2.67747C24.8068 2.67747 24.6155 2.86874 24.6155 3.1047C24.6155 3.34065 24.8068 3.53194 25.0428 3.53194C25.2787 3.53194 25.47 3.34065 25.47 3.1047C25.47 2.86874 25.2787 2.67747 25.0428 2.67747ZM6.94412 2.67747C6.70817 2.67747 6.51687 2.86874 6.51687 3.1047C6.51687 3.34065 6.70817 3.53194 6.94412 3.53194C7.18009 3.53194 7.37138 3.34065 7.37138 3.1047C7.37138 2.86874 7.18009 2.67747 6.94412 2.67747ZM15.9934 2.48742C8.04543 2.48742 1.60231 5.29245 1.60231 8.75266C1.60231 12.2129 8.04543 15.0178 15.9934 15.0178C23.9415 15.0178 30.3845 12.2129 30.3845 8.75266C30.3845 5.29245 23.9415 2.48742 15.9934 2.48742ZM23.9314 2.32181C23.6953 2.32181 23.504 2.51309 23.504 2.74905C23.504 2.98499 23.6953 3.17628 23.9314 3.17628C24.1673 3.17628 24.3586 2.98499 24.3586 2.74905C24.3586 2.51309 24.1673 2.32181 23.9314 2.32181ZM8.05553 2.32181C7.81958 2.32181 7.62828 2.51308 7.62828 2.74904C7.62828 2.98499 7.81958 3.17628 8.05553 3.17628C8.29149 3.17628 8.48279 2.98499 8.48279 2.74904C8.48279 2.51308 8.29149 2.32181 8.05553 2.32181ZM22.7474 2.03779C22.5113 2.03779 22.32 2.22906 22.32 2.46503C22.32 2.70097 22.5113 2.89226 22.7474 2.89226C22.9833 2.89226 23.1746 2.70097 23.1746 2.46503C23.1746 2.22906 22.9833 2.03779 22.7474 2.03779ZM9.23956 2.03779C9.00359 2.03779 8.81229 2.22906 8.81229 2.46501C8.81229 2.70097 9.00359 2.89226 9.23956 2.89226C9.47552 2.89226 9.66681 2.70097 9.66681 2.46501C9.66681 2.22906 9.47552 2.03779 9.23956 2.03779ZM21.5982 1.78583C21.3622 1.78583 21.171 1.9771 21.171 2.21306C21.171 2.44901 21.3622 2.6403 21.5982 2.6403C21.8342 2.6403 22.0254 2.44901 22.0254 2.21306C22.0254 1.9771 21.8342 1.78583 21.5982 1.78583ZM10.3887 1.78582C10.1527 1.78582 9.96146 1.9771 9.96146 2.21306C9.96146 2.44901 10.1527 2.6403 10.3887 2.6403C10.6247 2.6403 10.816 2.44901 10.816 2.21306C10.816 1.9771 10.6247 1.78582 10.3887 1.78582ZM20.4461 1.59572C20.2102 1.59572 20.0189 1.78701 20.0189 2.02295C20.0189 2.25891 20.2102 2.45019 20.4461 2.45019C20.6821 2.45019 20.8734 2.25891 20.8734 2.02295C20.8734 1.78701 20.6821 1.59572 20.4461 1.59572ZM11.5408 1.59572C11.3048 1.59572 11.1135 1.787 11.1135 2.02295C11.1135 2.25891 11.3048 2.45019 11.5408 2.45019C11.7767 2.45019 11.968 2.25891 11.968 2.02295C11.968 1.787 11.7767 1.59572 11.5408 1.59572ZM19.294 1.46734C19.0581 1.46734 18.8668 1.65862 18.8668 1.89457C18.8668 2.13053 19.0581 2.32181 19.294 2.32181C19.53 2.32181 19.7213 2.13053 19.7213 1.89457C19.7213 1.65862 19.53 1.46734 19.294 1.46734ZM12.6928 1.46734C12.4569 1.46734 12.2656 1.65861 12.2656 1.89457C12.2656 2.13053 12.4569 2.32181 12.6928 2.32181C12.9288 2.32181 13.1201 2.13053 13.1201 1.89457C13.1201 1.65861 12.9288 1.46734 12.6928 1.46734ZM18.1824 1.35859C17.9464 1.35859 17.7552 1.54987 17.7552 1.78583C17.7552 2.02179 17.9464 2.21306 18.1824 2.21306C18.4183 2.21306 18.6096 2.02179 18.6096 1.78583C18.6096 1.54987 18.4183 1.35859 18.1824 1.35859ZM13.8045 1.35859C13.5685 1.35859 13.3772 1.54987 13.3772 1.78582C13.3772 2.02177 13.5685 2.21306 13.8045 2.21306C14.0404 2.21306 14.2317 2.02177 14.2317 1.78582C14.2317 1.54987 14.0404 1.35859 13.8045 1.35859ZM17.0917 1.29753C16.8557 1.29753 16.6644 1.48882 16.6644 1.72477C16.6644 1.96073 16.8557 2.15201 17.0917 2.15201C17.3278 2.15201 17.5191 1.96073 17.5191 1.72477C17.5191 1.48882 17.3278 1.29753 17.0917 1.29753ZM16.0011 1.29753C15.7652 1.29753 15.5739 1.48882 15.5739 1.72477C15.5739 1.96073 15.7652 2.15201 16.0011 2.15201C16.2371 2.15201 16.4284 1.96073 16.4284 1.72477C16.4284 1.48882 16.2371 1.29753 16.0011 1.29753ZM14.895 1.29753C14.6591 1.29753 14.4678 1.48882 14.4678 1.72477C14.4678 1.96073 14.6591 2.152 14.895 2.152C15.1311 2.152 15.3224 1.96073 15.3224 1.72477C15.3224 1.48882 15.1311 1.29753 14.895 1.29753ZM15.9934 0.964752C24.7824 0.964752 31.9073 4.45152 31.9073 8.75266C31.9073 13.0538 24.7824 16.5406 15.9934 16.5406C7.20446 16.5406 0.0795898 13.0538 0.0795898 8.75266C0.0795898 4.45152 7.20446 0.964752 15.9934 0.964752Z" fill="white"/>
<path fill-rule="evenodd" clip-rule="evenodd" d="M17.9956 8.98665L17.7419 9.8789H18.2658L17.9956 8.98665ZM17.21 6.54553H18.1208L18.6872 7.11223L20.043 11.9938H19.1535L18.5871 11.4271L18.5192 11.1864H17.4227L17.2278 11.9938H16.4206L15.8541 11.4271L17.21 6.54553Z" fill="black"/>
<path fill-rule="evenodd" clip-rule="evenodd" d="M12.9594 6.54553H14.7092C14.8799 6.55508 14.978 6.58274 15.1553 6.71606L15.7058 7.27901C15.7727 7.37994 15.814 7.59015 15.8409 7.76942L15.801 8.42108H14.9266L14.3626 7.8585L13.8103 7.85808C13.8055 8.77639 13.8008 9.69469 13.796 10.613H14.1342C14.2588 10.613 14.3598 10.5121 14.3598 10.3877V9.38396H14.0048V8.71831L15.3671 8.71832L15.8144 9.192C15.8144 9.88007 15.801 10.515 15.801 11.2031C15.801 11.5661 15.3338 11.9931 14.9705 11.9931H13.5262C13.3477 12.0021 13.1703 11.9108 13.0714 11.8201L12.4419 11.1844C12.3749 11.0835 12.2998 10.9105 12.3015 10.7693V7.20279C12.3015 6.8398 12.5961 6.54553 12.9594 6.54553Z" fill="black"/>
<path fill-rule="evenodd" clip-rule="evenodd" d="M22.8666 6.54553H26.1541L26.4192 6.91492V7.92143H25.5788C25.5803 9.27887 25.5821 10.6363 25.5837 11.9938H24.5783L24.0077 11.4271V7.92143H23.3339L22.8666 7.55203V6.54553Z" fill="black"/>
<path fill-rule="evenodd" clip-rule="evenodd" d="M8.08618 6.54553H9.13627L9.70245 7.11223L9.70222 10.6134H9.96046C10.0849 10.6134 10.1857 10.5125 10.1857 10.3881V8.17267V6.54553H11.1919L11.7581 7.11223V11.3364C11.7581 11.6995 11.4639 11.9938 11.101 11.9938H9.3095C9.12414 11.9852 9.00663 11.9145 8.86923 11.8107L8.22161 11.1735C8.15472 11.0726 8.10876 10.9387 8.08618 10.7697V10.1595V8.17267V6.54553Z" fill="black"/>
<path fill-rule="evenodd" clip-rule="evenodd" d="M26.6711 6.54553H27.6806L28.2486 7.11223V11.9938H27.2392L26.6711 11.4271V6.54553Z" fill="black"/>
<path fill-rule="evenodd" clip-rule="evenodd" d="M19.1549 6.54553H22.4424L22.7075 6.91492V7.92143H21.8671C21.8688 9.27887 21.8542 10.6363 21.856 11.9938H20.8671L20.296 11.4271V7.92143H19.6222L19.1549 7.55203V6.54553Z" fill="black"/>
<path fill-rule="evenodd" clip-rule="evenodd" d="M5.31986 9.8124V10.6134H5.65736C5.89096 10.6134 6.08033 10.4235 6.08033 10.1892V9.8124H5.31986ZM5.31986 7.92588V8.43209H5.58865C5.77189 8.43209 5.92045 8.28312 5.92045 8.09935V7.92588H5.31986ZM3.75146 6.54553L6.30599 6.54555C6.45999 6.5634 6.55169 6.59328 6.72346 6.69112C6.88756 6.80437 7.20903 7.14384 7.33659 7.31735C7.3995 7.41254 7.46348 7.48737 7.48885 7.7321V8.7857C7.48885 9.04247 7.3332 9.26276 7.11135 9.35687C7.42185 9.60452 7.64478 9.77524 7.64873 10.2975V11.1018C7.64873 11.5944 7.25052 11.9938 6.75931 11.9938H4.31622L3.75146 11.4271V6.54553Z" fill="black"/>
<path fill-rule="evenodd" clip-rule="evenodd" d="M8.08618 6.54553H9.13497L9.13472 10.3855C9.13472 10.5098 9.23545 10.6107 9.35971 10.6107H9.95815C10.0824 10.6107 10.1831 10.5098 10.1831 10.3855V8.17157V6.54553H11.1881V10.7669C11.1881 11.1296 10.8942 11.4237 10.5318 11.4237H8.7425C8.38003 11.4237 8.08618 11.1296 8.08618 10.7669V10.1571V8.17157V6.54553Z" fill="white"/>
<path fill-rule="evenodd" clip-rule="evenodd" d="M12.9587 6.54553H14.7066C15.0695 6.54553 15.3637 6.83963 15.3637 7.20242V7.85371H14.3574V7.58381C14.3574 7.45944 14.2566 7.35862 14.1322 7.35862H13.533C13.4085 7.35862 13.3076 7.45944 13.3076 7.58381V10.3855C13.3076 10.5099 13.4085 10.6107 13.533 10.6107H14.1322C14.2566 10.6107 14.3574 10.5099 14.3574 10.3855V9.38234H14.0028V8.71708H15.242H15.3637V10.7669C15.3637 11.1296 15.0695 11.4237 14.7066 11.4237H12.9587C12.5957 11.4237 12.3015 11.1296 12.3015 10.7669V7.20242C12.3015 6.83963 12.5957 6.54553 12.9587 6.54553Z" fill="white"/>
<path d="M27.6786 6.54553H26.6711V11.4237H27.6786V6.54553Z" fill="white"/>
<path fill-rule="evenodd" clip-rule="evenodd" d="M22.8666 6.54553H26.1541V7.55134H25.013V11.4237H24.0077V7.55134H22.8666V6.54553Z" fill="white"/>
<path fill-rule="evenodd" clip-rule="evenodd" d="M19.1549 6.54553H22.4424V7.55134H21.3013V11.4237H20.296V7.55134H19.1549V6.54553Z" fill="white"/>
<path fill-rule="evenodd" clip-rule="evenodd" d="M17.6636 8.15859L17.2115 9.76161H18.1156L17.6636 8.15859ZM17.2086 6.54553H18.1185L19.473 11.4237H18.5845L18.3569 10.617H16.9703L16.7427 11.4237H15.8541L17.2086 6.54553Z" fill="white"/>
<path fill-rule="evenodd" clip-rule="evenodd" d="M4.75353 9.24387V10.6107H5.65435C5.88759 10.6107 6.07666 10.4209 6.07666 10.1868V9.66777C6.07666 9.43366 5.88759 9.24387 5.65435 9.24387H4.75353ZM4.75353 7.35863V8.43081H5.58575C5.76871 8.43081 5.91703 8.28194 5.91703 8.09829V7.69116C5.91703 7.50751 5.76871 7.35863 5.58575 7.35863H4.75353ZM3.75146 6.54553C4.60163 6.54553 5.4518 6.54553 6.30196 6.54555C6.6428 6.54555 6.91909 6.82287 6.91909 7.16499V8.21788C6.91909 8.55999 6.6428 8.83734 6.30196 8.83734L6.36966 8.85543C6.77433 8.93855 7.07872 9.29794 7.07872 9.72868V10.5324C7.07872 11.0247 6.68114 11.4237 6.19069 11.4237C5.37762 11.4237 4.56454 11.4237 3.75146 11.4237V6.54553Z" fill="white"/>
<path fill-rule="evenodd" clip-rule="evenodd" d="M16.2495 4.63687V5.22908H16.8424C17.0062 5.22908 17.1391 5.09651 17.1391 4.93297C17.1391 4.76944 17.0062 4.63687 16.8424 4.63687H16.2495ZM16.9319 3.7504L16.2495 3.75187V4.1563H16.9319C17.0463 4.1563 17.1391 4.0561 17.1391 3.94945C17.1391 3.84279 17.0463 3.7504 16.9319 3.7504ZM14.1707 3.2713H17.1912C17.543 3.2713 17.8281 3.55591 17.8281 3.90699C17.8281 4.08253 17.7569 4.24146 17.6416 4.3565L17.534 4.42894L17.6191 4.48619C17.7482 4.61514 17.8408 4.73032 17.8281 4.99005C17.8281 5.38358 17.5085 5.71041 17.1142 5.71041L14.1707 5.70965V4.88122H14.6004V5.22908H15.6321V4.63686H15.2685V4.80952H14.8389V3.98109H15.2685V4.1563H15.6321V3.75187H14.6004V4.09974H14.1707V3.2713Z" fill="black"/>
</g>
<defs>
<clipPath id="clip0_601_153">
<rect width="32" height="15.7349" fill="white" transform="translate(0 0.885223)"/>
</clipPath>
</defs>
</svg>
