<svg width="33" height="22" viewBox="0 0 33 22" fill="none" xmlns="http://www.w3.org/2000/svg">
<g clip-path="url(#clip0_601_960)">
<path d="M7.19312 0.0971222C10.25 1.16038 13.2905 2.27271 16.3545 3.3145C16.4629 3.35642 16.5702 3.35642 16.6786 3.3145C19.7375 2.2676 22.776 1.16447 25.8277 0.0971222C24.7451 1.82287 23.6522 3.54249 22.546 5.2529C22.0348 5.0331 21.5083 4.85009 20.993 4.63949C21.2915 4.11399 21.6125 3.60076 21.9152 3.07731C20.9296 3.57316 19.9267 4.03425 18.9483 4.54441C19.6322 4.80511 20.3172 5.0607 20.9961 5.33572C21.3743 5.49009 21.7802 5.7876 21.8058 6.23131C21.8661 6.72409 21.5297 7.1269 21.2915 7.52153C19.8173 9.82798 18.3512 12.1406 16.8698 14.4429C16.878 13.8357 16.8085 13.2222 16.88 12.619C17.4628 10.7696 18.0384 8.91808 18.569 7.05329C18.6732 6.77623 18.3635 6.62798 18.1641 6.53086C17.6018 6.28243 17.0753 5.95322 16.4997 5.74057C15.9159 5.9931 15.3557 6.29878 14.7831 6.57584C14.6063 6.65763 14.3568 6.81917 14.458 7.05022C14.9846 8.91604 15.5663 10.7665 16.1449 12.617C16.2093 13.2212 16.148 13.8346 16.1511 14.4429C14.6932 12.161 13.2384 9.87604 11.7825 7.5931C11.529 7.1729 11.1609 6.74351 11.2243 6.21904C11.258 5.7784 11.6619 5.486 12.0401 5.33265C12.7129 5.05866 13.3958 4.80818 14.0736 4.54338C13.0973 4.03527 12.0984 3.57009 11.1139 3.07834C11.4155 3.60179 11.7365 4.11399 12.034 4.64051C11.5157 4.84703 10.9912 5.03821 10.4749 5.24984C9.3728 3.53738 8.28193 1.81674 7.19312 0.0971222Z" fill="black"/>
<path d="M13.6708 20.9779C13.681 19.9698 13.6636 18.9628 13.68 17.9548C15.3383 17.966 16.9976 17.9517 18.6558 17.9609C18.9799 17.9496 19.3582 18.1122 19.4226 18.4619C19.4625 18.8043 19.4533 19.1519 19.4287 19.4944C19.4083 19.8727 19.0116 20.1017 18.662 20.0772C17.3094 20.0803 15.9568 20.0751 14.6032 20.0782C14.6042 20.3808 14.6052 20.6824 14.6093 20.985C14.2965 20.9932 13.9836 20.9891 13.6708 20.9779ZM14.6001 18.6387C14.6042 18.8739 14.6062 19.109 14.6114 19.3452C15.8954 19.3329 17.1795 19.3564 18.4636 19.3339C18.6967 19.199 18.5383 18.8749 18.5822 18.6581C17.2562 18.6132 15.9271 18.6489 14.6001 18.6387Z" fill="black"/>
<path d="M0.679661 18.4199C0.812569 18.1194 1.15711 17.9517 1.47711 17.9588C3.10266 17.9548 4.72822 17.9609 6.3548 17.9568C6.35787 18.2349 6.35889 18.514 6.36094 18.7921C4.7681 18.8033 3.17321 18.7778 1.58139 18.8043C1.55174 18.8279 1.49346 18.8759 1.46381 18.9004C1.44541 19.3002 1.4679 19.702 1.45155 20.1027C1.5957 20.1385 1.7419 20.1753 1.89219 20.1692C3.38075 20.1651 4.86931 20.1712 6.35787 20.1651C6.35889 20.434 6.35992 20.7029 6.35992 20.9718C4.80081 21.0167 3.23966 20.9779 1.68056 20.9942C1.29819 21.0096 0.823815 20.936 0.672505 20.527C0.589693 20.1651 0.646946 19.7899 0.63161 19.4229C0.636722 19.0896 0.587649 18.7461 0.679661 18.4199Z" fill="#010101"/>
<path d="M7.13589 20.2438C7.13282 19.4811 7.13078 18.7185 7.13998 17.9568C7.47327 17.9578 7.80758 17.9558 8.1419 17.9619C8.15314 18.6929 8.12963 19.4249 8.15621 20.1559C9.39327 20.1804 10.6314 20.1661 11.8684 20.1641C11.9195 19.43 11.8807 18.6939 11.8919 17.9599C12.2293 17.9578 12.5667 17.9588 12.9041 17.9548C12.9112 18.7164 12.9133 19.4791 12.9061 20.2418C12.9102 20.6507 12.5227 20.9922 12.123 20.985C10.9616 21.0198 9.79915 20.9738 8.63672 20.9942C8.30138 20.9932 7.95992 21.0137 7.63174 20.9309C7.35365 20.8266 7.12055 20.5516 7.13589 20.2438Z" fill="#010101"/>
<path d="M20.215 17.9568C21.8436 17.9609 23.4722 17.9568 25.1009 17.9578C25.4526 17.9507 25.8666 18.1337 25.9545 18.5048C25.9791 18.8452 25.978 19.1888 25.9535 19.5292C25.9024 19.8155 25.6499 19.9657 25.4188 20.0987C25.6396 20.3788 25.8359 20.6763 26.0343 20.9728C25.6315 20.9472 25.0201 21.1885 24.7952 20.7325C24.6602 20.5178 24.5324 20.299 24.4016 20.0823C23.325 20.0731 22.2485 20.0782 21.1719 20.0792C21.174 20.3757 21.175 20.6722 21.178 20.9697C20.856 20.9983 20.5329 20.9994 20.2119 20.9779C20.217 19.9709 20.2078 18.9638 20.215 17.9568ZM21.1821 18.605C21.174 18.8503 21.174 19.0967 21.175 19.3421C22.4468 19.3329 23.7196 19.3595 24.9904 19.3298C25.0221 19.3073 25.0855 19.2613 25.1182 19.2378C25.0998 19.0313 25.2235 18.7195 24.9761 18.6173C23.7125 18.5907 22.4468 18.6162 21.1821 18.605Z" fill="#010101"/>
<path d="M26.752 18.7082C26.7388 18.2472 27.2203 17.9261 27.6476 17.9578C29.2609 17.9568 30.8742 17.9609 32.4875 17.9558C32.4926 18.9628 32.5049 19.9709 32.4752 20.9779C32.1951 20.9902 31.9119 21.0167 31.6328 20.982C31.506 20.7172 31.6134 20.3716 31.5827 20.0782C30.2864 20.0772 28.99 20.0782 27.6936 20.0772C27.6916 20.3798 27.6936 20.6835 27.6957 20.9871C27.3818 20.9953 27.069 20.9912 26.7561 20.9779C26.7653 20.2213 26.7367 19.4648 26.752 18.7082ZM27.6977 18.6479C27.6936 18.88 27.6947 19.1121 27.6988 19.3452C28.991 19.338 30.2843 19.3431 31.5776 19.3421C31.5797 19.108 31.5807 18.8749 31.5837 18.6408C30.2884 18.6408 28.9931 18.6275 27.6977 18.6479Z" fill="#010101"/>
</g>
<defs>
<clipPath id="clip0_601_960">
<rect width="32" height="21.0607" fill="white" transform="translate(0.561035)"/>
</clipPath>
</defs>
</svg>
