<svg width="33" height="33" viewBox="0 0 33 33" fill="none" xmlns="http://www.w3.org/2000/svg">
<g clip-path="url(#clip0_601_50334)">
<path d="M15.9663 0.17749C15.9663 0.17749 15.9529 0.36549 15.8956 0.480157C15.8529 0.580157 15.7383 0.650824 15.7529 0.722824C15.7663 0.794824 15.8383 0.88149 15.9529 0.938824C16.0676 0.996157 16.1089 1.03749 16.2236 1.06682C16.3236 1.09482 16.4689 1.16816 16.4969 1.08149C16.5409 0.996157 16.4836 0.880157 16.4116 0.780157C16.2969 0.59349 16.2383 0.550824 16.0809 0.29349C16.0516 0.236157 16.0236 0.17749 15.9663 0.17749ZM16.8703 0.17749C16.8409 0.192157 16.7983 0.40949 16.7263 0.594824C16.6409 0.80949 16.6969 0.90949 16.7396 0.994824C16.7969 1.08149 16.8703 1.13882 16.7263 1.22549C16.5836 1.31082 16.3956 1.28282 16.3956 1.28282C16.3956 1.28282 16.2383 1.25216 16.1089 1.18149C15.976 1.1228 15.8426 1.06502 15.7089 1.00816C15.7089 1.00816 15.4503 0.93749 15.2783 0.952157C15.1063 0.96549 15.0916 0.98149 14.9636 0.996157C14.8916 0.996157 14.8636 0.994824 14.7916 1.00949C14.7343 1.02282 14.6636 0.982824 14.6636 1.05349C14.6636 1.12416 14.8063 1.12549 14.9063 1.16816C15.0063 1.21082 15.2356 1.20949 15.1929 1.26682C15.1356 1.32416 14.9209 1.33882 14.9063 1.32416C14.8929 1.32416 14.7503 1.29616 14.6356 1.29616C14.4489 1.30949 14.4356 1.30949 14.1649 1.43882C14.1209 1.45216 14.1356 1.55349 14.2209 1.52416C14.3515 1.48689 14.4865 1.4676 14.6223 1.46682C14.7956 1.46682 14.8929 1.52549 15.0649 1.56949C15.2089 1.61216 15.2223 1.63882 15.4383 1.66816C15.4809 1.66816 15.5649 1.63882 15.5649 1.69616C15.5649 1.72549 15.5076 1.76949 15.5076 1.76949C15.5076 1.76949 15.3796 1.79616 15.3929 1.84016C15.4223 1.89749 15.5369 1.84016 15.5929 1.84016C15.6516 1.84016 15.7396 1.85616 15.7236 1.91216L15.6956 1.95482C15.5635 1.9893 15.4339 2.0325 15.3076 2.08416C14.9489 2.22816 14.8076 2.40016 14.4636 2.57216C14.1343 2.72949 13.6049 2.92816 13.6049 2.92816C13.6049 2.92816 13.4476 3.01482 13.2183 3.07082C12.9903 3.12949 12.9756 3.11616 12.8183 3.14416C12.6905 3.15152 12.5667 3.19096 12.4583 3.25882C12.3826 3.29808 12.3148 3.35097 12.2583 3.41482L12.0583 3.71749L11.9423 3.88682C11.9143 3.94416 11.8863 3.97216 11.8729 4.02949C11.8436 4.10149 11.8289 4.13082 11.8156 4.20282C11.7729 4.37349 11.8156 4.47482 11.8436 4.64682C11.8583 4.68949 11.8583 4.71882 11.8729 4.76149C11.8863 4.80416 11.9423 4.84816 11.9423 4.84816L11.9996 4.86149C11.9996 4.86149 12.2023 4.84816 12.3303 4.81882C12.4596 4.79082 12.6463 4.74549 12.6463 4.74549L12.8876 4.67616L13.0476 4.61882C13.0476 4.61882 13.1476 4.61882 13.1623 4.67616C13.1756 4.71882 13.1329 4.79082 13.1329 4.79082C13.1329 4.79082 13.0463 4.83082 12.9743 4.86016C12.9023 4.88949 12.7303 4.93216 12.7169 4.94682L12.5303 5.00416L12.3729 5.01882C12.3729 5.01882 12.3436 5.03349 12.3156 5.07616C12.2863 5.12016 12.2863 5.11882 12.2863 5.14682C12.3156 5.17616 12.3303 5.20416 12.3596 5.23349C12.4169 5.27616 12.4449 5.30416 12.5156 5.31882C12.6156 5.36149 12.6729 5.34816 12.7729 5.34816C12.8981 5.34848 13.0216 5.31876 13.1329 5.26149C13.2476 5.18949 13.2903 5.19082 13.4476 5.13349C13.4988 5.11838 13.5516 5.10899 13.6049 5.10549C13.8769 5.07616 14.0316 5.11882 14.3049 5.16282C14.5769 5.20549 14.7076 5.29216 14.9796 5.33482C15.2663 5.37749 15.4369 5.46282 15.7369 5.39216C15.8809 5.36282 15.9676 5.29082 16.0396 5.43349C16.1103 5.56282 16.0969 5.63349 16.0969 5.63349C16.0969 5.63349 16.0956 5.72149 15.9956 5.99349C15.8943 6.26549 15.5809 6.93882 15.5809 6.93882L15.3649 7.36816C15.3649 7.36816 15.1916 7.71082 14.7916 8.15482C14.6501 8.31234 14.5078 8.46923 14.3649 8.62549C14.3649 8.62549 14.1503 8.78416 13.9356 9.05616C13.7209 9.32816 13.7183 9.42816 13.5183 9.62949C13.3889 9.75749 13.3183 9.82949 13.1609 9.93082C13.0036 10.0308 12.8169 10.0015 12.3156 10.3442C11.8863 10.6455 11.6569 10.8908 11.6276 10.8762C11.5996 10.8628 11.4556 10.7455 11.3983 10.7162C11.3556 10.6895 10.5263 10.1308 10.5263 10.1308L10.1823 9.90149L10.0236 9.80016L9.99558 9.74282L9.91158 9.62816C9.91158 9.62816 9.78225 9.47082 9.62492 9.34282C9.4619 9.18516 9.25836 9.07578 9.03692 9.02682C8.79292 8.95616 8.63692 8.91216 8.39425 8.99882C8.25691 9.04385 8.13311 9.12272 8.03425 9.22816C7.89158 9.37082 7.86225 9.48549 7.74758 9.65749C7.63292 9.82949 7.51825 9.98816 7.46092 10.0735C7.40358 10.1602 7.28892 10.3895 7.28892 10.3895C7.28892 10.3895 7.00358 10.8468 6.84625 11.1468C6.65958 11.4762 6.58892 11.6788 6.41692 11.9935C6.14492 12.4948 5.75692 13.0095 5.65692 13.2375L5.54492 13.4962C5.54492 13.4962 5.51425 13.6228 5.50092 13.7095C5.48625 13.7948 5.48625 13.9388 5.47158 13.9962C5.45946 14.0534 5.43537 14.1075 5.40092 14.1548C5.38758 14.1682 5.22892 14.4975 5.17158 14.7122C5.11425 14.9255 4.98492 15.6002 5.14358 15.6855C5.30092 15.7722 6.45958 15.2722 6.61692 14.7842C6.71825 14.4695 6.30225 14.3108 6.41692 14.0242C6.45958 13.9242 6.48892 13.9108 6.55958 13.8108C6.67425 13.6242 6.63158 13.2388 6.84625 12.8815C7.00358 12.6242 7.31825 12.2922 7.74758 11.8055C8.01958 11.5055 8.27825 11.0188 8.27825 11.0188C8.27825 11.0188 8.33558 10.8468 8.45158 10.8762C8.57958 10.9042 8.69292 10.8895 8.69292 10.8895L8.75025 10.9335L8.86492 11.0482L9.03692 11.3055C9.03692 11.3055 9.32492 11.7188 9.42358 11.8348C9.52492 11.9495 9.62492 12.0348 9.76892 12.1495C9.92625 12.2922 9.98225 12.3642 10.1823 12.5228C10.4689 12.7508 10.3676 12.8375 9.99558 12.6362C9.84085 12.5576 9.67814 12.496 9.51025 12.4522C9.33958 12.4082 8.69425 12.2362 8.36492 12.1935C8.05025 12.1508 7.99158 12.1655 7.99158 12.1655C7.99158 12.1655 7.83425 12.1495 7.64892 12.2642C7.46225 12.3788 7.36225 12.4642 7.36225 12.4642C7.36225 12.4642 7.14758 12.7082 7.13292 12.7508C7.11958 12.7935 7.01825 12.9642 7.01825 12.9642C7.01825 12.9642 6.95958 13.0522 6.94625 13.1508C6.91692 13.2522 6.93292 13.3522 6.93292 13.3522L6.94625 13.5655L6.96092 13.7655C6.96092 13.7655 7.00492 14.2682 7.10492 14.7695C7.13292 14.9122 7.16225 15.1415 7.16225 15.1415L7.23158 15.6575C7.23158 15.6575 7.27558 16.2028 7.31825 16.3882C7.36092 16.5615 7.39025 16.5748 7.41958 16.6882C7.47692 16.9028 7.37692 17.0028 7.47692 17.2615C7.57692 17.5188 7.66358 17.4882 7.76358 17.6468C7.83558 17.7615 7.86225 17.7895 7.91958 17.9335C7.97692 18.0762 8.16358 18.5508 8.37825 18.8935C8.60758 19.2522 8.90892 19.6948 9.11025 19.6522C9.31025 19.6082 9.45292 19.2948 9.45292 19.2948C9.45292 19.2948 9.68225 18.6775 9.53958 18.0762C9.39558 17.4602 8.73692 17.7495 8.65158 17.3055C8.63825 17.2055 8.65158 17.0482 8.65158 17.0482C8.65158 17.0482 8.63558 16.8602 8.60758 16.8028C8.57825 16.7455 8.34892 16.3175 8.26358 15.9588C8.19158 15.6868 8.20625 14.8122 8.14892 14.5682C7.99158 13.9388 7.97692 13.9948 8.06225 13.8815C8.16358 13.7668 8.25025 13.7948 8.25025 13.7948L8.37825 13.8108L8.47958 13.8522L8.66492 13.9668C8.72225 14.0095 8.92225 14.1668 8.92225 14.1668L9.40892 14.4828C9.40892 14.4828 9.68225 14.6415 9.79692 14.6988C9.91158 14.7562 10.0103 14.8268 10.0103 14.8268L10.1383 14.9122L10.3543 15.0722L10.3956 15.1122L10.4249 15.1695C10.4249 15.1695 10.5263 15.4002 10.9556 15.6442C11.2996 15.8442 11.6009 15.7855 11.7289 15.9442C11.7583 15.9722 11.9996 16.3042 12.1156 16.5042C12.2583 16.7322 12.4303 17.0028 12.4876 17.0895C12.5449 17.1748 12.9036 17.6175 12.9036 17.6175L13.3756 18.1335L13.9929 18.7068L14.5503 19.1802L14.9063 19.4668C14.9063 19.4668 15.2222 19.7682 15.5809 20.0108C15.9249 20.2402 15.9383 20.2682 16.1676 20.4242C16.3383 20.5402 16.5676 20.6988 16.7969 20.8708C17.0263 21.0575 17.2849 21.3988 17.1849 21.5135C17.1129 21.5562 16.9836 21.3722 16.7396 21.1575C16.5805 21.0145 16.4136 20.8805 16.2396 20.7562C15.9823 20.5562 15.8516 20.4535 15.5649 20.2815C15.4222 20.1962 15.1649 20.0402 15.1516 20.0682C15.0516 20.3695 15.0636 20.6548 15.0783 21.0268C15.0916 21.2842 15.1356 21.5415 15.2209 21.8708C15.2929 22.1855 15.3649 22.3588 15.4796 22.6588C15.5943 22.9602 15.8103 23.4322 15.8103 23.4322L16.1383 24.0922L16.4396 24.5922L16.5969 24.8495L16.6543 24.9348C16.6543 24.9348 16.7249 25.1082 16.6543 25.2215C16.5836 25.3348 16.4956 25.5802 16.3676 25.5948C16.2383 25.6228 15.9383 25.6388 15.9383 25.6388L14.2343 25.6095L13.3463 25.5375C13.3463 25.5375 13.2476 25.4802 12.7329 25.4802C12.4316 25.4802 12.1876 25.6082 12.0156 25.6228C11.8729 25.6362 11.1703 25.5802 10.6983 25.7655C10.2543 25.9522 10.0529 25.9948 9.89558 26.2815C9.78092 26.4962 10.4556 26.8415 11.0129 26.9695C11.9156 27.1695 11.6569 26.7828 11.9996 26.5402C12.0436 26.5108 12.0583 26.4842 12.1023 26.4695C12.3303 26.3975 12.4583 26.5815 12.6889 26.5815C12.9449 26.5815 13.0889 26.4962 13.3463 26.4535C14.6489 26.2815 16.6823 26.8962 16.6823 26.8962C16.6823 26.8962 17.1849 27.0535 17.4143 27.0108C17.6863 26.9535 17.6276 26.8535 17.7129 26.6962C17.7849 26.5668 17.7569 26.5402 17.7703 26.3962C17.7703 26.3108 17.7569 26.2682 17.7423 26.1828C17.6849 25.9388 17.5289 25.5948 17.5289 25.5948C17.5289 25.5948 17.4129 25.3375 17.3689 25.2082C17.3129 25.0228 17.2556 24.9068 17.2263 24.7068C17.1409 24.1762 17.1556 24.2202 17.1556 23.9202C17.1556 23.3762 17.2129 23.0748 17.3556 22.5455C17.5716 21.7722 17.9729 21.4428 18.2729 20.6988C18.3596 20.4988 18.3583 20.2122 18.4596 20.1828C18.5729 20.1695 18.5596 20.5415 18.5023 20.7562C18.3156 21.5002 17.8583 21.8148 17.6436 22.5735C17.4863 23.1602 17.3996 23.5028 17.4436 24.1042C17.4569 24.4335 17.5863 24.9508 17.5863 24.9508C17.5863 24.9508 17.7583 25.5228 17.8436 25.7375C17.9303 25.9522 18.1009 26.3108 18.1009 26.3108L18.4876 26.9975L18.6876 27.3255C18.6876 27.3255 18.8289 27.4548 18.7583 27.6695C18.6863 27.8842 18.5449 28.0162 18.3716 28.2015C17.8863 28.7748 16.7556 29.6175 16.4689 29.8175C16.0689 30.1188 16.0809 30.2055 16.0516 30.2922C15.8943 30.7508 15.4356 30.7642 14.9356 31.3082C14.8209 31.4228 14.5209 31.7362 14.5783 32.0082C14.6063 32.1082 15.8383 32.3242 16.5543 32.0242C17.1143 31.7802 16.6263 31.5068 16.7836 31.2348C16.8983 31.0348 17.1836 31.0348 17.3129 30.8615C17.5263 30.5762 17.3836 30.5908 17.5703 30.3628C18.1863 29.6175 18.5876 29.1895 19.6903 28.5162C19.7903 28.4588 19.9769 28.3735 19.9769 28.3735C19.9769 28.3735 20.1329 28.3002 20.1903 28.2135C20.2623 28.0988 20.2476 28.0002 20.2476 27.8708C20.2476 27.7842 20.2343 27.7428 20.2343 27.6575C20.2343 27.5562 20.2476 27.4988 20.2183 27.3988C20.1903 27.2415 20.0916 27.1122 20.0343 27.0255C19.9229 26.8888 19.8485 26.7258 19.8183 26.5522C19.7402 26.2884 19.7557 26.0058 19.8623 25.7522C19.9769 25.4522 20.2343 25.2095 20.2343 25.2095L20.8769 24.7788C20.8769 24.7788 21.4369 24.3775 21.6103 24.2188C21.7956 24.0615 22.1529 23.7322 22.4103 23.3602C22.7116 22.9455 22.8689 22.6868 22.9969 22.1868C23.0396 22.0002 23.0836 21.7148 23.0836 21.7148C23.0836 21.7148 23.0836 21.5148 23.1982 21.5015C23.3116 21.4868 23.3409 21.5282 23.3409 21.5282C23.3409 21.5282 23.4396 21.5842 23.4689 21.8708C23.4823 22.1575 23.3983 22.4882 23.3983 22.4882C23.3983 22.4882 23.3116 22.8162 23.2836 23.0162C23.2703 23.1455 23.2676 23.2162 23.2676 23.3602C23.2676 23.6042 23.3689 23.8055 23.3689 23.8055C23.3689 23.8055 23.4263 23.8482 23.4263 23.7482C23.4339 23.5931 23.4585 23.4393 23.4996 23.2895C23.5423 23.1468 23.5703 23.1735 23.6556 22.9295C23.7703 22.6148 23.6689 22.6455 23.7263 22.4588C23.7556 22.3735 23.8276 22.2868 23.9129 22.2868C23.9996 22.2868 24.0129 22.4015 24.0129 22.4015C24.0129 22.4015 24.0996 22.7748 24.0289 23.1175C23.9569 23.4615 23.6982 23.9335 23.6982 23.9335L23.4996 24.2762C23.4996 24.2762 23.3569 24.5202 23.2996 24.6775C23.2423 24.8495 23.2263 24.9215 23.2556 25.0775C23.2983 25.2508 23.4289 25.4815 23.4996 25.4375C23.5569 25.3948 23.4143 25.2508 23.5863 24.9068C23.7583 24.5628 23.9836 24.3495 23.9836 24.3495C23.9836 24.3495 24.2996 23.9762 24.4423 23.6908C24.5716 23.4335 24.7009 23.0162 24.7009 23.0162C24.7009 23.0162 24.8023 22.6428 24.7729 22.3282C24.7596 22.0282 24.7009 21.8708 24.7009 21.8708L24.5729 21.6415L24.4996 21.4722L24.5289 21.3708C24.5569 21.3562 24.6583 21.4282 24.7449 21.5428C24.8493 21.6774 24.9222 21.8337 24.9583 22.0002C24.9973 22.1303 25.0167 22.2656 25.0156 22.4015C25.0156 22.5162 24.9743 22.9882 25.1449 23.2895C25.2169 23.4335 25.3889 23.7615 25.4036 23.6175C25.4316 23.2882 25.2876 23.1322 25.3023 22.8308C25.3156 22.4882 25.4036 22.5735 25.4316 22.4015C25.4609 22.2148 25.5023 22.1708 25.4743 21.9282C25.4454 21.7487 25.4026 21.5717 25.3463 21.3988L25.2449 21.1695L25.2023 21.0842C25.2023 21.0842 25.2303 21.0428 25.2729 21.0428L25.6169 20.9282C25.6169 20.9282 26.0623 20.7282 26.2343 20.5842C26.4209 20.4548 26.6343 20.2242 26.6343 20.2242C26.6343 20.2242 26.9209 19.8682 27.0649 19.6108C27.4089 18.9655 27.4076 18.1495 27.3929 17.7762C27.3796 17.4188 27.2783 16.9455 27.2783 16.9455C27.2783 16.9455 27.1636 16.3722 27.1929 16.0002C27.2209 15.6282 27.2503 15.4562 27.2503 15.4562C27.2503 15.4562 27.2369 15.0842 27.5516 14.6828C27.8663 14.2828 28.0076 14.0255 28.0649 13.7242C28.1223 13.4668 28.0356 13.0522 27.9209 13.2095C27.7929 13.3815 27.7383 13.7255 27.5516 14.0108C27.2943 14.4122 26.9196 14.8988 26.7343 14.8988C26.6343 14.8988 26.6063 14.6695 26.6063 14.6695C26.6063 14.6695 26.4783 14.2828 26.6929 13.7948C26.8503 13.4508 26.9343 13.3522 27.1356 13.0948C27.3223 12.8508 27.4356 12.7215 27.5649 12.4642C27.6796 12.2348 27.7063 12.1922 27.7783 11.8348C27.7916 11.7482 27.7649 11.5628 27.6796 11.5762C27.5649 11.5762 27.2503 12.2655 26.9209 12.6522C26.6063 13.0095 26.0183 13.4668 26.0183 13.4668C26.0183 13.4668 25.9609 13.5082 25.9609 13.3935C25.9476 13.2935 25.9316 12.9935 25.9889 12.7228C26.0608 12.3825 26.1922 12.0575 26.3769 11.7628C26.6489 11.2908 26.9916 10.9628 27.1636 10.7895C27.2356 10.7188 27.4503 10.5882 27.3369 10.5162C27.2356 10.4588 26.9343 10.7162 26.7049 10.8895C26.4196 11.1028 26.3196 11.1628 26.0343 11.5068C25.7476 11.8495 25.6743 11.9935 25.6743 11.9935C25.6743 11.9935 25.4023 12.4362 25.3303 12.8655C25.2583 13.2948 25.2596 13.5375 25.2596 13.5375C25.2596 13.5375 25.2596 13.9255 25.3023 14.1548C25.3303 14.3975 25.4316 14.7682 25.4316 14.7682C25.4316 14.7682 25.5756 15.1855 25.6316 15.4442C25.6903 15.7015 25.7889 16.4588 25.7889 16.4588C25.7889 16.4588 25.8609 17.0042 25.8169 17.5188C25.7743 18.0348 25.7316 18.3348 25.6743 18.4922C25.6169 18.6508 25.4609 19.0655 25.2023 19.3522C24.9596 19.6242 24.9009 19.6668 24.9009 19.6668C24.9009 19.6668 24.6436 19.8802 24.4289 19.9948C24.2123 20.1122 23.9872 20.2134 23.7556 20.2975C23.6374 20.3185 23.5181 20.3323 23.3983 20.3388H23.2129L23.1556 20.2988L23.1249 20.1828C23.1249 20.1828 22.9836 19.6242 22.8129 19.2668C22.6689 18.9655 22.3676 18.5508 22.3676 18.5508C22.3676 18.5508 21.8516 17.8482 21.4503 17.4615C20.9916 17.0042 20.4769 16.6615 20.1609 16.4175C20.0463 16.3322 19.7889 16.1722 19.7889 16.1722C19.7889 16.1722 18.7449 15.1282 18.3729 14.2975C18.1143 13.7242 17.9436 13.3108 18.0156 12.6802C18.0289 12.5375 18.0863 12.2642 18.1143 12.2642L18.3009 12.3215C18.3169 12.3348 18.4876 12.4935 18.6463 12.5508C18.7316 12.5788 18.8876 12.6082 18.8876 12.6082C18.8876 12.6082 19.0169 12.6215 19.0876 12.6362C19.1596 12.6655 19.2889 12.7082 19.3743 12.7508C19.4609 12.7935 19.5876 12.8815 19.5876 12.8815L19.8329 13.0655L20.0916 13.2655C20.0916 13.2655 20.2329 13.3668 20.2756 13.3815C20.3183 13.3948 20.3476 13.4095 20.3623 13.4095H20.4196C20.4196 13.4095 20.4783 13.3935 20.4916 13.3362C20.5063 13.2655 20.4209 13.3228 20.2916 13.1802C20.2118 13.1116 20.1441 13.03 20.0916 12.9388C20.0916 12.9388 20.0623 12.8228 19.9476 12.6935C19.8329 12.5642 19.6903 12.4508 19.6903 12.4508C19.6903 12.4508 19.5889 12.3802 19.4449 12.3362C19.3023 12.2935 19.2583 12.2922 19.2449 12.2348C19.2316 12.1775 19.4169 12.2068 19.4169 12.2068C19.4169 12.2068 19.6329 12.2348 19.8036 12.3215C19.9769 12.4068 20.0756 12.5082 20.0756 12.5082L20.1903 12.6082L20.2636 12.6802L20.3329 12.7228C20.3329 12.7228 20.4049 12.7935 20.4196 12.6935C20.4329 12.6082 20.4049 12.5362 20.3903 12.5215L20.3196 12.4508L20.0343 12.2068C19.9651 12.1322 19.8882 12.0652 19.8049 12.0068C19.6891 11.9252 19.5637 11.858 19.4316 11.8068C19.2889 11.7482 19.2036 11.7628 19.0596 11.6908C18.9596 11.6482 18.8729 11.6202 18.8156 11.5348C18.8009 11.5215 18.7303 11.4615 18.8596 11.4908C18.9876 11.5188 19.0729 11.5628 19.2156 11.5922C19.4449 11.6495 19.5889 11.6482 19.8049 11.7202C19.8903 11.7482 20.0049 11.8055 20.0049 11.8055L20.2756 11.9202C20.2756 11.9202 20.6489 12.1215 20.9063 12.1362C21.097 12.1509 21.2886 12.1217 21.4663 12.0508C21.5702 12.0082 21.6669 11.9498 21.7529 11.8775C21.7792 11.8518 21.8025 11.8232 21.8223 11.7922L21.8516 11.7202V11.6628C21.7796 11.5762 21.6383 11.8068 21.4089 11.8495C21.1649 11.8935 21.1783 11.9202 21.0209 11.8922C20.8678 11.8761 20.7256 11.805 20.6209 11.6922C20.3903 11.4762 20.3063 11.2762 20.0049 11.1468C19.8769 11.0895 19.6449 11.0322 19.6449 11.0322C19.6449 11.0322 19.3303 10.9322 19.1583 10.8322C19.0303 10.7602 18.7609 10.7175 18.8463 10.6028C18.8889 10.5455 19.2329 10.7455 19.4889 10.7748C19.6756 10.8028 19.8049 10.7895 19.9476 10.7895C20.0903 10.7895 20.2916 10.7455 20.3209 10.7455C20.3489 10.7322 20.4623 10.7455 20.5623 10.7748C20.6623 10.8028 20.7196 10.8455 20.8196 10.8895C20.9209 10.9322 21.0369 11.0042 21.0649 11.0042L21.1223 11.0188L21.1516 10.9908L21.1649 10.9615L21.1516 10.9335L21.1063 10.9042L21.0209 10.8468C21.0209 10.8468 20.8929 10.7748 20.7783 10.6602C20.6636 10.5455 20.5623 10.4175 20.3916 10.3602C20.2183 10.3028 20.0183 10.2748 20.0183 10.2748L19.8183 10.2588L19.7316 10.2455C19.7316 10.2455 19.5889 10.2015 19.7036 10.1735C19.7689 10.1535 19.8358 10.1393 19.9036 10.1308C20.0132 10.1071 20.127 10.1117 20.2343 10.1442C20.3489 10.1868 20.5356 10.2868 20.5489 10.2868C20.5636 10.3015 20.7356 10.4322 20.9223 10.4748C21.1089 10.5175 21.3516 10.5322 21.3516 10.5322L21.4663 10.5042L21.5236 10.4882L21.5649 10.4588L21.5516 10.3895C21.5516 10.3895 21.5516 10.3308 21.4663 10.3162C21.3165 10.2988 21.1733 10.2452 21.0489 10.1602C20.8916 10.0455 20.7783 9.93082 20.7783 9.93082C20.7783 9.93082 20.6636 9.82949 20.4343 9.77082C20.2209 9.71482 20.1489 9.71482 20.1489 9.71482L20.0756 9.68549L19.9196 9.61616C19.9196 9.61616 19.8463 9.57216 19.7889 9.50149C19.7316 9.42949 19.6476 9.29882 19.8903 9.37082C20.1343 9.44282 20.1903 9.48549 20.1903 9.48549C20.1903 9.48549 20.3196 9.61482 20.4343 9.62816C20.5063 9.64282 20.5636 9.65749 20.6076 9.60016C20.6783 9.52816 20.4769 9.44282 20.3329 9.34149C20.2417 9.27015 20.164 9.18298 20.1036 9.08416C20.1036 9.08416 20.0196 9.01349 20.1489 9.04282C20.2769 9.07082 20.5049 9.21482 20.5049 9.21482C20.5049 9.21482 20.6196 9.27082 20.6783 9.28549C20.7196 9.29882 20.8356 9.37082 20.8929 9.39882C20.9356 9.41349 21.0663 9.44282 21.1503 9.48549C21.2649 9.55749 21.3236 9.67216 21.3796 9.71482C21.4369 9.75749 21.4809 9.83082 21.5529 9.84416C21.6236 9.85882 21.6369 9.88682 21.6796 9.85749C21.6996 9.84494 21.7187 9.83113 21.7369 9.81616C21.7369 9.81616 21.7503 9.78549 21.6796 9.74282C21.6089 9.70016 21.5236 9.58682 21.5236 9.58682L21.4943 9.52949L21.4796 9.47216L21.4089 9.35749L21.2783 9.17082C21.2783 9.17082 21.0783 8.89882 20.8929 8.79749C20.7209 8.69749 20.5916 8.64149 20.5916 8.64149C20.5916 8.64149 20.5063 8.60016 20.4636 8.57082C20.3916 8.51349 20.3623 8.46816 20.3036 8.39749C20.2329 8.31082 20.2063 8.25616 20.1196 8.17082C19.9623 8.01349 19.4756 7.92549 19.6609 7.81082C19.7623 7.75349 19.8903 7.78416 19.9476 7.79749C20.0049 7.81216 20.1343 7.86682 20.2636 7.90949C20.3489 7.93882 20.4063 7.94149 20.4916 7.96949C20.5783 7.99882 20.6783 8.01082 20.7209 8.04016C20.7636 8.06816 20.8076 8.12682 20.8356 8.14149C20.8503 8.15482 20.9636 8.34149 21.1636 8.44149C21.3636 8.54149 21.4663 8.61216 21.6663 8.62549C21.8236 8.64016 22.0796 8.58549 22.0796 8.58549C22.0796 8.58549 22.1529 8.55482 22.0956 8.48282C22.0249 8.41082 22.0236 8.39749 21.9663 8.38416C21.7369 8.29749 21.5529 8.32682 21.3796 8.15482C21.3089 8.08282 21.2783 8.06816 21.2209 7.95482C21.1636 7.84016 21.1943 7.81216 21.1516 7.74149C21.1223 7.66949 21.0489 7.56816 21.0489 7.56816C21.0489 7.56816 20.8356 7.30949 20.6063 7.18149C20.4485 7.1013 20.2992 7.00525 20.1609 6.89482C20.1183 6.86549 20.0343 6.75082 20.0343 6.75082L19.9609 6.63616L19.9196 6.55082C19.8903 6.39349 20.1756 6.59482 20.3329 6.65216C20.5916 6.73749 20.7209 6.85216 20.9796 6.93882C21.1223 6.98149 21.2089 6.98016 21.3516 7.03749C21.5943 7.13749 21.6663 7.38149 21.9249 7.41082C22.0676 7.42416 22.3543 7.48149 22.2969 7.35216C22.2396 7.20949 21.9529 7.20949 21.8103 7.03749C21.7383 6.96549 21.7383 6.89616 21.6663 6.82416C21.5516 6.68016 21.2796 6.55082 21.2796 6.55082C21.2796 6.55082 21.1943 6.48016 21.0929 6.28016C21.0076 6.08016 20.7929 5.93349 20.4063 5.74816C20.1489 5.62016 19.6329 5.59082 19.8329 5.46149C19.9476 5.37616 20.0476 5.39082 20.2063 5.43349C20.3636 5.49082 20.4196 5.56416 20.5489 5.62016C20.6783 5.67882 20.7356 5.69216 20.7623 5.70682C20.7916 5.72016 20.8916 5.76416 20.9356 5.76416C20.9623 5.77749 21.1796 5.80682 21.2369 5.82149L21.5236 5.89216L21.7529 5.97749C21.7529 5.97749 21.8663 6.02149 21.9369 6.02149C22.0076 6.02149 22.1249 5.99349 22.1249 5.99349L22.2103 5.93616L22.2236 5.90682C22.2236 5.90682 22.2676 5.83616 22.1529 5.82149C22.0964 5.81245 22.0394 5.80711 21.9823 5.80549L21.8796 5.77749L21.8396 5.76416C21.8396 5.76416 21.6383 5.60682 21.4663 5.53482C21.3937 5.50768 21.3217 5.47923 21.2503 5.44949L21.1796 5.43349L21.0943 5.42016C21.0943 5.42016 21.0209 5.42016 20.9063 5.31882C20.7916 5.21882 20.7489 5.16149 20.6489 5.06149L20.5209 4.93349C20.5209 4.93349 20.4063 4.84549 20.4063 4.77349C20.4196 4.66016 20.6636 4.90416 20.6636 4.90416L20.8369 5.01882C20.8369 5.01882 20.9796 5.12016 21.2369 5.13349C21.4943 5.14816 21.8103 5.06149 21.8103 5.06149C21.8103 5.06149 21.8516 5.03482 21.9943 5.07616C22.1369 5.11749 22.2529 5.20416 22.2529 5.20416L22.3676 5.30549L22.5396 5.49082L22.5676 5.47749C22.5809 5.46416 22.6543 5.39082 22.5263 5.23349C22.3969 5.07482 22.1823 4.93349 22.1823 4.93349C22.1823 4.93349 21.8956 4.76149 21.6089 4.70416C21.3236 4.64682 21.1929 4.64682 21.1929 4.64682C21.1929 4.64682 20.9783 4.64682 20.8489 4.50416C20.7196 4.36016 20.6356 4.21749 20.6356 4.21749L20.5916 4.01749C20.5916 4.01749 20.5209 3.93082 20.3783 3.87349C20.2489 3.81616 20.1036 3.73082 20.1036 3.73082C20.1036 3.73082 19.8903 3.65882 19.8743 3.55749C19.8316 3.37216 20.2343 3.55749 20.4476 3.60016C20.6476 3.64282 20.7343 3.71616 20.9343 3.76016C21.0832 3.80248 21.2389 3.81605 21.3929 3.80016C21.4929 3.80016 21.5503 3.78949 21.6503 3.77349C21.7516 3.77349 21.8236 3.76016 21.9249 3.77349C22.0676 3.80282 22.1249 3.87349 22.2676 3.93082C22.3542 3.97349 22.3969 4.01482 22.4969 4.02949C22.5836 4.04416 22.7556 4.10282 22.7263 4.01616L22.6823 3.95882C22.6103 3.85882 22.5263 3.85882 22.4396 3.78816C22.2529 3.64416 22.1676 3.53082 21.9529 3.43082C21.8321 3.36625 21.7015 3.3221 21.5663 3.30016C21.4503 3.28682 21.3649 3.31616 21.2503 3.28682C21.1209 3.24416 21.0796 3.18682 20.9503 3.11616C20.7503 3.00149 20.6343 2.90016 20.4196 2.81349C20.293 2.76797 20.1639 2.72969 20.0329 2.69882L19.9316 2.68549L19.8916 2.67082C19.6903 2.59882 20.2476 2.44282 20.5049 2.37082C20.6343 2.34282 20.6916 2.31216 20.8196 2.32682C20.9343 2.34016 21.0636 2.50016 21.1929 2.42816C21.3796 2.32816 20.9783 2.05482 20.8489 2.01216C20.6769 1.94016 20.3769 1.99882 20.3769 1.99882L19.7183 1.98282L19.5316 1.95482C19.5316 1.95482 19.4169 1.95482 19.3316 1.85482C19.2449 1.75482 18.9169 1.35216 18.5449 1.29482C18.1583 1.23749 18.0436 1.29482 18.0156 1.26816C17.6863 0.750824 17.3409 0.63749 17.0823 0.394824C17.0116 0.322824 16.8983 0.164157 16.8689 0.178824L16.8703 0.17749ZM18.4343 1.69749C18.4569 1.6964 18.4796 1.6964 18.5023 1.69749L18.5729 1.74149C18.6316 1.79949 18.6798 1.86714 18.7156 1.94149C18.7303 1.99882 18.5449 1.92816 18.4743 1.91216C18.4016 1.89187 18.3336 1.85743 18.2743 1.81082C18.2743 1.81082 18.2436 1.76816 18.3143 1.72549C18.3514 1.70631 18.3925 1.69759 18.4343 1.69749ZM18.7703 2.40416C18.8049 2.40416 18.8303 2.41216 18.8303 2.41216L18.9009 2.45749C18.9596 2.51546 19.0079 2.58312 19.0436 2.65749C19.0583 2.71482 18.8729 2.64416 18.8023 2.62816C18.7296 2.60787 18.6616 2.57343 18.6023 2.52682C18.6023 2.52682 18.5729 2.48416 18.6596 2.44149C18.6914 2.41738 18.7304 2.4047 18.7703 2.40549V2.40416ZM16.2609 2.42282C16.2966 2.42101 16.3323 2.4228 16.3676 2.42816C16.3676 2.42816 16.4249 2.42816 16.5103 2.46949C16.5969 2.52682 16.6543 2.69882 16.6543 2.69882C16.6543 2.69882 16.6676 2.72816 16.5969 2.72816C16.5529 2.72816 16.5529 2.65749 16.5103 2.62816C16.4529 2.58549 16.4103 2.57082 16.3383 2.54282C16.2676 2.51482 16.1676 2.55616 16.1543 2.48549C16.1543 2.44282 16.2076 2.42682 16.2609 2.42282ZM15.1356 2.58949C15.1916 2.57349 15.1356 2.68549 15.1356 2.68549C15.1356 2.68549 14.9503 2.98549 14.6929 3.10016C14.4356 3.21482 14.2636 3.27349 13.7756 3.31616C13.7049 3.31616 13.7356 3.27216 13.7356 3.27216C13.7356 3.27216 14.2916 3.11616 14.6076 2.94416C14.7583 2.86052 14.9019 2.76464 15.0369 2.65749C15.0655 2.62953 15.099 2.60561 15.1356 2.58949ZM16.1383 2.66949C16.1383 2.66949 16.2249 2.67216 16.3249 2.74282C16.4263 2.81482 16.5116 3.05882 16.5116 3.05882C16.5116 3.05882 16.5409 3.21482 16.4689 3.27216C16.3969 3.32949 16.2823 3.23082 16.2236 3.14416C16.1725 3.07192 16.0965 3.02111 16.0103 3.00149C15.8956 2.95882 15.7236 3.08682 15.6956 3.00149C15.6956 2.97216 15.7089 2.90016 15.7089 2.90016C15.7089 2.90016 15.7383 2.81482 15.8676 2.74416C15.9823 2.67216 16.1383 2.67082 16.1383 2.67082V2.66949ZM18.8023 3.22282C18.8596 3.22816 18.9396 3.27216 19.0023 3.27216C19.1889 3.27216 19.3449 3.27216 19.4743 3.30016C19.5889 3.32949 19.6169 3.40016 19.5596 3.40016C19.5179 3.4113 19.4747 3.41624 19.4316 3.41482C19.3036 3.41482 19.3169 3.35749 19.1463 3.44416C18.9729 3.52949 19.1023 3.48816 18.8596 3.57349C18.6303 3.66016 18.6863 3.43082 18.6863 3.43082C18.6863 3.43082 18.7036 3.38682 18.7316 3.27082C18.7423 3.22949 18.7676 3.21882 18.8023 3.22282ZM12.3436 3.88682C12.4303 3.88682 12.5889 3.94549 12.5889 4.07349C12.6023 4.20282 12.5009 4.14549 12.4289 4.18816C12.3876 4.21749 12.3596 4.23216 12.3023 4.27482C12.2303 4.33216 12.1583 4.47482 12.1156 4.43082C12.0569 4.38816 12.0863 4.23082 12.0863 4.23082C12.0863 4.23082 12.1302 4.11616 12.1876 4.00149C12.2596 3.88682 12.3436 3.88682 12.3436 3.88682ZM19.1929 4.03482C19.2155 4.03589 19.2378 4.03947 19.2596 4.04549C19.2596 4.04549 19.3023 4.05882 19.3303 4.08682C19.3596 4.11616 19.4743 4.21749 19.4743 4.27349C19.4743 4.31749 19.2889 4.24416 19.2036 4.23082C19.1169 4.21616 19.0036 4.13082 19.0036 4.13082C19.0036 4.13082 18.9743 4.10416 19.0596 4.06149C19.1012 4.04178 19.147 4.03262 19.1929 4.03482ZM16.6663 4.15216C16.6796 4.15216 16.6783 4.17216 16.6529 4.21749C16.5969 4.33216 16.4249 4.47482 16.4249 4.47482C16.4249 4.47482 16.2249 4.76016 16.1823 4.80282C15.9956 4.94682 15.7663 4.86149 15.6663 4.87616C15.5809 4.88949 15.6383 4.80282 15.6383 4.80282C15.6383 4.80282 15.8823 4.70416 16.0383 4.61882C16.2489 4.51349 16.6076 4.15216 16.6663 4.15216ZM13.7222 4.40416C13.7529 4.40416 13.7769 4.41749 13.7769 4.46149C13.7916 4.56149 13.6063 4.63216 13.6063 4.63216C13.6063 4.63216 13.5503 4.64682 13.5356 4.54682C13.5223 4.44682 13.6063 4.43216 13.6063 4.43216C13.6063 4.43216 13.6729 4.40016 13.7222 4.40416ZM17.2689 4.56016C17.2929 4.54682 17.2729 4.68949 17.2729 4.68949C17.2729 4.68949 17.2289 4.87749 17.1289 4.93482C17.0009 5.00682 16.6836 5.09216 16.6556 5.04949C16.6556 5.02016 17.0703 4.88949 17.2556 4.57616C17.2587 4.56986 17.2633 4.56438 17.2689 4.56016ZM19.2076 4.61216C19.2309 4.61228 19.2542 4.61496 19.2769 4.62016C19.2769 4.62016 19.3169 4.63349 19.3609 4.66016C19.4036 4.70416 19.5049 4.82016 19.5196 4.87749C19.5329 4.93482 19.3329 4.86416 19.2329 4.84949C19.1476 4.83482 19.0169 4.73482 19.0169 4.73482C19.0169 4.73482 18.9903 4.69082 19.0769 4.64816C19.116 4.62349 19.1614 4.61096 19.2076 4.61216ZM17.4729 4.93749C17.4996 4.92949 17.4569 5.04949 17.4569 5.04949C17.4569 5.04949 17.3996 5.23616 17.2849 5.27882C17.1423 5.32149 16.5996 5.33482 16.5849 5.29216C16.5716 5.24816 17.2143 5.19082 17.4569 4.94816C17.4611 4.94316 17.4667 4.93947 17.4729 4.93749ZM19.2516 5.18416C19.2785 5.18413 19.3053 5.18681 19.3316 5.19216C19.3316 5.19216 19.3756 5.20549 19.4183 5.23482C19.4609 5.27749 19.5756 5.40816 19.5903 5.47882C19.6036 5.56549 19.3903 5.47882 19.2903 5.45082C19.2007 5.42378 19.1173 5.37938 19.0449 5.32016C19.0449 5.32016 19.0169 5.27882 19.1023 5.22149C19.1475 5.19514 19.1993 5.18219 19.2516 5.18416ZM19.2516 5.90016C19.2785 5.90013 19.3053 5.90281 19.3316 5.90816C19.3316 5.90816 19.3756 5.92149 19.4183 5.95082C19.4609 5.99349 19.5756 6.12416 19.5903 6.19482C19.6036 6.26682 19.3903 6.18016 19.2903 6.15082C19.2008 6.12491 19.1174 6.08139 19.0449 6.02282C19.0449 6.02282 19.0169 5.99482 19.1023 5.93749C19.1476 5.9116 19.1994 5.89912 19.2516 5.90149V5.90016ZM17.1609 6.58549C17.2716 6.61749 17.1703 7.42416 16.9569 7.79882C16.6821 8.2588 16.3496 8.68178 15.9676 9.05749C15.7676 9.20016 15.8969 8.94282 15.8969 8.94282C15.8969 8.94282 16.4543 8.17082 16.7129 7.62682C16.8996 7.24016 17.0143 6.72549 17.0996 6.62416C17.1263 6.59482 17.1449 6.58149 17.1609 6.58549ZM19.2276 6.59616C19.2587 6.59717 19.2895 6.60164 19.3196 6.60949C19.3196 6.60949 19.3756 6.62282 19.4183 6.66682C19.4609 6.70949 19.6049 6.86816 19.6183 6.94016C19.6183 7.02549 19.3756 6.90949 19.2623 6.89616C19.1627 6.86815 19.0704 6.81903 18.9916 6.75216C18.9916 6.75216 18.9609 6.69482 19.0609 6.63749C19.1106 6.60625 19.169 6.59177 19.2276 6.59616ZM19.1369 7.28949C19.1637 7.28902 19.1905 7.29126 19.2169 7.29616C19.2169 7.29616 19.2609 7.31216 19.3036 7.34149C19.3463 7.38416 19.4609 7.51216 19.4756 7.58282C19.4889 7.65482 19.2756 7.56949 19.1756 7.55482C19.0871 7.52855 19.0046 7.48505 18.9329 7.42682C18.9329 7.42682 18.9063 7.38282 18.9903 7.32549C19.0347 7.29968 19.0856 7.28718 19.1369 7.28949ZM19.0956 7.91082C19.1169 7.90976 19.1383 7.90976 19.1596 7.91082L19.2329 7.95482C19.292 8.01275 19.3407 8.0804 19.3769 8.15482C19.3769 8.21349 19.2036 8.14149 19.1183 8.12816C19.0329 8.11349 18.9183 8.02816 18.9183 8.02816C18.9183 8.02816 18.8889 7.98549 18.9756 7.94282C19.0125 7.92286 19.0536 7.9119 19.0956 7.91082ZM19.0169 8.52016C19.0371 8.5214 19.0571 8.52407 19.0769 8.52816L19.1343 8.55749C19.1623 8.58549 19.2463 8.67082 19.2463 8.71349C19.2463 8.77082 19.0903 8.70016 19.0329 8.70016C18.9755 8.68298 18.9223 8.65391 18.8769 8.61482C18.8769 8.61482 18.8609 8.58416 18.9169 8.54149C18.9463 8.52016 18.9836 8.51882 19.0169 8.52016ZM18.8969 9.08282C18.9134 9.08273 18.9299 9.08362 18.9463 9.08549L19.0036 9.11482C19.0329 9.14282 19.1023 9.21482 19.1023 9.25749C19.0889 9.28682 18.9596 9.22949 18.9023 9.22949C18.8519 9.21203 18.804 9.18829 18.7596 9.15882C18.7596 9.15882 18.7463 9.12949 18.8036 9.10149C18.833 9.08853 18.8648 9.08216 18.8969 9.08282ZM8.75158 9.35882C8.90892 9.38816 8.93825 9.40149 8.92358 9.47349C8.93692 9.54549 8.73825 9.54416 8.73825 9.54416C8.73825 9.54416 8.45025 9.60282 8.49425 9.50282C8.55158 9.40149 8.75158 9.35882 8.75158 9.35882ZM18.7663 9.52549C18.7956 9.52549 18.8196 9.53082 18.8196 9.53082L18.8769 9.56016C18.9049 9.58816 18.9756 9.66016 18.9756 9.70282C18.9609 9.74549 18.8316 9.68949 18.7756 9.67482C18.7169 9.66016 18.6316 9.60149 18.6316 9.60149C18.6316 9.60149 18.6183 9.57216 18.6756 9.54416C18.704 9.5312 18.735 9.52482 18.7663 9.52549ZM18.6063 10.0282C18.6196 10.0281 18.633 10.029 18.6463 10.0308L18.6889 10.0602C18.7023 10.0735 18.7743 10.1455 18.7743 10.1748C18.7743 10.2175 18.6729 10.1748 18.6156 10.1615C18.5729 10.1482 18.5036 10.1042 18.5036 10.1042C18.5036 10.1042 18.4903 10.0748 18.5329 10.0468C18.5547 10.0339 18.581 10.0274 18.6063 10.0282ZM14.5249 10.1882C14.606 10.1881 14.6871 10.193 14.7676 10.2028C15.1676 10.2602 15.5542 10.6188 15.4956 10.6615C15.4383 10.7042 15.3529 10.6615 15.3236 10.6615L15.1809 10.5908L14.9649 10.5335C14.9649 10.5335 14.5783 10.4468 14.2929 10.4602C14.0063 10.4748 13.7489 10.5748 13.7489 10.5748C13.7489 10.5748 13.6343 10.6335 13.6063 10.5615C13.5916 10.4762 13.6503 10.4322 13.6503 10.4322L13.6636 10.4028C13.6636 10.4028 13.9916 10.1855 14.5249 10.1882ZM7.70758 10.3588C7.71692 10.3588 7.72092 10.3615 7.72092 10.3615L7.74892 10.3908C7.73558 10.3908 7.79158 10.5335 7.66358 10.6762C7.53425 10.8202 7.13425 11.5788 7.04892 11.4495C6.96225 11.3495 7.43558 10.6322 7.53558 10.4895C7.61025 10.3708 7.67825 10.3588 7.70758 10.3588ZM18.4409 10.5148C18.4609 10.5148 18.4756 10.5175 18.4756 10.5175L18.5169 10.5335L18.5903 10.6322C18.5756 10.6748 18.4889 10.6468 18.4463 10.6322C18.4036 10.6322 18.3449 10.5748 18.3449 10.5748C18.3449 10.5748 18.3316 10.5615 18.3743 10.5348C18.3941 10.522 18.4173 10.5151 18.4409 10.5148ZM9.39692 10.9188C9.41958 10.9108 9.43558 10.9295 9.45425 10.9348L9.52492 10.9628L9.56892 11.0055L9.71292 11.1482C9.77025 11.2335 9.92625 11.5215 9.89692 11.5482C9.76892 11.6775 9.72625 11.5055 9.54092 11.2908C9.35425 11.0908 9.39692 10.9188 9.39692 10.9188ZM18.2409 10.9855C18.2523 10.9859 18.2636 10.9881 18.2743 10.9922L18.3169 11.0055L18.3889 11.1068C18.3889 11.1348 18.3023 11.0908 18.2596 11.0908C18.2156 11.0908 18.1596 11.0335 18.1596 11.0335C18.1596 11.0335 18.1303 11.0202 18.1729 11.0055C18.1933 10.9929 18.2169 10.9864 18.2409 10.9868V10.9855ZM11.7756 11.5068C11.8223 11.5108 11.7583 11.5935 11.7583 11.5935C11.7583 11.5935 11.5129 11.9215 11.3703 12.1228C11.1836 12.3935 10.9543 12.8082 10.9116 12.7655C10.8689 12.7228 11.1129 12.2668 11.2423 12.0228C11.3849 11.7228 11.5996 11.5655 11.6849 11.5362C11.7129 11.5206 11.7437 11.5111 11.7756 11.5082V11.5068ZM7.70625 12.5802L7.73425 12.6095C7.73425 12.6095 7.74892 12.6655 7.64892 12.8228C7.54892 12.9802 7.47558 12.9815 7.47558 12.9815C7.47558 12.9682 7.44892 12.9108 7.53425 12.7388C7.61958 12.5668 7.70625 12.5802 7.70625 12.5802ZM5.95025 13.1402C5.95854 13.1424 5.96597 13.147 5.97158 13.1535C6.01425 13.2108 5.88625 13.4682 5.88625 13.4682C5.88625 13.4682 5.75692 13.7388 5.71292 13.6242C5.67025 13.5242 5.75825 13.3388 5.75825 13.3388C5.85825 13.2508 5.90225 13.1308 5.95025 13.1402ZM17.3703 13.5095C17.4983 13.5242 17.4849 13.7682 17.4849 13.8255C17.5276 14.2402 17.7009 14.6575 18.0156 15.1588C18.4596 15.8602 19.1756 16.4042 19.1463 16.4482C19.0743 16.5188 18.3596 15.9602 18.1009 15.6455C17.6716 15.1295 17.3543 14.5708 17.2556 13.8695C17.2263 13.7122 17.2263 13.4815 17.3703 13.5095ZM8.93825 13.7095C8.96625 13.7095 9.09425 13.7548 9.09425 13.7548L9.40892 13.8828C9.42225 13.8828 9.58225 13.9548 9.71158 14.0255L10.0236 14.2255L10.1116 14.2988C10.1116 14.3282 10.2116 14.4855 10.0103 14.4428C9.81025 14.3988 9.38092 14.0695 9.20892 13.9842C9.03558 13.8988 8.75158 13.8695 8.88092 13.7548C8.89425 13.7415 8.90892 13.7095 8.93825 13.7095ZM7.41825 14.5002C7.42794 14.4983 7.4379 14.4983 7.44758 14.5002C7.53425 14.5002 7.53425 14.5695 7.53425 14.5695V14.6135C7.53425 14.6135 7.53292 14.8722 7.54758 15.0722C7.54758 15.1295 7.70625 15.7735 7.70625 15.7735C7.70625 15.7735 7.73425 15.8308 7.67692 15.8308C7.63425 15.8308 7.59158 15.7442 7.59158 15.7442C7.59158 15.7442 7.47558 15.5735 7.43158 15.4455C7.39025 15.3308 7.37558 15.1428 7.37558 15.1428C7.37558 15.1428 7.34625 14.9002 7.34625 14.8148C7.36092 14.7002 7.36092 14.5988 7.37558 14.5415C7.37754 14.5313 7.38252 14.5218 7.38989 14.5145C7.39726 14.5071 7.40801 14.5021 7.41825 14.5002ZM5.43158 14.8428C5.4447 14.8394 5.45847 14.8394 5.47158 14.8428C5.55692 14.8575 5.51292 15.0135 5.51292 15.0855C5.51292 15.1575 5.43025 15.2855 5.40092 15.2855C5.37292 15.2855 5.31425 15.1575 5.32892 15.0855C5.34225 15.0228 5.35158 14.8628 5.43158 14.8428ZM12.6876 16.0335C12.8503 16.0202 13.3209 16.6962 14.0049 17.4335C14.7782 18.2655 15.6796 19.0535 15.7089 19.1535C15.7663 19.3255 15.0782 18.7802 14.7063 18.4948C13.7183 17.7348 12.5156 16.1895 12.6596 16.0468C12.6672 16.0394 12.677 16.0347 12.6876 16.0335ZM26.3849 16.7308C26.4116 16.7282 26.4342 16.7628 26.4342 16.7628L26.4636 16.8042C26.4636 16.8335 26.6343 17.5055 26.6196 17.9348C26.5903 18.5348 26.5636 18.9655 26.2063 19.4242C25.7756 19.9828 25.0303 20.5575 25.1876 20.0988C25.2876 19.8268 25.9476 19.4828 26.2049 18.7242C26.3489 18.2655 26.3783 17.8348 26.3783 17.8348L26.3489 16.9628C26.3489 16.9628 26.3329 16.8922 26.3329 16.7908C26.3489 16.7482 26.3676 16.7335 26.3849 16.7308ZM19.0809 18.2242C19.2143 18.2388 19.2743 18.3228 19.1169 18.4375C18.9303 18.5655 18.8596 18.5508 18.7436 18.6788C18.6156 18.8362 18.5743 19.3682 18.4449 19.1535C18.3169 18.9388 18.4023 18.6375 18.6183 18.4082C18.6757 18.3435 18.7474 18.2931 18.8277 18.2609C18.908 18.2287 18.9947 18.217 19.0809 18.2242ZM8.68225 18.8095C8.73692 18.7988 8.88092 18.9082 8.88092 18.9082C8.95158 18.9215 9.02358 19.0522 9.02358 19.0522C9.02358 19.0522 9.05292 19.1535 8.96625 19.1815C8.88092 19.2242 8.82358 19.1375 8.82358 19.1375C8.82358 19.1375 8.63692 18.8802 8.66358 18.8228C8.66543 18.8193 8.66808 18.8162 8.67132 18.8139C8.67457 18.8116 8.67831 18.8101 8.68225 18.8095ZM22.4249 20.8428C22.4529 20.8428 22.5116 20.8722 22.5836 21.0162C22.6556 21.1602 22.4689 22.1735 22.2396 22.0295C22.1103 21.9442 22.3103 21.6882 22.3103 21.4735C22.3103 21.3015 22.2809 21.1708 22.2809 21.0282C22.2809 20.8855 22.4249 20.8428 22.4249 20.8428ZM18.1756 22.6095C18.2263 22.6148 18.2396 22.6868 18.1703 22.8308C18.0703 23.0455 18.0423 23.1175 18.0276 23.3188C17.9983 23.5322 18.1289 24.1322 17.9289 23.9055C17.8569 23.8042 17.7849 23.3322 17.8423 23.1028C17.9049 22.7802 18.0903 22.6028 18.1756 22.6095ZM17.0823 25.4335C17.1303 25.4268 17.1543 25.4508 17.1543 25.4508C17.1836 25.5082 17.1249 25.5668 17.1103 25.5815C17.0563 25.6095 16.9982 25.6288 16.9383 25.6388C16.8529 25.6522 16.8983 25.5815 16.8983 25.5815C16.8983 25.5815 16.9529 25.4935 17.0249 25.4508C17.0429 25.4419 17.0623 25.436 17.0823 25.4335ZM13.2463 25.7375C13.3609 25.7375 13.3609 25.7948 13.3609 25.7948C13.3609 25.8375 13.3169 25.8535 13.2009 25.8388C13.1023 25.8255 13.0889 25.7962 13.1036 25.7815C13.1036 25.7682 13.1316 25.7375 13.2463 25.7375ZM14.1156 25.7788C14.1263 25.7776 14.1372 25.7786 14.1476 25.7815C14.1476 25.7815 14.6343 25.8668 14.9489 25.8802C15.1783 25.8948 15.2929 25.9108 15.5223 25.8962C15.6516 25.8962 15.5796 25.8802 15.7796 25.8802C15.8516 25.8668 15.8089 25.9682 15.7516 25.9828C15.5369 26.0402 15.4503 26.0095 15.2649 26.0242C15.1063 26.0375 15.0343 26.0522 14.8769 26.0522C14.6049 26.0522 14.5783 26.0682 14.1916 25.9535C14.1196 25.9255 14.0316 25.8388 14.0609 25.8108C14.0671 25.8017 14.0752 25.7942 14.0846 25.7886C14.0941 25.7831 14.1047 25.7797 14.1156 25.7788ZM10.8689 25.8655C11.0369 25.8695 10.9836 25.9255 10.9836 25.9255C10.9836 25.9255 10.9823 25.9815 10.8823 26.0522C10.7809 26.1242 10.7396 26.0815 10.7249 26.0815C10.7116 26.0815 10.6103 26.0242 10.6103 25.9668C10.6249 25.9095 10.7836 25.8682 10.7836 25.8682C10.8119 25.8654 10.8404 25.8645 10.8689 25.8655ZM19.8836 27.8388C19.8952 27.8386 19.9068 27.8395 19.9183 27.8415L19.9463 27.8988C19.9463 27.9122 19.8316 28.0722 19.7743 28.0722C19.7036 28.0562 19.7303 27.9722 19.7303 27.9722C19.7303 27.9722 19.7023 27.8855 19.7876 27.8575C19.8184 27.8462 19.8508 27.8399 19.8836 27.8388ZM18.8143 28.2628C18.8249 28.2628 18.8383 28.2642 18.8449 28.2708V28.3282C18.8583 28.3722 18.4849 28.7882 18.2276 29.0322C17.9849 29.2615 17.5689 29.5762 17.5689 29.5762H17.5116V29.5028L17.5276 29.4748L17.5556 29.4322L17.5849 29.3882L17.6129 29.3482L17.6996 29.2455L17.8996 29.0602L18.0996 28.8735L18.4156 28.5575C18.4156 28.5575 18.5289 28.4308 18.5716 28.4015C18.6143 28.3735 18.6436 28.3442 18.6863 28.3162C18.7289 28.2948 18.7796 28.2655 18.8143 28.2628ZM16.7436 29.9868C16.7554 29.9851 16.7674 29.9859 16.7789 29.9891C16.7904 29.9923 16.8011 29.9979 16.8103 30.0055C16.8543 30.1055 16.7836 30.1335 16.7836 30.1335L16.6529 30.2348C16.6383 30.2348 16.5529 30.3068 16.5249 30.2628C16.4956 30.2202 16.5383 30.1628 16.5383 30.1482C16.5383 30.1348 16.6249 30.0348 16.6969 30.0055C16.711 29.9961 16.7269 29.9898 16.7436 29.9868ZM15.3476 31.3122C15.4063 31.3055 15.4489 31.3935 15.4489 31.3935C15.4489 31.3935 15.4783 31.4348 15.4783 31.4922C15.4783 31.5362 15.3489 31.5215 15.2783 31.5788C15.1916 31.6362 15.3649 31.8095 15.0916 31.7948C14.9356 31.7815 15.0209 31.6375 15.0356 31.6228L15.1343 31.4802C15.2063 31.3788 15.2503 31.3642 15.3209 31.3202C15.3291 31.3155 15.3382 31.3127 15.3476 31.3122Z" fill="black"/>
</g>
<defs>
<clipPath id="clip0_601_50334">
<rect width="32" height="32" fill="white" transform="translate(0.575562 0.17749)"/>
</clipPath>
</defs>
</svg>
