<svg width="33" height="21" viewBox="0 0 33 21" fill="none" xmlns="http://www.w3.org/2000/svg">
<path d="M4.24842 17.1605L4.73697 17.2187C4.95798 17.2419 4.98125 17.428 4.98125 17.5444V18.1143H2.73624V17.5444C2.73624 17.428 2.75951 17.2419 2.98052 17.2187L3.46907 17.1605V16.6719H0.561035V17.1605L1.04958 17.2187C1.2706 17.2419 1.29386 17.428 1.29386 17.5444V19.4288C1.29386 19.5451 1.2706 19.7312 1.04958 19.7545L0.561035 19.8126V20.3012H3.46907V19.8126L2.98052 19.7545C2.75951 19.7312 2.73624 19.5451 2.73624 19.4288V18.8588H4.96961V19.4288C4.96961 19.5451 4.94635 19.7312 4.72534 19.7545L4.23679 19.8126V20.3012H7.14482V19.8126L6.65627 19.7545C6.43526 19.7312 6.412 19.5451 6.412 19.4288V17.5444C6.412 17.428 6.43526 17.2419 6.65627 17.2187L7.14482 17.1605V16.6719H4.23679V17.1605H4.24842Z" fill="black"/>
<path d="M23.6159 16.6719H20.0332V17.1605L20.4636 17.207C20.6148 17.2303 20.7195 17.2884 20.7195 17.4978V19.4171C20.7195 19.5334 20.6963 19.7196 20.4752 19.7428L19.9867 19.801V20.2895H23.6159C24.9187 20.2895 25.9889 19.7661 25.9889 18.4749C25.9889 17.1838 24.9187 16.6719 23.6159 16.6719ZM23.3484 19.6032H22.127V17.3699H23.3484C24.0696 17.3699 24.3138 17.7072 24.3138 18.4866C24.3138 19.2543 24.0696 19.6032 23.3484 19.6032Z" fill="black"/>
<path d="M32.0842 19.7545C31.8515 19.7312 31.7817 19.58 31.7119 19.4753L30.0369 16.9162C29.9206 16.7301 29.8275 16.6719 29.653 16.6719H26.9079V17.1605L27.5709 17.2303C27.664 17.2419 27.7919 17.3699 27.6872 17.5327L26.4426 19.5451C26.396 19.6265 26.3263 19.7196 26.1867 19.7428L25.6981 19.801V20.2895H28.0129V19.801L27.6174 19.7661C27.4429 19.7428 27.3499 19.6265 27.4429 19.4869L27.6291 19.1845H29.8624L30.0253 19.4288C30.1765 19.6498 29.9904 19.7428 29.8275 19.7545L29.4204 19.801V20.2895H32.5611V19.801L32.0842 19.7545ZM28.0129 18.5447L28.6992 17.428L29.432 18.5447H28.0129Z" fill="black"/>
<path d="M17.4392 17.1603L17.9278 17.2185C18.1488 17.2417 18.172 17.4279 18.172 17.5442V19.3588L16.2527 16.823C16.1713 16.7067 16.0899 16.6718 15.8805 16.6718H13.3912V17.1603L13.8798 17.2185C14.1008 17.2417 14.1241 17.4279 14.1241 17.5442V19.4286C14.1241 19.5449 14.1008 19.731 13.8798 19.7543L13.3912 19.8124V20.301H15.7177V19.8124L15.2291 19.7543C15.0081 19.731 14.9848 19.5449 14.9848 19.4286V17.614L16.9041 20.1381C16.9972 20.2545 17.067 20.2894 17.2764 20.2894H17.2996H19.0445V17.5325C19.0445 17.4162 19.0677 17.2301 19.2887 17.2068L19.7773 17.1487V16.6601H17.4625L17.4392 17.1603Z" fill="black"/>
<path d="M10.2622 16.5438C7.90089 16.5438 7.29602 17.5791 7.29602 18.4747C7.29602 19.3704 7.90089 20.4173 10.2622 20.4173C12.6235 20.4173 13.2284 19.382 13.2284 18.4864C13.2284 17.5791 12.6235 16.5438 10.2622 16.5438ZM10.2622 19.731C9.34328 19.731 8.97105 19.3472 8.97105 18.4864C8.97105 17.6256 9.35491 17.2417 10.2622 17.2417C11.1812 17.2417 11.5534 17.6256 11.5534 18.4864C11.5534 19.3472 11.1812 19.731 10.2622 19.731Z" fill="black"/>
<path d="M20.58 1.37569C20.1845 3.15541 20.0216 3.98129 19.6959 5.26082C19.3818 6.49383 19.1376 7.64541 18.7188 8.20375C18.3001 8.77373 17.7301 8.89005 17.3462 8.93658C17.1485 8.95984 16.9973 8.97147 16.5669 8.97147C16.1365 8.97147 15.9853 8.95984 15.7875 8.93658C15.4037 8.89005 14.8337 8.77373 14.4149 8.20375C13.9962 7.64541 13.7519 6.49383 13.4495 5.26082C13.1238 3.96966 12.9609 3.15541 12.5654 1.37569C12.5654 1.37569 12.1699 1.38732 11.9954 1.39895C11.7512 1.41059 11.5651 1.43385 11.3673 1.45712C11.3673 1.45712 11.6 5.12124 11.7046 6.67994C11.8093 8.30844 12.0071 11.0653 12.1816 13.1474C12.1816 13.1474 12.5189 13.2056 13.0772 13.2288C13.6588 13.2637 13.9264 13.2637 13.9264 13.2637C14.1707 12.3448 14.4615 11.0769 14.7988 10.5302C15.078 10.0882 15.4967 10.0416 15.741 10.0067C16.1132 9.96021 16.4389 9.94857 16.5785 9.94857C16.7297 9.94857 17.0438 9.94857 17.416 10.0067C17.6603 10.0416 18.0791 10.0882 18.3582 10.5302C18.6956 11.0769 18.998 12.3448 19.2306 13.2637C19.2306 13.2637 19.4865 13.2637 20.0681 13.2288C20.6265 13.1939 20.9638 13.1474 20.9638 13.1474C21.1383 11.0653 21.336 8.32007 21.4407 6.67994C21.5454 5.13287 21.7781 1.45712 21.7781 1.45712C21.5803 1.43385 21.3826 1.41059 21.1499 1.39895C20.9755 1.38732 20.58 1.37569 20.58 1.37569Z" fill="black"/>
<path d="M25.1979 3.53918C24.9653 1.21275 23.4066 0.724201 22.0456 0.491558C21.3593 0.375236 20.1379 0.282179 19.3586 0.247283C18.6723 0.200754 17.0671 0.17749 16.5785 0.17749C16.09 0.17749 14.4847 0.200754 13.7984 0.247283C13.0191 0.282179 11.7977 0.375236 11.1114 0.491558C9.75045 0.724201 8.19174 1.21275 7.9591 3.53918C7.88931 4.17894 7.87767 5.00483 7.88931 5.88887C7.91257 7.36615 8.04052 8.35488 8.11032 9.05281C8.15685 9.52973 8.35459 10.9488 8.6105 11.6817C8.95946 12.6937 9.27353 12.9845 9.64576 13.2869C10.3204 13.8336 11.4371 14.0081 11.6697 14.0546C12.926 14.2756 15.4618 14.3222 16.5901 14.3222C17.7068 14.3222 20.2543 14.2873 21.5105 14.0546C21.7432 14.0081 22.8599 13.8452 23.5345 13.2869C23.9068 12.9845 24.2208 12.6937 24.5698 11.6817C24.8257 10.9488 25.0234 9.51809 25.07 9.05281C25.1398 8.36651 25.2677 7.36615 25.291 5.88887C25.2793 4.99319 25.2561 4.16731 25.1979 3.53918ZM24.3371 7.44757C24.1976 9.30872 24.0347 10.4254 23.8021 11.228C23.5927 11.9376 23.3368 12.4029 22.9645 12.7402C22.3364 13.3102 21.4756 13.4265 20.9638 13.5079C19.8704 13.6708 18.0209 13.7289 16.5785 13.7289C15.1245 13.7289 13.2866 13.6708 12.1932 13.5079C11.6814 13.4265 10.8206 13.3102 10.1925 12.7402C9.82024 12.4029 9.56433 11.9259 9.35495 11.228C9.12231 10.4254 8.94783 9.30872 8.81988 7.44757C8.73845 6.33089 8.75008 4.51628 8.87804 3.53918C9.05252 2.07353 9.77371 1.3407 11.3208 1.07316C12.042 0.945211 13.0191 0.852154 13.938 0.805625C14.6825 0.759097 15.8922 0.735833 16.5785 0.735833C17.2532 0.724201 18.4745 0.759097 19.2074 0.805625C20.1263 0.852154 21.1034 0.945211 21.8246 1.07316C23.3717 1.35234 24.0929 2.08516 24.279 3.53918C24.4069 4.50464 24.4186 6.31926 24.3371 7.44757Z" fill="black"/>
</svg>
