<svg width="33" height="7" viewBox="0 0 33 7" fill="none" xmlns="http://www.w3.org/2000/svg">
<g clip-path="url(#clip0_601_24589)">
<path d="M14.4919 6.20314C14.6053 6.20314 15.2949 6.19945 15.8516 6.1607C16.5244 6.11374 16.8711 5.88306 17.1252 5.55251C17.4404 5.14343 17.4383 4.37633 17.4379 3.77942C17.4375 3.11279 17.4467 1.1814 17.4439 1.00915C17.4416 0.836295 17.3762 0.746482 17.1785 0.748122C16.9806 0.749353 16.4227 0.748122 16.2312 0.749763L15.89 0.748122C15.6921 0.746482 15.6269 0.836295 15.624 1.00915V1.19432C15.6269 1.39876 15.6214 3.34737 15.6205 3.80423V4.00662C15.6152 4.42739 15.5639 4.83667 14.9689 4.90003C14.7122 4.9271 14.5944 4.9392 14.2764 4.9392C13.958 4.9392 13.8407 4.9271 13.5805 4.90003C12.9856 4.83749 12.9495 4.42739 12.944 4.00662V3.80423C12.9432 3.34737 12.9376 1.39876 12.9401 1.19432V1.00915C12.9376 0.836295 12.872 0.746482 12.6745 0.748122L12.3329 0.749763C12.1414 0.748122 11.5839 0.749352 11.3858 0.748122C11.1883 0.746482 11.1229 0.836295 11.1206 1.00915C11.1178 1.1814 11.1198 3.11279 11.119 3.77942C11.1186 4.37633 11.117 5.14343 11.4317 5.55251C11.6852 5.88306 12.0272 6.11374 12.6977 6.1607C13.2544 6.19986 13.9235 6.20314 14.0718 6.20314H14.4919H14.4919ZM2.39934 5.95253C2.39544 6.14015 2.34008 6.21418 2.14794 6.21869C1.95519 6.22422 1.01215 6.22115 0.840319 6.21971C0.669305 6.21787 0.563907 6.16599 0.563497 5.98247C0.562267 5.79915 0.562267 1.18977 0.561037 1.01465C0.560627 0.840355 0.642853 0.757719 0.823504 0.763255C1.00375 0.767561 1.92997 0.758334 2.17583 0.76264C2.36181 0.761205 2.40549 0.868448 2.4061 1.05997C2.41061 1.31751 2.40385 5.76593 2.39934 5.95253M28.0951 4.08784C28.0986 4.5205 28.2032 4.81003 28.699 4.88713C29.096 4.92815 29.633 4.93655 30.0452 4.89472C30.4225 4.8533 30.713 4.70033 30.7301 4.27321C30.7491 3.91252 30.7508 3.85039 30.752 3.47001C30.7541 2.54687 30.744 1.20603 30.7471 1.07438L30.7487 1.0184C30.7456 0.813965 30.8389 0.727637 31.012 0.727637L31.1156 0.724152C31.3126 0.725792 32.1056 0.727637 32.2975 0.727637C32.4705 0.727637 32.5638 0.813965 32.561 1.0184L32.5585 1.08217C32.5622 1.27492 32.5563 3.31704 32.5542 3.9197C32.5433 4.22235 32.5218 4.92733 32.2887 5.37434C32.0857 5.7623 31.7223 6.06065 31.1045 6.12196C29.917 6.24028 28.8343 6.19107 28.0006 6.15621C27.3809 6.12422 26.9817 5.9854 26.6505 5.61733C26.2757 5.19533 26.256 4.47416 26.2615 3.64698C26.2544 1.8218 26.2488 1.29584 26.2517 1.12175V1.0184C26.2488 0.813965 26.3421 0.727637 26.5152 0.727637L26.6181 0.724152C26.817 0.725792 27.6397 0.727637 27.832 0.727637C28.0045 0.727637 28.0986 0.813965 28.0951 1.0184C28.0923 1.22366 28.0943 3.56106 28.0951 4.07595M18.8585 0.743816C19.0439 0.73828 22.3592 0.742176 23.3957 0.747917C24.3135 0.75817 24.6529 0.888788 24.902 1.2222C25.1895 1.6075 25.2193 2.09019 24.9869 2.48738C24.8202 2.7722 24.5118 3.02072 24.0492 3.24649C23.682 3.43513 23.0389 3.72139 22.4104 3.998C21.5687 4.36977 20.8065 4.6917 20.6784 4.75875C20.5049 4.84979 20.5705 4.98615 20.7083 4.9841C21.068 4.9798 24.5407 4.9515 24.7261 4.95109C24.9123 4.9509 24.9728 5.01794 24.9728 5.21786C24.9724 5.42702 24.9744 5.78463 24.9748 5.94683C24.9705 6.14183 24.9084 6.19515 24.7236 6.19699C24.5126 6.19925 20.8133 6.20027 20.5502 6.2015C19.9654 6.20007 19.3632 6.20232 19.0039 6.02823C18.5552 5.81026 18.4035 5.37329 18.4031 5.06695C18.4244 4.32035 18.8405 4.08126 19.5902 3.7339C20.4237 3.35557 22.8843 2.29114 23.0309 2.22307C23.2126 2.13838 23.1562 1.97188 22.9877 1.97741C22.8583 1.98008 19.0892 1.99935 18.903 1.99915C18.7174 1.99854 18.5993 1.9686 18.5993 1.78856C18.5997 1.60934 18.5977 1.15987 18.5977 0.97491C18.5977 0.789133 18.6723 0.749762 18.8585 0.743816M9.12446 3.55138C8.29071 3.20505 5.85796 2.43548 5.53521 2.27575C5.37978 2.2089 5.39024 2.01041 5.60062 2.01041C5.95987 2.01574 9.52574 2.02271 9.71193 2.02394C9.89791 2.02435 9.97624 1.95197 9.97624 1.75163C9.97706 1.54268 9.9756 1.15923 9.97317 0.990884C9.97071 0.819665 9.90898 0.754869 9.75519 0.754458C9.60141 0.754458 5.48312 0.75938 5.48312 0.75938C4.3338 0.756714 4.03894 0.925883 3.71331 1.31692C3.28885 1.82709 3.42378 2.51771 3.66738 2.87388C3.94174 3.2723 4.3947 3.44844 5.11546 3.70066C5.98858 3.98466 8.04485 4.70788 8.04485 4.70788C8.23329 4.78928 8.21894 4.98675 7.9862 4.98675C7.9862 4.98675 4.06375 4.95148 3.87797 4.95107C3.69178 4.95088 3.60094 5.0417 3.60012 5.22154C3.60012 5.40137 3.59848 5.73089 3.59766 5.91789C3.59766 6.10285 3.65139 6.20845 3.83757 6.21502C4.02253 6.22137 7.39524 6.20866 8.4324 6.20661C9.22144 6.20456 9.98362 5.96075 10.1401 5.08928C10.2338 4.33837 9.91596 3.8729 9.12445 3.55138" fill="#E60012"/>
</g>
<defs>
<clipPath id="clip0_601_24589">
<rect width="32" height="5.49773" fill="white" transform="translate(0.561035 0.724152)"/>
</clipPath>
</defs>
</svg>
