<svg width="33" height="14" viewBox="0 0 33 14" fill="none" xmlns="http://www.w3.org/2000/svg">
<path d="M27.2488 7.15969C27.2227 8.59518 27.5328 9.35554 28.7161 9.35554C29.8975 9.35554 30.0671 8.06031 30.0671 7.0747C30.0671 6.08843 29.8429 5.13099 28.6016 5.13099C27.8402 5.13099 27.278 5.72267 27.2488 7.15969ZM24.8547 13.1584V3.44139H27.278C27.278 3.44139 27.278 3.5821 27.278 3.83555C27.278 4.36132 27.4901 4.14451 27.6609 3.93962C27.6895 3.90537 28.2296 3.24431 29.4459 3.24431C30.6585 3.24431 32.545 4.089 32.545 7.0747C32.545 9.38416 31.4195 11.0738 29.4758 11.0738C28.4048 11.0738 27.7856 10.6521 27.644 10.4819C27.5022 10.3141 27.3053 10.2848 27.3053 10.4819C27.3053 10.6794 27.3053 13.1584 27.3053 13.1584H24.8547Z" fill="#231F20"/>
<path d="M6.12498 0.28767H8.74448C8.74448 0.28767 8.74448 5.97633 8.74448 7.15968C8.74448 8.34173 8.23693 10.821 4.60427 10.821C0.971187 10.821 0.577026 8.51019 0.577026 7.21562V5.94836H3.11197C3.11197 5.94836 3.11197 6.42708 3.11197 7.187C3.11197 7.94735 3.61909 8.65112 4.57609 8.65112C5.53352 8.65112 6.12498 8.11625 6.12498 7.21562C6.12498 6.31434 6.12498 0.28767 6.12498 0.28767Z" fill="#231F20"/>
<path d="M14.2226 6.11726C14.2226 5.41241 13.8291 4.73661 12.9278 4.73661C12.0547 4.73661 11.7447 5.3556 11.7447 6.11726H14.2226ZM12.6752 3.15975C14.7323 3.15975 16.534 3.94807 16.534 7.58138H11.6621C11.6621 8.73611 12.1403 9.21504 12.9852 9.21504C13.8304 9.21504 14.1118 8.53859 14.1118 8.53859H16.5065C16.5065 9.58102 15.0699 10.9892 12.9007 10.9612C10.423 10.9612 9.21167 9.13049 9.21167 7.24337C9.21167 5.35561 10.2812 3.15975 12.6752 3.15975Z" fill="#231F20"/>
<path d="M22.0111 6.11726C22.0111 5.41241 21.6171 4.73661 20.7159 4.73661C19.8432 4.73661 19.5325 5.3556 19.5325 6.11726H22.0111ZM20.4637 3.15975C22.5206 3.15975 24.3218 3.94807 24.3218 7.58138H19.4501C19.4501 8.73611 19.9288 9.21504 20.7744 9.21504C21.6186 9.21504 21.9005 8.53859 21.9005 8.53859H24.2952C24.2952 9.58102 22.8584 10.9892 20.6898 10.9612C18.2108 10.9612 16.9995 9.13049 16.9995 7.24337C16.9995 5.35561 18.0703 3.15975 20.4637 3.15975Z" fill="#231F20"/>
<path d="M30.941 11.9935C30.941 11.6086 31.2543 11.296 31.6404 11.296C32.0253 11.296 32.3379 11.6086 32.3379 11.9935C32.3379 12.3777 32.0253 12.6923 31.6404 12.6923C31.2543 12.6923 30.941 12.3777 30.941 11.9935ZM30.8604 11.9935C30.8604 12.4241 31.209 12.7736 31.6404 12.7736C32.0691 12.7736 32.4196 12.4241 32.4196 11.9935C32.4196 11.5629 32.0691 11.2134 31.6404 11.2134C31.209 11.2134 30.8604 11.5629 30.8604 11.9935Z" fill="#231F20"/>
<path d="M31.9529 12.3924L31.791 12.0099C31.8424 11.9922 31.8595 11.9796 31.8868 11.9503C31.9224 11.9122 31.9447 11.8519 31.9447 11.7973C31.9447 11.6594 31.8387 11.5655 31.685 11.5655H31.3597V12.3924H31.4562V12.0342H31.6912L31.8456 12.3924H31.9529ZM31.4536 11.9503V11.6555H31.683C31.7788 11.6555 31.8398 11.7101 31.8398 11.7946C31.8398 11.8907 31.7751 11.9503 31.6696 11.9503H31.4536Z" fill="#231F20"/>
</svg>
