<svg width="33" height="20" viewBox="0 0 33 20" fill="none" xmlns="http://www.w3.org/2000/svg">
<path d="M2.20531 19.6675C1.46506 19.5532 1.01614 19.2807 0.834735 18.7759L0.73822 18.5073L0.591797 17.1496V15.7519L1.24853 15.7417C1.83303 15.7326 1.91045 15.7385 1.95236 15.7954C1.98785 15.8436 1.99946 16.158 1.99946 17.0704C1.99946 18.2152 2.00367 18.2901 2.07642 18.4393C2.11875 18.5262 2.21167 18.6413 2.2829 18.6953C2.55827 18.9038 2.5331 18.9014 4.39128 18.9012H6.10984L6.25359 18.6231C6.33459 18.4665 6.50258 18.2322 6.63836 18.0866C6.77091 17.9445 6.87936 17.8187 6.87936 17.807C6.87936 17.7953 6.68932 17.7811 6.45706 17.7753L6.03476 17.7647L6.0434 17.6217C6.0635 17.289 6.50441 16.655 6.95516 16.3106C7.07952 16.2156 7.30338 16.0818 7.45261 16.0134C7.9753 15.7736 8.02341 15.7706 11.3036 15.7717L14.2555 15.7728L15.1478 16.424C15.6385 16.7822 16.0581 17.0752 16.0802 17.0752C16.1302 17.0752 17.4908 16.239 17.8961 15.9591L18.1959 15.7521L19.3409 15.7553C20.5106 15.7587 20.4828 15.7577 20.5333 15.7846C20.6068 15.8236 20.5806 15.8461 20.5806 17.0964C20.5806 18.1691 20.5902 18.4049 20.6383 18.5193C20.7132 18.6972 20.7905 18.7795 20.9747 18.8775C21.1192 18.9544 21.1776 18.9579 22.5106 18.9693C23.2727 18.9758 23.9355 18.9713 23.9835 18.9593L24.0708 18.9376L24.0806 17.3821L24.0904 15.8266H24.7848H25.4793L25.498 17.3734L25.5168 18.9202L28.0358 18.9297L30.5548 18.9393L30.6586 18.8583C30.7157 18.8137 30.7859 18.7213 30.8147 18.653C30.8593 18.5469 30.8593 18.5107 30.8147 18.4046C30.7859 18.3363 30.7159 18.2441 30.659 18.1996L30.5555 18.1188H28.2566C26.2595 18.1188 25.9516 18.1115 25.911 18.063C25.8509 17.9911 25.913 17.5449 26.0241 17.2502C26.1099 17.0223 26.3226 16.6796 26.5089 16.469C26.6917 16.2622 27.1378 15.9821 27.4331 15.8887C27.6917 15.8068 27.7134 15.8062 29.8524 15.8164L32.0108 15.8266L32.0218 16.1589C32.0297 16.3996 32.0194 16.4996 31.9842 16.5218C31.9576 16.5386 31.0947 16.5525 30.0668 16.5529C28.2914 16.5535 28.1906 16.557 28.0549 16.6258C27.8114 16.7491 27.5249 17.1475 27.579 17.2876C27.5941 17.3266 27.957 17.3361 29.4177 17.3361C30.6222 17.3361 31.3049 17.3503 31.4365 17.378C31.7307 17.44 31.9602 17.5695 32.153 17.7824C32.3755 18.0282 32.4551 18.2622 32.436 18.6155C32.4052 19.1878 32.0285 19.585 31.4241 19.6824C31.0823 19.7375 20.7444 19.7358 20.3861 19.6807C19.7636 19.5847 19.4463 19.3996 19.2596 19.0233L19.1354 18.7729L19.1166 17.4892C19.1044 16.6526 19.0843 16.201 19.059 16.1926C18.9691 16.163 16.8268 17.5273 16.8268 17.6142L19.4968 19.7683C19.4968 19.7902 19.0289 19.6842 18.4162 19.6842H17.4155L16.5244 19.0506C16.0342 18.7021 15.6096 18.417 15.5808 18.417C15.5294 18.417 14.0348 19.317 13.6418 19.5847L13.4409 19.7215L7.97356 19.7178C3.80997 19.715 2.43446 19.703 2.20531 19.6676V19.6675ZM12.8932 19.0853C13.0231 19.0019 13.501 18.7034 13.9552 18.4218C14.4094 18.1403 14.781 17.8906 14.781 17.8671C14.781 17.828 12.8773 16.3561 12.5616 16.0774C12.4473 15.9765 12.3076 16.2608 12.3738 16.3709L12.2165 16.5479L10.483 16.5533C8.59196 16.5591 8.5465 16.5737 8.39963 16.6524C8.17839 16.7709 7.6775 17.2175 7.6775 17.3549C7.6775 17.4176 8.08056 17.3946 10.0068 17.3951C11.1268 17.3958 12.0782 17.3929 12.0782 17.3929C12.0716 17.4262 12.0758 17.7997 12.0758 17.7997L12.0783 18.0628L10.3516 18.0814C8.48966 18.1015 8.58223 18.0911 8.29836 18.312C8.14414 18.432 7.81567 18.8761 7.87243 18.9325L12.5287 18.92L12.5403 19.2914C12.5487 19.5625 12.5915 19.2789 12.8932 19.0853L12.8932 19.0853Z" fill="url(#paint0_linear_601_1152)"/>
<path d="M0.605103 15.726V16.079H2.07849V15.726H0.605103ZM23.8799 15.747V16.1011H25.4942V15.747H23.8799ZM18.203 15.7482L18.0714 15.8402H18.5979C18.7716 15.836 18.8908 15.8455 18.9787 15.8612L18.9776 16.1069H20.5255V15.7493L19.8453 15.7587C19.215 15.7541 18.769 15.751 18.203 15.7482H18.203ZM11.9391 15.7691C11.6257 15.7698 11.2627 15.7712 10.8443 15.7727C8.25404 15.782 8.04469 15.7867 7.95921 15.8472C7.95921 15.8737 7.8406 15.9227 8.13625 15.902C8.18006 15.8989 8.19981 15.9067 8.26321 15.8996C8.67447 15.9062 9.33435 15.8926 10.7627 15.8926C12.3662 15.8926 13.6981 15.8998 13.6979 15.8845C13.6969 15.8349 13.7849 15.8059 13.5884 15.789C13.374 15.7705 12.8793 15.7672 11.9391 15.7692V15.7691ZM30.6272 15.7994C30.3825 15.8001 30.0991 15.8015 29.7723 15.803C27.7495 15.8122 27.5853 15.8182 27.5185 15.8787C27.5185 15.9051 27.4263 15.953 27.6572 15.9322C27.6914 15.9292 27.7066 15.9382 27.7562 15.9311C28.0773 15.9376 28.5928 15.9241 29.7082 15.9241C30.9605 15.9241 32.0007 15.9313 32.0004 15.9159C31.9997 15.8664 32.0677 15.8373 31.9142 15.8204C31.7468 15.802 31.3614 15.7975 30.6272 15.7995V15.7994Z" fill="url(#paint1_linear_601_1152)"/>
<path d="M27.1646 17.3647C27.0705 17.2122 27.3906 16.7832 27.7468 16.5854C28.15 16.3615 28.3084 16.3462 30.2323 16.3457L32.0301 16.367L32.0579 16.6592C31.9642 16.6638 31.6081 16.665 30.1958 16.6665C28.1212 16.6686 28.0981 16.6709 27.8126 16.9059C27.7209 16.9813 27.6267 17.0978 27.5986 17.1702C27.5794 17.22 27.5802 17.262 27.5477 17.2928C27.4647 17.3353 27.3673 17.3745 27.2906 17.3947C27.2561 17.4037 27.2208 17.428 27.1998 17.4172C27.1852 17.4098 27.194 17.4097 27.1809 17.3919L27.1646 17.3647Z" fill="url(#paint2_linear_601_1152)"/>
<path d="M7.15644 17.6344C7.15579 17.5946 7.18378 17.4804 7.22172 17.3672C7.31949 17.0757 7.56494 16.7954 7.88758 16.6068C8.27551 16.38 8.38137 16.3704 10.5053 16.3683C11.682 16.3671 12.3689 16.3683 12.3689 16.3683C12.3689 16.3683 12.3689 16.4637 12.3689 16.5365C12.3689 16.6022 12.3689 16.7133 12.3689 16.7133C12.2775 16.7022 11.6353 16.7157 10.5213 16.7157C8.57557 16.7157 8.48294 16.7097 8.20637 16.8794C8.13821 16.9212 8.01471 17.0289 7.93915 17.1151C7.8386 17.23 7.73941 17.333 7.68958 17.4488C7.59963 17.5287 7.48431 17.5309 7.39851 17.5704C7.22427 17.6507 7.15088 17.6663 7.15088 17.6663L7.15644 17.6344Z" fill="url(#paint3_linear_601_1152)"/>
<path d="M30.7622 18.6962C30.8148 18.4866 30.5506 18.2088 30.2537 18.1418C30.1805 18.1253 29.2163 18.1206 28.111 18.1313C27.0058 18.142 26.0419 18.1264 25.9663 18.1254C25.8869 18.1243 25.8557 18.1311 25.8407 18.1135C25.8112 18.0791 25.8809 17.9954 26.0188 17.89L26.1771 17.7689L28.1217 17.7709C30.27 17.7731 30.5759 17.7899 30.7519 17.9152C31.0517 18.1287 31.1732 18.4755 31.0174 18.6729C30.9151 18.8025 30.6297 18.9813 30.566 18.9419C30.7245 18.8122 30.7153 18.8179 30.7622 18.6962Z" fill="url(#paint4_linear_601_1152)"/>
<path d="M24.0433 19.0201C23.9821 18.9854 23.8914 18.988 23.878 18.9533C23.8647 18.9186 23.8605 18.1568 23.8605 17.3174C23.8605 16.2455 23.8579 15.9102 23.8484 15.7371C23.901 15.7344 24.0253 15.7916 24.131 15.8973L24.3016 16.1056L24.2903 18.9495C24.29 19.0082 24.2966 19.0681 24.2889 19.1269C24.1818 19.0805 24.1169 19.0522 24.0433 19.0201H24.0433Z" fill="url(#paint5_linear_601_1152)"/>
<path d="M7.321 19.099C7.321 19.099 7.30087 18.8921 7.37729 18.6882C7.45888 18.4705 7.76304 18.159 8.00089 18.0494C8.36747 17.8806 8.44716 17.8745 10.2632 17.874C11.5227 17.8734 12.0719 17.8835 12.0719 17.8835L12.0843 18.2161C12.0843 18.2161 11.409 18.2173 10.3515 18.2174C9.33554 18.2174 8.65682 18.2312 8.57091 18.2532C8.29999 18.3225 8.01121 18.603 7.90328 18.9015C7.88553 18.9506 7.38554 19.0941 7.34453 19.112L7.321 19.099Z" fill="url(#paint6_linear_601_1152)"/>
<path d="M20.562 19.7387C20.2519 19.699 19.7215 19.5178 19.5326 19.387C19.3936 19.2908 19.2122 19.0847 19.1291 18.9286C19.0236 18.7304 18.9805 18.2722 18.9792 17.3331C18.9785 16.8167 18.9824 16.3759 18.9649 16.3651C18.9474 16.3543 18.5283 16.5956 18.0565 16.8897C17.1736 17.4402 16.9203 17.6098 16.7488 17.6887L16.0588 17.6921C16.1481 17.6087 18.7616 15.9469 18.8993 15.8894C18.994 15.8498 18.9322 15.8396 18.9774 15.8655C19.0441 15.9037 19.2642 15.9858 19.2909 16.0479C19.338 16.1581 19.3014 16.3844 19.3153 17.1618C19.3397 18.5273 19.3548 18.6019 19.6668 18.9066C19.7978 19.0344 19.9505 19.1359 20.12 19.2075C20.12 19.2075 20.3018 19.2622 20.3944 19.2827C20.4597 19.2971 20.5923 19.316 20.5923 19.316L25.7396 19.3255L31.017 19.3288C31.017 19.3288 31.1414 19.3091 31.2007 19.2887C31.246 19.2731 31.2871 19.2471 31.3303 19.2264C32.0105 18.8991 32.2467 18.4557 32.0022 17.9649C31.9497 17.8597 31.8396 17.7129 31.7575 17.6387C31.6753 17.5645 31.5535 17.4483 31.5599 17.4293C31.5777 17.3773 31.9893 17.5941 32.1123 17.7169C32.4198 18.0238 32.5499 18.6405 32.3487 19.0517C32.142 19.4742 31.7234 19.694 31.1358 19.7465C30.6596 19.7891 20.8991 19.7818 20.562 19.7386V19.7387Z" fill="url(#paint7_linear_601_1152)"/>
<path d="M2.18719 19.7258C1.78973 19.6692 1.60786 19.6068 1.33901 19.4348C1.07925 19.2687 0.882401 19.0384 0.743267 18.7379C0.718614 18.6847 0.690125 18.6329 0.670633 18.5776C0.654022 18.5304 0.641917 18.4816 0.633241 18.4323C0.616034 18.3347 0.609921 18.2352 0.604467 18.1362C0.587467 17.8277 0.592234 17.2093 0.592234 17.2093L0.578976 15.8209C0.578581 15.7795 0.575562 15.7212 0.575562 15.7212C0.575562 15.7212 0.726865 15.7983 0.83536 15.8917L1.03593 16.0646L1.03719 17.0294C1.03858 18.103 1.05851 18.2274 1.22509 18.5808C1.32529 18.7933 1.54412 18.9823 1.89741 19.1613C2.31289 19.3719 2.30337 19.3715 7.53542 19.3715H12.3335L12.5743 19.1945C12.7068 19.0971 13.2206 18.7659 13.716 18.4584C14.2114 18.1509 14.6168 17.8815 14.617 17.8597C14.6174 17.7804 14.391 17.6087 12.7068 16.411C12.3823 16.1802 12.1325 16.0136 12.0063 15.8984C12.1269 15.9014 12.4027 15.9053 12.5754 15.9055L12.8468 15.9056L13.6668 16.4896C14.1178 16.8107 14.6545 17.1933 14.8594 17.3397C15.0644 17.4862 15.3452 17.7022 15.3184 17.7195L14.2818 18.3847C13.9663 18.5871 13.6202 18.8002 13.5177 18.8664C13.4152 18.9326 13.2097 19.0651 13.0611 19.1608C12.9125 19.2565 12.7809 19.3748 12.7809 19.3951C12.8109 19.4133 12.9197 19.4086 13.0984 19.4085L13.4059 19.4078L14.4583 18.7213C15.0371 18.3437 15.5439 18.0243 15.5844 18.0114C15.6868 17.9789 15.7201 17.9994 16.7044 18.7C17.1861 19.0429 17.6326 19.3828 17.6736 19.4036C17.7146 19.4244 17.9306 19.4086 18.1766 19.4202C18.355 19.4286 18.4514 19.4175 18.5712 19.4377C19.2089 19.6705 18.647 19.4676 19.4824 19.774L17.3176 19.7762C17.2028 19.7161 16.141 18.9508 15.8486 18.7134C15.7146 18.6045 15.5813 18.5152 15.5524 18.5147C15.5235 18.5141 15.3474 18.6185 15.161 18.7462C14.9747 18.8739 14.555 19.159 14.2283 19.3798L13.6345 19.7812L8.07854 19.7772C3.77704 19.7742 2.44689 19.7625 2.18719 19.7255V19.7258Z" fill="url(#paint8_linear_601_1152)"/>
<path d="M20.6899 18.8856C20.4498 18.8209 20.2834 18.6987 20.2153 18.6062C20.1712 18.5463 20.1689 18.5584 20.1578 18.5248C20.1474 18.4933 20.1226 18.439 20.1177 18.4063C20.0676 18.0733 20.0715 17.2842 20.0715 17.2842V16.1363L20.2795 15.951C20.394 15.8491 20.4942 15.7591 20.5023 15.7511C20.5103 15.743 20.5237 15.7483 20.5549 15.7742C20.6038 15.8148 20.5835 16.0333 20.5836 17.1774C20.5836 18.6887 20.704 18.7277 21.0249 18.9157C21.164 18.9524 20.8836 18.9413 20.6899 18.8856ZM2.06098 18.8075C1.85582 18.7578 1.67936 18.5818 1.643 18.4803L1.59591 18.3489C1.56497 17.5909 1.54358 16.8452 1.54358 16.065L1.6912 15.9176C1.85645 15.7525 2.06495 15.7219 2.06495 15.7219C2.07873 15.7505 2.07453 16.3705 2.07996 17.0966C2.09178 18.6774 2.06874 18.5612 2.40777 18.749C2.504 18.8023 2.69174 18.8536 2.68106 18.8712C2.65829 18.9087 2.22431 18.8471 2.06098 18.8075ZM24.9913 17.5958V16.0902L25.1222 15.9752C25.2651 15.8498 25.4724 15.7312 25.5002 15.759C25.5235 15.7823 25.5294 18.8639 25.5059 18.9251C25.4959 18.9513 25.3927 19.0017 25.293 19.0371C25.1602 19.0842 25.0066 19.1263 25.0094 19.1113C24.9893 19.1273 24.9913 18.6098 24.9913 17.5958H24.9913Z" fill="url(#paint9_linear_601_1152)"/>
<path d="M25.8283 18.117C25.8295 17.9259 25.9455 17.3473 26.1055 17.0198C26.3079 16.6056 26.6687 16.2077 26.9996 16.0339C27.1265 15.9673 27.2501 15.9127 27.2743 15.9125C27.4089 15.8722 27.6164 15.8352 27.794 15.8205C27.6624 15.8794 27.5522 15.9136 27.4008 16.0021C27.195 16.1146 27.0118 16.2136 26.7278 16.5609C26.6264 16.6848 26.5504 16.7911 26.4745 17.0042C26.373 17.2889 26.3452 17.5806 26.3167 17.7642C26.218 17.8179 26.225 17.8429 25.8283 18.117ZM5.92322 17.7498C5.92322 17.616 6.10143 17.2029 6.31241 16.8479C6.55605 16.438 6.77918 16.2399 7.19231 16.0665C7.49689 15.9386 8.04945 15.8091 8.19167 15.813C8.27743 15.8154 7.95534 15.924 7.77451 15.9911C7.45678 16.1092 7.26816 16.251 6.99182 16.5293C6.82069 16.7016 6.64954 16.9231 6.40449 17.5353L6.32794 17.7764L6.10894 17.773C5.95257 17.7707 5.94984 17.7659 5.92322 17.7498V17.7498ZM13.4678 15.7721L14.2532 15.7711C15.2999 16.5438 15.8904 16.9442 16.0776 17.0789L15.6293 17.3562C14.6265 16.6363 14.3391 16.3989 13.4678 15.772V15.7721Z" fill="url(#paint10_linear_601_1152)"/>
<path d="M16.782 18.2124L16.0748 17.6872H16.4373C16.6366 17.6872 16.8193 17.6073 16.8487 17.633C16.8487 17.633 17.4342 18.1091 19.4936 19.7582C18.1656 19.4175 17.7833 18.9561 16.782 18.2124Z" fill="url(#paint11_linear_601_1152)"/>
<path d="M6.16608 18.9372C6.10395 18.8936 6.10672 18.876 6.21304 18.639C6.34136 18.353 6.80207 17.841 6.98882 17.7158C7.06093 17.6674 7.17321 17.5944 7.2757 17.5565C7.3782 17.5187 7.47518 17.4723 7.5622 17.4386C7.6145 17.4184 7.71855 17.3905 7.90829 17.3922L8.20749 17.395L8.02113 17.4614C7.66844 17.5871 7.42483 17.7359 7.16932 17.9817C6.87685 18.2631 6.70025 18.5199 6.56226 18.8647C6.50941 18.9967 6.46477 19.1019 6.45155 19.1101C6.34227 19.1076 6.25926 19.0014 6.16608 18.9372V18.9372Z" fill="url(#paint12_linear_601_1152)"/>
<path d="M15.0918 13.7321C13.7433 13.5906 12.4814 13.2301 11.2416 12.6321C10.2083 12.1337 9.55172 11.6739 8.85112 10.9579C8.06542 10.155 7.68222 9.56781 7.32302 8.61639C6.89369 7.47922 7.04284 5.95797 7.7136 4.63259C8.27846 3.51646 8.98717 2.73435 10.0992 1.99984C10.5128 1.72667 11.5381 1.20076 11.8075 1.12355C11.9976 1.06909 11.7133 1.17573 11.3885 1.36362C11.1881 1.47466 11.0643 1.54317 10.8794 1.65286C10.4498 1.91467 10.3385 2.00739 9.89294 2.36656C8.67556 3.34801 7.91958 4.51215 7.64833 5.82307C7.55967 6.25153 7.55967 7.21156 7.64833 7.64001C7.96993 9.19428 8.90444 10.4678 10.4983 11.5237C11.4151 12.1311 12.4778 12.5784 13.7167 12.8782C14.7638 13.1316 15.1588 13.1723 16.5726 13.1723C17.603 13.1723 17.9374 13.1576 18.3496 13.0944C19.6661 12.8923 21.0693 12.4369 22.0093 11.9067C22.7784 11.4729 23.0341 11.3218 23.1035 11.2599C23.1431 11.2246 23.3206 11.1306 23.4979 11.0509C23.7104 10.9555 23.8614 10.8554 23.9408 10.7573C24.0591 10.6113 24.0671 10.6085 24.3681 10.6085C24.5484 10.6085 24.8247 10.3477 24.8247 10.3727C24.4731 10.8744 23.8917 11.4324 23.5616 11.6863C23.0714 12.0645 22.6864 12.323 21.9882 12.6552C20.8137 13.2139 19.852 13.5402 18.3707 13.7182C17.285 13.8488 16.1297 13.8412 15.0918 13.7321Z" fill="url(#paint13_linear_601_1152)"/>
<path d="M14.9978 13.066C14.2189 12.9831 13.0763 12.7351 12.473 12.5179C12.0459 12.3643 11.1417 11.9691 10.9074 11.8337C10.6475 11.6835 10.0148 11.2129 9.64601 10.8955C9.16777 10.4839 8.40113 9.51764 8.46755 9.41018C8.48654 9.37945 8.82983 9.25163 8.89278 9.25163C8.90417 9.25163 8.96755 9.34617 9.04288 9.48022C9.38525 10.0895 9.89485 10.6364 10.4623 11.0991C11.2217 11.7182 11.7692 11.9919 12.8784 12.307C15.1662 12.9568 17.8281 12.9266 19.9572 12.2268C20.7886 11.9535 21.63 11.4969 21.9464 11.1472C22.0322 11.0524 22.7129 10.8124 22.7606 10.8602C22.8208 10.9203 22.6608 11.124 22.3309 11.4075C21.7429 11.9126 20.2805 12.5426 19.1094 12.7954C18.0558 13.0227 17.6844 13.0607 16.3966 13.0726C15.7205 13.0789 15.0911 13.0759 14.9978 13.066Z" fill="url(#paint14_linear_601_1152)"/>
<path d="M10.8556 11.6237C10.5127 11.5147 10.3237 11.4068 9.90186 11.0794C8.97473 10.3596 8.30454 9.44833 8.00867 8.50516C7.83391 7.94804 7.79415 7.58311 7.8203 6.77614C7.84036 6.1569 7.86079 5.98938 7.95553 5.66755C8.19158 4.86558 8.51896 4.25574 9.06625 3.59846C10.3065 2.10901 12.6232 0.985324 14.9814 0.729373C15.6344 0.658505 16.8545 0.652368 17.0422 0.719007C17.2352 0.787495 17.437 1.01087 17.5019 1.22774C17.5447 1.37107 17.5391 1.41333 17.4556 1.57743C17.4033 1.68009 17.3061 1.83117 17.2395 1.91316C17.173 1.99515 16.9995 2.21959 16.854 2.41192C16.7085 2.60425 16.3687 3.03343 16.099 3.36564C15.8292 3.69786 15.3899 4.27486 15.1228 4.64788C14.6283 5.33834 13.5456 6.97628 13.3296 7.36069C13.2641 7.47726 13.1475 7.66059 13.0705 7.7681C12.9935 7.87561 12.8614 8.10921 12.7771 8.28721C12.6358 8.58518 12.6249 8.63554 12.6393 8.92212C12.659 9.31211 12.7806 9.51493 13.1296 9.74008C13.6551 10.079 13.1775 10.0523 18.7222 10.0523H23.668L24.0967 9.59025C24.4278 9.23331 24.5585 9.05636 24.671 8.81245C24.8354 8.45595 25.0054 7.89927 25.0789 7.47674C25.1412 7.11821 25.1024 6.15774 25.0156 5.91245C24.8523 5.24853 24.5635 4.59958 24.2071 4.03325C23.5281 2.97272 22.5606 2.13049 21.1622 1.38248C20.914 1.24971 20.28 0.943775 20.2899 0.933897C20.3203 0.903425 21.2644 1.29781 21.73 1.52977C22.88 2.10273 23.8689 2.92292 24.5256 3.8486C25.0124 4.53468 25.4162 5.31546 25.6154 6.10236C25.7262 6.5402 25.7398 6.92127 25.7385 7.39821C25.7358 8.35014 25.5372 8.97523 25.0716 9.88319C24.7449 10.5201 24.6703 10.6017 24.1755 10.8621L23.6274 11.0605L18.7476 11.0908C13.767 11.1217 13.753 11.0905 13.2676 10.9969C12.2289 10.7964 11.8034 10.549 11.5321 9.98749C11.3974 9.70895 11.3674 9.16805 11.4649 8.77907C11.688 7.88892 13.2187 5.51732 15.36 2.74396C15.7678 2.21583 16.1208 1.74751 16.1444 1.70323C16.2573 1.49207 16.1444 1.35228 15.8226 1.30462C15.5981 1.27138 14.4538 1.4495 13.9586 1.59477C12.7479 1.94988 12.2807 2.13075 11.6763 2.47836C10.7665 3.00156 10.0205 3.64412 9.50264 4.35052C8.95033 5.10391 8.73074 5.57783 8.52194 6.46708C8.39848 6.9929 8.42711 7.81395 8.58926 8.39771C8.92726 9.61448 9.64483 10.5603 10.8873 11.4267C11.0793 11.5606 11.2364 11.6781 11.2364 11.6878C11.2364 11.7222 11.0854 11.6968 10.8556 11.6237Z" fill="url(#paint15_linear_601_1152)"/>
<path d="M10.8799 11.6323C10.537 11.5233 10.348 11.4154 9.92615 11.0879C8.99902 10.3682 8.32883 9.45691 8.03297 8.51375C7.8582 7.95663 7.81845 7.5917 7.84459 6.78473C7.86465 6.1655 7.88509 5.99797 7.97982 5.67614C8.21587 4.87417 8.54325 4.26433 9.09055 3.60705C10.3308 2.1176 12.6474 0.993915 15.0057 0.737963C15.6587 0.667096 16.8788 0.660959 17.0665 0.727598C17.2595 0.796085 17.4613 1.01946 17.5262 1.23633C17.569 1.37966 17.5634 1.42193 17.4799 1.58602C17.4276 1.68868 17.3304 1.83976 17.2638 1.92175C17.1973 2.00374 17.0238 2.22818 16.8783 2.42051C16.7328 2.61285 16.393 3.04202 16.1233 3.37424C15.8535 3.70645 15.4142 4.28346 15.1471 4.65647C14.6526 5.34694 13.5699 6.98487 13.3539 7.36928C13.2884 7.48585 13.1718 7.66918 13.0948 7.77669C13.0178 7.8842 12.8857 8.1178 12.8013 8.2958C12.6601 8.59377 12.6492 8.64413 12.6636 8.93071C12.6833 9.3207 12.8048 9.52352 13.1539 9.74867C13.6794 10.0876 13.2018 10.0609 18.7465 10.0609H23.6923L24.121 9.59884C24.4521 9.2419 24.5828 9.06495 24.6953 8.82104C24.8597 8.46454 25.0297 7.90786 25.1032 7.48532C25.1655 7.12679 25.1267 6.16633 25.0399 5.92104C24.8766 5.25712 24.5224 4.66633 24.166 4.10001C23.487 3.03947 22.5849 2.34786 21.1865 1.59985C20.9383 1.46709 19.7101 0.807826 20.3142 0.94249C20.3446 0.912018 21.2887 1.30641 21.7543 1.53836C22.9043 2.11132 23.8932 2.93151 24.5499 3.85719C25.0367 4.54327 25.4405 5.32405 25.6397 6.11095C25.7505 6.54879 25.7641 6.92986 25.7628 7.4068C25.7601 8.35873 25.5615 8.98382 25.0959 9.89178C24.7692 10.5287 24.6946 10.6103 24.1998 10.8707L23.6516 11.0691L18.7719 11.0994C13.7913 11.1303 13.7773 11.0991 13.2919 11.0055C12.2532 10.805 11.8277 10.5575 11.5564 9.99608C11.4217 9.71754 11.3917 9.17664 11.4892 8.78766C11.7123 7.89751 13.243 5.52591 15.3843 2.75255C15.7921 2.22442 16.1451 1.7561 16.1687 1.71182C16.2815 1.50066 16.1687 1.36087 15.8469 1.31321C15.6224 1.27997 14.4781 1.45809 13.9828 1.60336C12.7722 1.95847 12.305 2.13934 11.7006 2.48695C10.7908 3.01015 10.0448 3.65271 9.52694 4.35911C8.97463 5.1125 8.75504 5.58642 8.54623 6.47567C8.42277 7.00149 8.4514 7.82254 8.61355 8.40629C8.95155 9.62307 9.66912 10.5689 10.9116 11.4353C11.1036 11.5691 11.2607 11.6866 11.2607 11.6964C11.2607 11.7308 11.1097 11.7053 10.8799 11.6323Z" fill="url(#paint16_linear_601_1152)"/>
<path d="M10.8799 11.6323C10.537 11.5233 10.348 11.4154 9.92615 11.0879C8.99902 10.3682 8.32883 9.45691 8.03297 8.51375C7.8582 7.95663 7.81845 7.5917 7.84459 6.78473C7.86465 6.1655 7.88509 5.99797 7.97982 5.67614C8.21587 4.87417 8.54325 4.26433 9.09055 3.60705C10.3308 2.1176 12.6474 0.993915 15.0057 0.737963C15.6587 0.667096 16.8788 0.660959 17.0665 0.727598C17.2595 0.796085 17.4613 1.01946 17.5262 1.23633C17.569 1.37966 17.5634 1.42193 17.4799 1.58602C17.4276 1.68868 17.3304 1.83976 17.2638 1.92175C17.1973 2.00374 17.0238 2.22818 16.8783 2.42051C16.7328 2.61285 16.393 3.04202 16.1233 3.37424C15.8535 3.70645 15.4142 4.28346 15.1471 4.65647C14.6526 5.34694 13.5699 6.98487 13.3539 7.36928C13.2884 7.48585 13.1718 7.66918 13.0948 7.77669C13.0178 7.8842 12.8857 8.1178 12.8013 8.2958C12.6601 8.59377 12.6492 8.64413 12.6636 8.93071C12.6833 9.3207 12.8048 9.52352 13.1539 9.74867C13.6794 10.0876 13.2018 10.0609 18.7465 10.0609H23.6923L24.121 9.59884C24.4521 9.2419 24.5828 9.06495 24.6953 8.82104C24.8597 8.46454 25.0297 7.90786 25.1032 7.48532C25.1655 7.12679 25.1267 6.16633 25.0399 5.92104C24.8766 5.25712 24.5878 4.60817 24.2314 4.04185C23.5524 2.98131 22.5849 2.13908 21.1865 1.39107C20.9383 1.2583 20.3043 0.952367 20.3142 0.94249C20.3446 0.912018 21.2887 1.30641 21.7543 1.53836C22.9043 2.11132 23.8932 2.93151 24.5499 3.85719C25.0367 4.54327 25.4405 5.32405 25.6397 6.11095C25.7505 6.54879 25.7641 6.92986 25.7628 7.4068C25.7601 8.35873 25.5615 8.98382 25.0959 9.89178C24.7692 10.5287 24.6946 10.6103 24.1998 10.8707L23.6516 11.0691L18.7719 11.0994C13.7913 11.1303 13.7773 11.0991 13.2919 11.0055C12.2532 10.805 11.8277 10.5575 11.5564 9.99608C11.4217 9.71754 11.3917 9.17664 11.4892 8.78766C11.7123 7.89751 13.243 5.52591 15.3843 2.75255C15.7921 2.22442 16.1451 1.7561 16.1687 1.71182C16.2815 1.50066 16.1687 1.36087 15.8469 1.31321C15.6224 1.27997 14.4781 1.45809 13.9828 1.60336C12.7722 1.95847 12.305 2.13934 11.7006 2.48695C10.7908 3.01015 10.0448 3.65271 9.52694 4.35911C8.97463 5.1125 8.75504 5.58642 8.54623 6.47567C8.42277 7.00149 8.4514 7.82254 8.61355 8.40629C8.95155 9.62307 9.66912 10.5689 10.9116 11.4353C11.1036 11.5691 11.2607 11.6866 11.2607 11.6964C11.2607 11.7308 11.1097 11.7053 10.8799 11.6323Z" fill="url(#paint17_linear_601_1152)"/>
<path d="M7.82034 6.77614C7.8404 6.1569 7.86084 5.98938 7.95557 5.66755C8.19163 4.86558 8.519 4.25574 9.0663 3.59846C10.3065 2.10901 12.6232 0.985324 14.9815 0.729373C15.6344 0.658505 16.8545 0.652368 17.0423 0.719007C17.2352 0.787495 17.4371 1.01087 17.5019 1.22774C17.5448 1.37107 17.5392 1.41333 17.4556 1.57743C17.4033 1.68009 17.3061 1.83117 17.2396 1.91316C17.173 1.99515 16.9995 2.21959 16.854 2.41192C16.7085 2.60425 16.3688 3.03343 16.099 3.36564C15.8293 3.69786 15.39 4.27486 15.1228 4.64788C14.6284 5.33834 13.5457 6.97628 13.3297 7.36069C13.2642 7.47726 13.1476 7.66059 13.0705 7.7681C12.9935 7.87561 12.8615 8.10921 12.7771 8.28721C12.6358 8.58518 12.6249 8.63554 12.6394 8.92212C12.659 9.31211 12.7806 9.51493 13.1297 9.74008C13.6551 10.079 13.1776 10.0523 18.7222 10.0523H23.668L24.0967 9.59025C24.4279 9.23331 24.5586 9.05636 24.6711 8.81245C24.8355 8.45595 25.0055 7.89927 25.0789 7.47674C25.1413 7.11821 25.1024 6.15774 25.0157 5.91245C24.8524 5.24853 24.4832 4.67988 24.1268 4.11356C23.4478 3.05302 22.4804 2.21079 21.082 1.46278C20.8338 1.33002 20.2801 0.943775 20.2899 0.933897C20.3203 0.903425 21.2644 1.29781 21.73 1.52977C22.8801 2.10273 23.8689 2.92292 24.5257 3.8486C25.0125 4.53468 25.4163 5.31546 25.6154 6.10236C25.7262 6.5402 25.7398 6.92127 25.7385 7.39821C25.7358 8.35014 25.5372 8.97523 25.0716 9.88319C24.745 10.5201 24.6703 10.6017 24.1756 10.8621L23.6274 11.0605L18.7476 11.0908C13.767 11.1217 13.7531 11.0905 13.2677 10.9969C12.229 10.7964 11.8034 10.549 11.5321 9.98749C11.3975 9.70895 11.3674 9.16805 11.4649 8.77907C11.688 7.88892 13.2187 5.51732 15.3601 2.74396C15.7678 2.21583 16.1208 1.74751 16.1445 1.70323C16.2573 1.49207 16.1444 1.35228 15.8226 1.30462C15.5982 1.27138 14.4539 1.4495 13.9586 1.59477C12.7479 1.94988 12.2808 2.13075 11.6763 2.47836C10.7666 3.00156 10.0205 3.64412 9.50269 4.35052C8.95038 5.10391 8.7308 5.57783 8.52199 6.46708C8.39852 6.9929 8.42715 7.81395 8.58931 8.39771C7.88534 7.80964 7.8051 7.2882 7.82034 6.77614Z" fill="url(#paint18_linear_601_1152)"/>
<path d="M8.00867 8.50516C7.83391 7.94804 7.79415 7.58311 7.8203 6.77614C7.84036 6.1569 7.86079 5.98938 7.95553 5.66755C8.19158 4.86558 8.51896 4.25574 9.06625 3.59846C10.3065 2.10901 12.6232 0.985324 14.9814 0.729373C15.6344 0.658505 16.8545 0.652368 17.0422 0.719007C17.2352 0.787495 17.437 1.01087 17.5019 1.22774C17.5447 1.37107 17.5391 1.41333 17.4556 1.57743C17.4033 1.68009 17.3061 1.83117 17.2395 1.91316C17.173 1.99515 16.9995 2.21959 16.854 2.41192C16.7085 2.60425 16.3687 3.03343 16.099 3.36564C15.8292 3.69786 15.3899 4.27486 15.1228 4.64788C14.6283 5.33834 13.5456 6.97628 13.3296 7.36069C13.2641 7.47726 13.1475 7.66059 13.0705 7.7681C12.9935 7.87561 12.8614 8.10921 12.777 8.28721C12.6358 8.58518 12.6249 8.63554 12.6393 8.92212C12.659 9.31211 12.7806 9.51493 13.1296 9.74008C13.6551 10.079 13.1775 10.0523 18.7222 10.0523H23.668L24.0967 9.59025C24.4278 9.23331 24.5585 9.05636 24.671 8.81245C24.8354 8.45595 25.0054 7.89927 25.0789 7.47674C25.1412 7.11821 25.1024 6.15774 25.0156 5.91245C24.8523 5.24853 24.5635 4.59958 24.2071 4.03325C23.5281 2.97272 22.5606 2.13049 21.1622 1.38248C20.914 1.24971 20.28 0.943775 20.2899 0.933897C20.3203 0.903425 21.2644 1.29781 21.73 1.52977C22.88 2.10273 23.8689 2.92292 24.5256 3.8486C25.0124 4.53468 25.4162 5.31546 25.6154 6.10236C25.7262 6.5402 25.7398 6.92127 25.7385 7.39821C25.7358 8.35014 25.5372 8.97523 25.0716 9.88319C24.7449 10.5201 24.6703 10.6017 24.1755 10.8621L23.6274 11.0605L18.7476 11.0908C13.767 11.1217 13.753 11.0905 13.2676 10.9969C12.2289 10.7964 11.8034 10.549 11.5321 9.98749C11.3974 9.70895 11.3674 9.16805 11.4649 8.77907C11.688 7.88892 13.2187 5.51732 15.36 2.74396C15.7678 2.21583 16.1208 1.74751 16.1444 1.70323C16.2572 1.49207 16.1444 1.35228 15.8226 1.30462C15.5981 1.27138 14.4538 1.4495 13.9586 1.59477C12.7479 1.94988 12.2807 2.13075 11.6763 2.47836C10.7665 3.00156 10.0205 3.64412 9.50264 4.35052C8.95033 5.10391 8.73074 5.57783 8.52194 6.46708C8.39848 6.9929 8.42711 7.81395 8.58926 8.39771C8.39178 8.51339 8.91929 9.3179 8.00867 8.50516Z" fill="url(#paint19_linear_601_1152)"/>
<path d="M8.05518 8.4586C7.88042 7.90148 7.84066 7.53656 7.86681 6.72959C7.88687 6.11035 7.9073 5.94283 8.00203 5.621C8.23809 4.81903 8.56547 4.20918 9.11276 3.5519C10.353 2.06245 12.6697 0.93877 15.0279 0.682818C15.6809 0.611951 16.901 0.605814 17.0887 0.672452C17.2817 0.74094 17.4835 0.964313 17.5484 1.18119C17.5913 1.32452 17.5857 1.36678 17.5021 1.53087C17.4498 1.63353 17.3526 1.78461 17.286 1.8666C17.2195 1.94859 17.046 2.17304 16.9005 2.36537C16.755 2.5577 16.4152 2.98688 16.1455 3.31909C15.8757 3.65131 15.4364 4.22831 15.1693 4.60132C14.6748 5.29179 13.5921 6.92972 13.3761 7.31413C13.3106 7.4307 13.194 7.61404 13.117 7.72155C13.04 7.82906 12.9079 8.06266 12.8236 8.24066C12.6823 8.53863 12.6714 8.58898 12.6858 8.87557C12.7055 9.26556 12.8271 9.46838 13.1762 9.69353C13.7016 10.0324 13.224 10.0058 18.7687 10.0058H23.7145L24.1432 9.5437C24.4743 9.18676 24.605 9.0098 24.7175 8.7659C24.882 8.40939 25.0519 7.85271 25.1254 7.43018C25.1877 7.07165 25.1489 6.11119 25.0621 5.86589C24.8988 5.20197 24.5297 4.63333 24.1733 4.067C23.4943 3.00646 22.5268 2.16423 21.1285 1.41623C20.8802 1.28346 20.3265 0.897222 20.3364 0.887344C20.3668 0.856872 21.3109 1.25126 21.7765 1.48322C22.9265 2.05617 23.9154 2.87636 24.5722 3.80204C25.0589 4.48813 25.4627 5.2689 25.6619 6.0558C25.7727 6.49364 25.7863 6.87472 25.785 7.35166C25.7823 8.30359 25.5837 8.92868 25.1181 9.83664C24.7914 10.4736 24.7168 10.5551 24.222 10.8155L23.6739 11.014L18.7941 11.0443C13.8135 11.0752 13.7995 11.044 13.3141 10.9503C12.2754 10.7499 11.8499 10.5024 11.5786 9.94094C11.444 9.66239 11.4139 9.1215 11.5114 8.73252C11.7345 7.84236 13.2652 5.47077 15.4065 2.6974C15.8143 2.16928 16.1673 1.70095 16.1909 1.65668C16.3038 1.44552 16.1909 1.30572 15.8691 1.25807C15.6446 1.22483 14.5003 1.40294 14.0051 1.54822C12.7944 1.90333 12.3272 2.08419 11.7228 2.43181C10.813 2.955 10.067 3.59757 9.54915 4.30396C8.99684 5.05735 8.77725 5.53127 8.56845 6.42053C8.44499 6.94634 8.47362 7.76739 8.63577 8.35115C8.43829 8.46684 8.48125 8.42016 8.05518 8.4586Z" fill="url(#paint20_linear_601_1152)"/>
<g opacity="0.8">
<path d="M15.0646 0.767533C15.6789 0.699612 16.8268 0.69373 17.0034 0.757599C17.1849 0.823239 17.3748 1.03733 17.4358 1.24518C17.4762 1.38255 17.4709 1.42306 17.3923 1.58033C17.3431 1.67872 17.2516 1.82352 17.189 1.9021C17.1264 1.98068 16.9632 2.1958 16.8263 2.38013C15.8364 3.37617 16.0226 2.81014 16.1587 1.7009C16.2649 1.49852 16.1587 1.36454 15.856 1.31887C15.4699 1.01339 15.8383 1.06439 15.0646 0.767533Z" fill="url(#paint21_linear_601_1152)"/>
</g>
<path d="M15.8356 3.62457C15.5818 3.94297 15.1686 4.49599 14.9172 4.85349C14.452 5.51526 13.4334 7.08509 13.2302 7.45352C13.1686 7.56524 13.0589 7.74096 12.9864 7.844C12.914 7.94704 12.7897 8.17092 12.7104 8.34152C12.5775 8.6271 12.5672 8.67537 12.5808 8.95004C12.5993 9.32381 12.7136 9.5182 13.0421 9.73399C13.5364 10.0588 13.0871 10.0332 18.3035 10.0332C18.9821 10.3351 24.2748 10.8375 18.3274 11.0286C13.6417 11.0582 13.6286 11.0283 13.1719 10.9385C12.1947 10.7464 11.7943 10.5092 11.5391 9.97111C11.4124 9.70415 11.3841 9.18574 11.4759 8.81294C12.6324 4.79372 16.3869 2.76722 15.8356 3.62457Z" fill="url(#paint22_linear_601_1152)"/>
<path d="M14.7251 9.24481C14.514 8.949 14.5082 8.60203 14.7066 8.15064C15.0556 7.35688 17.0311 4.5939 18.5224 2.81381C19.383 1.78657 19.7303 1.29766 19.7303 1.11367C19.7303 1.0327 19.6785 0.93405 19.577 0.821708L19.306 0.577103L19.5482 0.652035C19.6986 0.698591 20.1281 0.841797 20.2564 0.925884C20.4668 1.06372 20.4305 1.44769 20.2155 1.82206C20.113 2.00048 19.7059 2.52692 19.3502 2.94097C18.3783 4.07235 17.2295 5.62177 16.1602 7.24332C15.5922 8.10468 15.4106 8.47099 15.472 8.63113C15.5038 8.71396 14.9647 9.34207 14.8634 9.34018C14.8242 9.33946 14.762 9.29653 14.7251 9.24481Z" fill="#505050"/>
<path d="M23.788 9.53307C23.6967 9.43204 23.4705 8.95858 23.4705 8.88094C23.4705 8.84717 23.5626 8.84708 23.601 8.81598C23.7172 8.72203 23.7978 8.53165 23.9124 8.08063C24.1802 7.02597 24.0685 5.98114 23.5792 4.96377C22.9766 3.71096 21.7292 2.64178 20.3374 2.18501C20.1408 2.12051 20.0785 2.09727 20.0371 2.0501C19.9657 1.96897 19.975 1.93879 20.092 1.68292C20.1789 1.4929 20.1987 1.39294 20.2636 1.38358C20.3144 1.37624 20.5614 1.47498 20.928 1.65388C22.7247 2.53054 23.9036 3.63767 24.4968 5.0055C24.8076 5.72198 24.875 6.0052 24.9023 6.70781C24.936 7.57786 24.7979 8.21813 24.4141 8.97067C24.1044 9.57813 23.9391 9.70023 23.788 9.53307Z" fill="url(#paint23_linear_601_1152)"/>
<path d="M15.2568 9.58173C15.0375 9.55431 14.835 9.41261 14.835 9.32822C14.835 9.24421 15.3982 8.59482 15.4687 8.59482C15.4925 8.59482 15.5048 8.68701 15.5806 8.72569C15.7054 8.7893 16.0945 8.79764 19.6615 8.81319L23.6044 8.83038L23.7745 9.1386C23.8773 9.32513 23.9644 9.50495 23.9477 9.54764C23.9223 9.61283 21.5219 9.65165 17.6067 9.64578C15.2767 9.64228 15.3279 9.59063 15.2568 9.58172V9.58173Z" fill="url(#paint24_linear_601_1152)"/>
<path opacity="0.5" d="M15.2568 9.58173C15.0375 9.55431 14.835 9.41261 14.835 9.32822C14.835 9.24421 15.3982 8.59482 15.4687 8.59482C15.4925 8.59482 15.5048 8.68701 15.5806 8.72569C15.7054 8.7893 16.0945 8.79764 19.6615 8.81319L23.6044 8.83038L23.7745 9.1386C23.8773 9.32513 23.9644 9.50495 23.9477 9.54764C23.9223 9.61283 21.5219 9.65165 17.6067 9.64578C15.2767 9.64228 15.3279 9.59063 15.2568 9.58172V9.58173Z" fill="url(#paint25_linear_601_1152)"/>
<path d="M15.2617 13.3182C11.1641 12.9607 7.88755 10.5593 7.4006 7.55673C7.09633 5.68047 7.90139 3.84939 9.67659 2.38011C10.2876 1.8744 10.4484 1.77042 11.2348 1.37219C12.7051 0.627737 14.1327 0.288189 16.0034 0.238029C17.0101 0.211038 17.7406 0.256559 18.5664 0.397737C19.2855 0.520684 19.3715 0.551043 19.5739 0.753383C19.7187 0.898262 19.7547 0.964165 19.7547 1.08452C19.7547 1.26835 19.5535 1.54879 18.4848 2.85457C17.2157 4.40518 16.4357 5.45482 15.4235 6.97433C14.5843 8.23419 14.4682 8.51493 14.5996 8.96698C14.6967 9.30085 15.0006 9.4557 15.2992 9.51253C15.686 9.58613 16.1214 9.56882 19.0509 9.56418C20.5898 9.56175 23.8539 9.56874 23.9551 9.56131C24.0868 9.55165 24.1636 9.51354 24.2517 9.42906C24.5542 9.03747 24.6729 8.87388 24.2728 9.58502C24.1016 9.88938 23.8405 10.1253 23.553 10.185C23.22 10.2541 14.4572 10.22 13.9755 10.1477C13.5546 10.0845 13.3108 9.99162 12.9846 9.77011C12.7801 9.63126 12.7011 9.54432 12.61 9.3582C12.5076 9.14897 12.4975 9.09086 12.5205 8.84459C12.5494 8.53558 12.6781 8.21999 12.9227 7.85908C13.0112 7.7284 13.148 7.50703 13.2266 7.36715C13.3051 7.22727 13.6387 6.70273 13.9679 6.20149C14.8414 4.87139 15.7306 3.65994 16.3636 2.93764C16.7619 2.48321 17.3365 1.69666 17.3779 1.54944C17.4581 1.26373 17.2337 0.877856 16.9232 0.767858C16.7117 0.692905 15.587 0.709016 14.9096 0.796702C11.1894 1.2783 8.38197 3.42322 7.90702 6.14682C7.82629 6.60975 7.82579 7.52871 7.90598 7.98682C8.12747 9.25158 8.93738 10.4253 10.22 11.3403C10.6873 11.6737 11.71 12.1981 12.3157 12.4149C15.063 13.3985 18.5443 13.2419 21.1608 12.0171C21.79 11.7225 22.0597 11.5397 22.4517 11.1422L22.7961 10.7929L23.3903 10.7646C23.9577 10.7375 24.2715 10.7667 24.2299 10.834C24.192 10.8953 23.3919 11.2083 23.0718 11.3219C22.891 11.3861 22.7229 11.5021 22.467 11.663C20.505 12.8963 17.7804 13.538 15.2616 13.3182L15.2617 13.3182Z" fill="url(#paint26_linear_601_1152)"/>
<path opacity="0.3" d="M15.3083 13.3107C11.2107 12.9532 7.93418 10.5518 7.44724 7.54919C7.14296 5.67293 7.94802 3.84185 9.72323 2.37257C10.3342 1.86686 10.495 1.76288 11.2814 1.36465C12.7517 0.620196 14.1793 0.280645 16.0501 0.230484C15.4375 0.530024 15.7708 0.754726 14.9562 0.789157C11.236 1.27076 8.4286 3.41568 7.95365 6.13927C7.87292 6.6022 7.87242 7.52117 7.95261 7.97927C8.1741 9.24404 8.984 10.4177 10.2667 11.3328C10.7339 11.6661 11.7567 12.1906 12.3623 12.4074C15.1097 13.391 18.591 13.2344 21.2074 12.0095C21.8366 11.715 22.1064 11.5322 22.4983 11.1347L22.8428 10.7854L23.4369 10.757C24.0043 10.7299 24.3181 10.7592 24.2765 10.8264C24.2386 10.8878 23.4385 11.2008 23.1184 11.3144C22.9376 11.3785 22.7695 11.4945 22.5136 11.6554C20.5516 12.8888 17.827 13.5304 15.3082 13.3107L15.3083 13.3107Z" fill="url(#paint27_linear_601_1152)"/>
<path d="M15.2804 13.3157C11.1828 12.9582 8.00266 10.7174 7.51572 7.71476C7.21144 5.83851 8.0165 4.03954 9.7917 2.57027C10.4027 2.06456 10.5834 1.95896 11.3217 1.52862C12.7455 0.698711 14.1515 0.285626 16.0222 0.235465C17.0288 0.208475 17.7593 0.253993 18.5851 0.395171C19.3043 0.518118 19.3903 0.548479 19.5926 0.75082C19.7375 0.895699 19.7735 0.961601 19.7735 1.08196C19.7735 1.26579 19.5723 1.54622 18.5035 2.85201C17.2344 4.40261 16.4544 5.45225 15.4423 6.97177C14.6031 8.23162 14.487 8.51237 14.6184 8.96441C14.7155 9.29828 15.0194 9.45314 15.318 9.50997C15.7047 9.58357 16.1401 9.56625 19.0697 9.56162C20.6085 9.55918 23.8727 9.56618 23.9739 9.55875C24.1055 9.54909 24.1823 9.51097 24.2705 9.4265C24.573 9.03491 24.6917 8.87132 24.2916 9.58246C24.1203 9.88682 23.8592 10.1227 23.5717 10.1824C23.2387 10.2516 14.476 10.2174 13.9942 10.1451C13.5733 10.082 13.3295 9.98906 13.0033 9.76754C12.7989 9.6287 12.7198 9.54176 12.6287 9.35564C12.5264 9.14641 12.5162 9.08829 12.5392 8.84203C12.5681 8.53302 12.6969 8.21743 12.9414 7.85651C13.03 7.72583 13.1667 7.50447 13.2453 7.36459C13.3239 7.22471 13.6575 6.70016 13.9867 6.19893C14.8601 4.86882 15.7494 3.65737 16.3824 2.93507C16.7806 2.48064 17.3553 1.69409 17.3966 1.54688C17.4769 1.26117 17.2524 0.875293 16.942 0.765295C16.7305 0.690341 15.6057 0.706453 14.9284 0.794139C11.2081 1.27574 8.40072 3.42066 7.92576 6.14425C7.84504 6.60718 7.84454 7.52615 7.92472 7.98426C8.14623 9.24902 8.95612 10.4227 10.2388 11.3378C10.706 11.6711 11.7288 12.1956 12.3344 12.4124C15.0818 13.396 18.5631 13.2393 21.1795 12.0145C21.8088 11.7199 22.0785 11.5371 22.4704 11.1397L22.8149 10.7904L23.4091 10.762C23.9764 10.7349 24.2902 10.7642 24.2487 10.8314C24.2108 10.8928 23.4106 11.2058 23.0905 11.3194C22.9097 11.3835 22.7416 11.4995 22.4857 11.6604C20.5237 12.8938 17.7992 13.5354 15.2804 13.3157L15.2804 13.3157Z" fill="url(#paint28_linear_601_1152)"/>
<path opacity="0.5" d="M15.2617 13.3182C11.1641 12.9607 7.88755 10.5593 7.4006 7.55672C7.09633 5.68046 7.90139 3.84938 9.67659 2.3801C10.2876 1.8744 10.4484 1.77041 11.2348 1.37219C12.7051 0.62773 14.1327 0.288182 16.0034 0.238022C15.964 0.645535 15.319 0.798414 14.9096 0.796693C11.1894 1.27829 8.38197 3.42321 7.90702 6.14681C7.82629 6.60974 7.82579 7.52871 7.90598 7.98681C8.12747 9.25158 8.93738 10.4253 10.22 11.3403C10.6873 11.6737 11.71 12.1981 12.3157 12.4149C15.063 13.3985 18.5443 13.2419 21.1608 12.0171C21.79 11.7225 22.0597 11.5397 22.4517 11.1422L22.7961 10.7929L23.3903 10.7646C23.9577 10.7375 24.2715 10.7667 24.2299 10.834C24.192 10.8953 23.3919 11.2083 23.0718 11.3219C22.891 11.3861 22.7229 11.5021 22.467 11.6629C20.505 12.8963 17.7804 13.538 15.2616 13.3182H15.2617Z" fill="url(#paint29_linear_601_1152)"/>
<path opacity="0.3" d="M15.3083 13.3107C11.2107 12.9532 7.93418 10.5518 7.44724 7.54919C7.14296 5.67293 7.94802 3.84185 9.72323 2.37257C10.3342 1.86686 10.495 1.76288 11.2814 1.36465C12.7517 0.620196 14.1793 0.280645 16.0501 0.230484C15.4375 0.530024 15.7708 0.754726 14.9562 0.789157C11.236 1.27076 8.4286 3.41568 7.95365 6.13927C7.87292 6.6022 7.87242 7.52117 7.95261 7.97927C8.1741 9.24404 8.984 10.4177 10.2667 11.3328C10.7339 11.6661 11.7567 12.1906 12.3623 12.4074C15.1097 13.391 18.591 13.2344 21.2074 12.0095C21.8366 11.715 22.1064 11.5322 22.4983 11.1347L22.8428 10.7854L23.4369 10.757C24.0043 10.7299 24.3181 10.7592 24.2765 10.8264C24.2386 10.8878 23.4385 11.2008 23.1184 11.3144C22.9376 11.3785 22.7695 11.4945 22.5136 11.6554C20.5516 12.8888 17.827 13.5304 15.3082 13.3107L15.3083 13.3107Z" fill="url(#paint30_linear_601_1152)"/>
<path opacity="0.3" d="M15.7328 9.76388C15.3961 9.75576 14.7705 9.26534 14.8168 9.30463C15.1699 9.60428 16.6526 9.57704 19.5538 9.56992L23.9565 9.55913L24.0687 9.45166C24.1304 9.39256 24.2689 9.15898 24.3766 8.93261C25.0153 7.58996 25.0176 6.22868 24.3835 4.90406C24.1257 4.36551 23.8243 3.9404 23.3461 3.44083C22.6526 2.71636 21.9986 2.22414 20.9512 1.76188C20.2084 1.43405 20.1869 1.50662 20.2174 1.3005C20.2174 1.24943 20.1896 1.18395 20.167 1.10318C20.0693 0.754214 20.1143 0.831039 20.996 1.29166C22.1807 1.9106 22.82 2.33212 23.5658 3.10905C25.213 4.82521 25.6226 7.03974 24.6609 9.02968C24.477 9.4103 24.2132 9.67023 23.9196 9.76022C23.7887 9.80032 23.0208 9.80345 19.9519 9.79989C17.7488 9.79734 17.4586 9.80551 15.7328 9.76388Z" fill="url(#paint31_linear_601_1152)"/>
<path d="M15.7328 9.6508C15.1462 9.64279 14.6173 9.16348 14.6636 9.20226C15.0167 9.498 16.6526 9.4664 19.5538 9.45938L23.9565 9.44873L24.0686 9.34266C24.1303 9.28433 24.2689 9.05381 24.3766 8.83039C25.0153 7.50527 25.0176 6.16176 24.3835 4.85443C24.1257 4.32291 23.8243 3.90336 23.3461 3.41031C22.6525 2.6953 21.9985 2.2095 20.9512 1.75329C20.2084 1.42974 20.1869 1.50135 20.2174 1.29793C20.2174 1.24752 20.1896 1.1829 20.167 1.10318C20.0692 0.758774 20.1597 1.01392 21.0414 1.46853C22.2261 2.07938 22.7292 2.40574 23.4749 3.17253C25.1221 4.86628 25.6226 6.96224 24.6609 8.92619C24.477 9.30185 24.2132 9.55838 23.9195 9.6472C23.7887 9.68677 23.0208 9.68986 19.9519 9.68634C17.7488 9.68382 17.4589 9.6744 15.7328 9.6508Z" fill="url(#paint32_linear_601_1152)"/>
<path opacity="0.5" d="M24.3836 4.90405C24.1258 4.3655 23.8244 3.9404 23.3461 3.44083C22.6526 2.71635 21.9986 2.22413 20.9512 1.76188C20.2084 1.43405 20.1869 1.50661 20.2175 1.3005C20.2175 1.24942 20.1897 1.18395 20.1671 1.10317C20.0693 0.754209 20.0576 0.944596 20.9392 1.40521C22.1239 2.02415 22.8201 2.33212 23.5658 3.10905C24.2023 3.97569 23.7806 3.51282 24.3836 4.90405Z" fill="url(#paint33_linear_601_1152)"/>
<path opacity="0.3" d="M22.4984 11.1347L22.8428 10.7854L23.437 10.757C24.0044 10.7299 24.3182 10.7592 24.2766 10.8264C23.8783 11.2772 22.114 11.5974 22.4984 11.1347Z" fill="url(#paint34_linear_601_1152)"/>
<path opacity="0.6" d="M15.2804 13.3064C11.1828 12.9489 8.00266 10.708 7.51572 7.70546C7.21144 5.8292 8.0165 4.03024 9.7917 2.56096C10.4027 2.05525 10.5834 1.94965 11.3217 1.51931C12.7455 0.689404 14.1515 0.276318 16.0222 0.226157C17.0288 0.199167 17.7593 0.244687 18.5851 0.385865C19.3043 0.508812 19.3903 0.539171 19.5926 0.741512C19.7375 0.886391 19.7735 0.952293 19.7735 1.07265C19.7735 1.25648 19.5723 1.53691 18.5035 2.8427C17.2344 4.3933 16.4545 5.44295 15.4423 6.96246C14.6031 8.22232 14.487 8.50306 14.6184 8.95511C14.7155 9.28897 15.0194 9.44383 15.318 9.50066C15.7047 9.57426 16.1401 9.55694 19.0697 9.55231C20.6085 9.54987 23.8727 9.55687 23.9739 9.54944C24.1055 9.53978 24.1823 9.50166 24.2705 9.41719C24.573 9.0256 24.6917 8.86201 24.2916 9.57315C24.1203 9.87751 23.8592 10.1134 23.5717 10.1731C23.2387 10.2423 14.476 10.2081 13.9942 10.1358C13.5733 10.0727 13.3295 9.97975 13.0033 9.75823C12.7989 9.61939 12.7198 9.53245 12.6287 9.34632C12.5264 9.1371 12.5162 9.07899 12.5392 8.83272C12.5681 8.52371 12.6969 8.20812 12.9414 7.8472C13.03 7.71653 13.1667 7.49516 13.2453 7.35528C13.3239 7.2154 13.6575 6.69085 13.9867 6.18962C14.8601 4.85951 15.7494 3.64807 16.3824 2.92577C16.7806 2.47134 17.3553 1.68478 17.3966 1.53757C17.4769 1.25186 17.2524 0.865985 16.942 0.755987C16.7305 0.681033 15.6057 0.697145 14.9284 0.784831C11.2081 1.26643 8.40072 3.41135 7.92577 6.13495C7.84504 6.59788 7.84454 7.51684 7.92472 7.97495C8.14623 9.23971 8.95612 10.4134 10.2388 11.3285C10.706 11.6618 11.7288 12.1863 12.3344 12.4031C15.0818 13.3866 18.5631 13.23 21.1795 12.0052C21.8088 11.7106 22.0785 11.5278 22.4704 11.1304L22.8149 10.7811L23.4091 10.7527C23.9764 10.7256 24.2902 10.7549 24.2487 10.8221C24.2108 10.8835 23.4106 11.1965 23.0905 11.31C22.9097 11.3742 22.7416 11.4902 22.4857 11.6511C20.5237 12.8845 17.7992 13.5261 15.2804 13.3064H15.2804Z" fill="url(#paint35_radial_601_1152)"/>
<defs>
<linearGradient id="paint0_linear_601_1152" x1="15.5004" y1="21.0027" x2="15.3471" y2="14.6666" gradientUnits="userSpaceOnUse">
<stop stop-color="#505050"/>
<stop offset="0.0584744" stop-color="#525252"/>
<stop offset="0.56152" stop-color="#555555"/>
<stop offset="0.786532" stop-color="#5A5A5A"/>
<stop offset="1" stop-color="#C8C8C8"/>
</linearGradient>
<linearGradient id="paint1_linear_601_1152" x1="22.55" y1="15.5817" x2="22.55" y2="16.1841" gradientUnits="userSpaceOnUse">
<stop stop-color="#B8B8B8"/>
<stop offset="1" stop-color="#828282"/>
</linearGradient>
<linearGradient id="paint2_linear_601_1152" x1="17.4413" y1="14.981" x2="17.3361" y2="19.5479" gradientUnits="userSpaceOnUse">
<stop stop-color="#464646"/>
<stop offset="1"/>
</linearGradient>
<linearGradient id="paint3_linear_601_1152" x1="17.441" y1="14.9476" x2="17.3272" y2="19.6975" gradientUnits="userSpaceOnUse">
<stop stop-color="#464646"/>
<stop offset="1"/>
</linearGradient>
<linearGradient id="paint4_linear_601_1152" x1="17.4411" y1="14.5947" x2="17.3015" y2="19.8548" gradientUnits="userSpaceOnUse">
<stop stop-color="#464646"/>
<stop offset="1"/>
</linearGradient>
<linearGradient id="paint5_linear_601_1152" x1="17.4411" y1="14.5947" x2="17.3014" y2="19.8548" gradientUnits="userSpaceOnUse">
<stop stop-color="#464646"/>
<stop offset="1"/>
</linearGradient>
<linearGradient id="paint6_linear_601_1152" x1="17.4412" y1="14.947" x2="17.3224" y2="19.7974" gradientUnits="userSpaceOnUse">
<stop stop-color="#464646"/>
<stop offset="1"/>
</linearGradient>
<linearGradient id="paint7_linear_601_1152" x1="17.4411" y1="14.5947" x2="17.3014" y2="19.8548" gradientUnits="userSpaceOnUse">
<stop stop-color="#464646"/>
<stop offset="1"/>
</linearGradient>
<linearGradient id="paint8_linear_601_1152" x1="17.4411" y1="14.5947" x2="17.3015" y2="19.8548" gradientUnits="userSpaceOnUse">
<stop stop-color="#464646"/>
<stop offset="1"/>
</linearGradient>
<linearGradient id="paint9_linear_601_1152" x1="14.0789" y1="14.8287" x2="13.9659" y2="20.288" gradientUnits="userSpaceOnUse">
<stop stop-color="#787878"/>
<stop offset="1" stop-color="#1E1E1E"/>
</linearGradient>
<linearGradient id="paint10_linear_601_1152" x1="15.472" y1="14.904" x2="15.6602" y2="19.3467" gradientUnits="userSpaceOnUse">
<stop stop-color="#B4B4B4"/>
<stop offset="0.322353" stop-color="#828282"/>
<stop offset="1" stop-color="#3C3C3C"/>
</linearGradient>
<linearGradient id="paint11_linear_601_1152" x1="16.1515" y1="20.5582" x2="16.3378" y2="17.4642" gradientUnits="userSpaceOnUse">
<stop stop-color="#828282"/>
<stop offset="0.5" stop-color="#828282"/>
<stop offset="1" stop-color="#3C3C3C"/>
</linearGradient>
<linearGradient id="paint12_linear_601_1152" x1="15.7355" y1="17.0877" x2="15.8108" y2="19.422" gradientUnits="userSpaceOnUse">
<stop stop-color="#828282"/>
<stop offset="0.5" stop-color="#828282"/>
<stop offset="1" stop-color="#3C3C3C"/>
</linearGradient>
<linearGradient id="paint13_linear_601_1152" x1="6.99749" y1="4.2395" x2="23.73" y2="15.1409" gradientUnits="userSpaceOnUse">
<stop stop-color="#000032"/>
<stop offset="0.25" stop-color="#646464"/>
<stop offset="0.423823"/>
<stop offset="1" stop-color="#787878"/>
</linearGradient>
<linearGradient id="paint14_linear_601_1152" x1="7.7691" y1="12.2099" x2="24.9213" y2="12.0814" gradientUnits="userSpaceOnUse">
<stop stop-color="#999999"/>
<stop offset="0.220528" stop-color="#3C3C3C" stop-opacity="0.87451"/>
<stop offset="0.515847" stop-color="#969696"/>
<stop offset="0.752781" stop-color="#828282"/>
<stop offset="1" stop-color="#5A5A5A"/>
</linearGradient>
<linearGradient id="paint15_linear_601_1152" x1="19.0433" y1="13.7196" x2="19.0111" y2="9.51182" gradientUnits="userSpaceOnUse">
<stop/>
<stop offset="1" stop-opacity="0"/>
</linearGradient>
<linearGradient id="paint16_linear_601_1152" x1="13.1974" y1="0.839365" x2="25.4907" y2="14.8232" gradientUnits="userSpaceOnUse">
<stop stop-color="#5A5A5A"/>
<stop offset="0.268765" stop-color="#505050"/>
<stop offset="0.632019" stop-color="#666666"/>
<stop offset="0.667453" stop-color="#666666"/>
<stop offset="1" stop-color="#666666"/>
</linearGradient>
<linearGradient id="paint17_linear_601_1152" x1="13.1974" y1="0.839365" x2="25.4907" y2="14.8232" gradientUnits="userSpaceOnUse">
<stop stop-color="#5A5A5A"/>
<stop offset="0.268765" stop-color="#505050"/>
<stop offset="0.632019" stop-color="#666666"/>
<stop offset="0.667453" stop-color="#666666"/>
<stop offset="1" stop-color="#666666"/>
</linearGradient>
<linearGradient id="paint18_linear_601_1152" x1="8.4568" y1="2.22145" x2="21.0337" y2="7.64637" gradientUnits="userSpaceOnUse">
<stop stop-color="#323232" stop-opacity="0"/>
<stop offset="0.39399" stop-color="#323232" stop-opacity="0.94902"/>
<stop offset="0.466851" stop-color="#323232" stop-opacity="0.901961"/>
<stop offset="0.704071" stop-color="#E1E1E1" stop-opacity="0.498039"/>
<stop offset="1" stop-color="#C8C8C8" stop-opacity="0"/>
</linearGradient>
<linearGradient id="paint19_linear_601_1152" x1="18.9469" y1="11.5675" x2="19.0114" y2="9.51183" gradientUnits="userSpaceOnUse">
<stop/>
<stop offset="1" stop-opacity="0"/>
</linearGradient>
<linearGradient id="paint20_linear_601_1152" x1="7.92374" y1="3.3997" x2="9.64467" y2="5.21449" gradientUnits="userSpaceOnUse">
<stop stop-color="#28170B"/>
<stop offset="1" stop-color="#28170B" stop-opacity="0"/>
</linearGradient>
<linearGradient id="paint21_linear_601_1152" x1="16.1981" y1="2.24604" x2="15.5566" y2="0.794725" gradientUnits="userSpaceOnUse">
<stop stop-color="#B3B3B3" stop-opacity="0"/>
<stop offset="0.160949" stop-color="#B3B3B3" stop-opacity="0.300885"/>
<stop offset="0.341789" stop-color="#B3B3B3" stop-opacity="0.87451"/>
<stop offset="0.405936" stop-color="#B3B3B3" stop-opacity="0.74902"/>
<stop offset="0.658295" stop-color="#B3B3B3" stop-opacity="0"/>
<stop offset="1" stop-color="#B3B3B3" stop-opacity="0"/>
</linearGradient>
<linearGradient id="paint22_linear_601_1152" x1="12.2163" y1="10.2241" x2="11.3907" y2="7.70201" gradientUnits="userSpaceOnUse">
<stop stop-color="#B3B3B3" stop-opacity="0"/>
<stop offset="0.12143" stop-color="#B3B3B3" stop-opacity="0.368627"/>
<stop offset="0.285824" stop-color="#B3B3B3" stop-opacity="0.87451"/>
<stop offset="0.383948" stop-color="#B3B3B3" stop-opacity="0.74902"/>
<stop offset="0.516942" stop-color="#B3B3B3" stop-opacity="0.498039"/>
<stop offset="1" stop-color="#B3B3B3" stop-opacity="0"/>
</linearGradient>
<linearGradient id="paint23_linear_601_1152" x1="21.3063" y1="0.968914" x2="23.8358" y2="8.52273" gradientUnits="userSpaceOnUse">
<stop/>
<stop offset="0.552013" stop-color="#7D7D7D"/>
<stop offset="0.693304" stop-color="#969696"/>
<stop offset="0.857541" stop-color="#8A8A8A"/>
<stop offset="1" stop-color="#505050"/>
</linearGradient>
<linearGradient id="paint24_linear_601_1152" x1="14.6839" y1="8.80746" x2="23.0018" y2="10.775" gradientUnits="userSpaceOnUse">
<stop stop-color="#323232"/>
<stop offset="0.105545" stop-color="#B4B4B6"/>
<stop offset="0.253205" stop-color="#B4B4B4"/>
<stop offset="1" stop-color="#AAAAAA"/>
</linearGradient>
<linearGradient id="paint25_linear_601_1152" x1="19.8981" y1="8.46401" x2="19.8981" y2="9.84947" gradientUnits="userSpaceOnUse">
<stop stop-color="#505050"/>
<stop offset="1" stop-color="#FAFAFA" stop-opacity="0"/>
</linearGradient>
<linearGradient id="paint26_linear_601_1152" x1="9.06732" y1="-0.507113" x2="12.729" y2="5.33876" gradientUnits="userSpaceOnUse">
<stop stop-color="#8282A9"/>
<stop offset="1" stop-color="#A9A9A9" stop-opacity="0"/>
</linearGradient>
<linearGradient id="paint27_linear_601_1152" x1="23.6095" y1="10.7547" x2="19.1197" y2="12.2946" gradientUnits="userSpaceOnUse">
<stop stop-color="#FAFAFA"/>
<stop offset="0.25" stop-color="#FAFAFA" stop-opacity="0.901961"/>
<stop offset="0.5" stop-color="#E1E1E1" stop-opacity="0.498039"/>
<stop offset="1" stop-color="#C8C8C8" stop-opacity="0"/>
</linearGradient>
<linearGradient id="paint28_linear_601_1152" x1="16.9555" y1="-0.445436" x2="16.8567" y2="15.4398" gradientUnits="userSpaceOnUse">
<stop stop-color="#AAAAAA"/>
<stop offset="0.101807" stop-color="#BEBEBE"/>
<stop offset="0.211525" stop-color="#BEBEBE"/>
<stop offset="0.549206" stop-color="#B4B4B4"/>
<stop offset="0.673505" stop-color="#878787"/>
<stop offset="0.778718" stop-color="#969696"/>
<stop offset="1" stop-color="#AAAAAA"/>
</linearGradient>
<linearGradient id="paint29_linear_601_1152" x1="6.93395" y1="10.5718" x2="10.6278" y2="7.35976" gradientUnits="userSpaceOnUse">
<stop stop-color="#E6E6E6"/>
<stop offset="1" stop-color="#FAFAFA" stop-opacity="0"/>
</linearGradient>
<linearGradient id="paint30_linear_601_1152" x1="23.6095" y1="10.7547" x2="19.1197" y2="12.2946" gradientUnits="userSpaceOnUse">
<stop stop-color="#FAFAFA"/>
<stop offset="0.25" stop-color="#FAFAFA" stop-opacity="0.901961"/>
<stop offset="0.5" stop-color="#E1E1E1" stop-opacity="0.498039"/>
<stop offset="1" stop-color="#C8C8C8" stop-opacity="0"/>
</linearGradient>
<linearGradient id="paint31_linear_601_1152" x1="19.8893" y1="0.878639" x2="20.8043" y2="1.52104" gradientUnits="userSpaceOnUse">
<stop stop-color="#FAFAFA"/>
<stop offset="0.25" stop-color="#EDEDED" stop-opacity="0.74902"/>
<stop offset="0.5" stop-color="#E1E1E1" stop-opacity="0.498039"/>
<stop offset="1" stop-color="#C8C8C8" stop-opacity="0"/>
</linearGradient>
<linearGradient id="paint32_linear_601_1152" x1="15.3173" y1="10.1542" x2="23.8292" y2="1.35329" gradientUnits="userSpaceOnUse">
<stop stop-color="#969696"/>
<stop offset="0.132623" stop-color="#C0BEBE"/>
<stop offset="0.5" stop-color="#B4B4B4"/>
<stop offset="1" stop-color="#BEBEBE"/>
</linearGradient>
<linearGradient id="paint33_linear_601_1152" x1="19.75" y1="1.35329" x2="21.5808" y2="1.70661" gradientUnits="userSpaceOnUse">
<stop stop-opacity="0"/>
<stop offset="0.109171" stop-color="#323232" stop-opacity="0.94902"/>
<stop offset="0.218341" stop-color="#323232" stop-opacity="0.901961"/>
<stop offset="0.506057" stop-color="#E1E1E1" stop-opacity="0.498039"/>
<stop offset="1" stop-color="#C8C8C8" stop-opacity="0"/>
</linearGradient>
<linearGradient id="paint34_linear_601_1152" x1="23.3687" y1="10.7547" x2="23.3596" y2="11.3149" gradientUnits="userSpaceOnUse">
<stop stop-color="#FAFAFA"/>
<stop offset="0.5" stop-color="#FAFAFA" stop-opacity="0.901961"/>
<stop offset="0.697845" stop-color="#E1E1E1" stop-opacity="0.498039"/>
<stop offset="1" stop-color="#C8C8C8" stop-opacity="0"/>
</linearGradient>
<radialGradient id="paint35_radial_601_1152" cx="0" cy="0" r="1" gradientUnits="userSpaceOnUse" gradientTransform="translate(16.3239 4.20478) rotate(76.732) scale(4.40043 5.59461)">
<stop stop-color="#DCDCDC" stop-opacity="0.901961"/>
<stop offset="0.752174" stop-color="#E1E1E1" stop-opacity="0.45098"/>
<stop offset="1" stop-color="#C8C8C8" stop-opacity="0"/>
</radialGradient>
</defs>
</svg>
