<svg width="37" height="7" viewBox="0 0 37 7" fill="none" xmlns="http://www.w3.org/2000/svg">
<g clip-path="url(#clip0_601_24521)">
<path d="M7.29873 6.37067H8.83297V3.17339H7.94282C7.56649 3.17339 7.3132 3.34793 7.05267 3.57801C6.77043 3.84775 5.75001 4.81566 5.75001 4.81566V3.18132H4.84538C4.33156 3.18132 4.07103 3.37966 3.78879 3.6256C3.58615 3.78428 0.575562 6.37067 0.575562 6.37067H2.39928L4.20853 4.73632V6.37067H5.67764L7.29873 4.76013V6.37067ZM10.6495 6.37067H13.1317V5.54557H11.0981C10.91 5.54557 10.7073 5.41863 10.7073 5.01401V4.95847C10.7073 4.60146 10.8738 4.45072 11.0909 4.45072H13.1317V3.61768H10.5988C9.5639 3.61768 9.15139 4.10957 9.15139 4.8712V5.12508C9.15139 6.01366 9.60009 6.37067 10.6495 6.37067H10.6495ZM16.193 6.37067V5.5297H15.0061V3.18132H13.4646V6.37861H16.193V6.37067ZM19.1746 5.29962C19.1746 5.4583 19.1167 5.5535 18.943 5.5535H18.1108C17.9661 5.5535 17.872 5.5059 17.872 5.38689C17.872 5.25995 17.9299 5.18855 18.1108 5.18855H19.1746V5.29962ZM20.7089 5.29962V4.69666C20.7089 4.00643 20.2964 3.61768 19.4135 3.61768H16.6634V4.41105H18.8707C19.095 4.41105 19.1746 4.49039 19.1746 4.68079V4.71253H17.416C16.6779 4.71253 16.4173 5.05368 16.4173 5.49797V5.58524C16.4142 5.67281 16.4273 5.76018 16.4559 5.84201C16.4845 5.92385 16.528 5.99845 16.5838 6.06126C16.8009 6.2834 17.2134 6.35481 17.7706 6.35481H19.2977C20.2964 6.37067 20.7089 6.12473 20.7089 5.29962H20.7089ZM22.5833 4.45072H23.5458V3.61768H21.5773C21.2589 3.61768 21.0562 3.80015 21.0562 4.10957V6.37067H22.5977V4.45072H22.5833ZM26.5564 4.60146C26.5564 4.72046 26.5057 4.79187 26.332 4.79187H25.2392V4.68079C25.2392 4.52212 25.2971 4.42691 25.4781 4.42691H26.3175C26.455 4.42692 26.5564 4.47452 26.5564 4.60146H26.5564ZM28.011 4.53799V4.42692C28.011 3.9747 27.7794 3.62561 26.7011 3.62561H25.1162C24.1175 3.62561 23.705 3.9985 23.705 4.80774V5.28376C23.705 5.97399 24.1175 6.37068 25.0076 6.37068H27.8228V5.56937H25.5432C25.3188 5.56937 25.2392 5.49797 25.2392 5.30756V5.28376H27.005C27.6274 5.27582 28.011 5.05368 28.011 4.53799H28.011ZM32.4038 6.37067V4.83153C32.4038 3.87156 31.9841 3.61768 30.7393 3.61768H28.3005V6.37067H29.8419V4.51419H30.2545C30.7176 4.51419 30.8696 4.80773 30.8696 5.12508V6.37861H32.4038L32.4038 6.37067Z" fill="black"/>
<path d="M35.2769 0.753609C34.4953 0.753609 33.3736 1.00749 32.1578 1.49144C31.0798 1.9238 30.0464 2.47959 29.0748 3.14959C30.0066 2.77021 30.9903 2.56635 31.9841 2.54663C33.3591 2.54663 34.3578 3.12579 32.9032 5.16475C37.1947 2.0944 37.0717 0.753609 35.2769 0.753609Z" fill="black"/>
</g>
<defs>
<clipPath id="clip0_601_24521">
<rect width="36" height="5.625" fill="white" transform="translate(0.575562 0.753609)"/>
</clipPath>
</defs>
</svg>
