<svg width="27" height="33" viewBox="0 0 27 33" fill="none" xmlns="http://www.w3.org/2000/svg">
<g clip-path="url(#clip0_601_24392)">
<path fill-rule="evenodd" clip-rule="evenodd" d="M2.0395 27.915V2.57896C2.0395 2.57896 2.1275 1.16296 1.3755 0.682959V0.506959H11.1355C11.9858 0.506607 12.8344 0.581566 13.6715 0.730959C14.907 0.949933 16.0572 1.50804 16.9939 2.34294C17.9305 3.17784 18.6166 4.25668 18.9755 5.45896C19.3533 6.69088 19.4387 7.99392 19.2248 9.2646C19.0109 10.5353 18.5037 11.7386 17.7435 12.779C17.0078 13.7287 16.1435 14.5714 15.1755 15.283C14.9595 15.435 14.8315 15.515 14.6075 15.659C15.8992 17.6102 16.9495 19.7109 17.7355 21.915C18.4059 23.8393 18.9117 25.8171 19.2475 27.827C19.4555 29.491 19.9515 29.659 20.0475 29.691V29.875H14.2075V29.691C14.3835 29.595 15.9675 28.891 15.9755 26.435C15.9092 24.3571 15.4871 22.3061 14.7275 20.371C14.2485 19.0455 13.6792 17.7545 13.0235 16.507C11.8985 16.9595 10.7334 17.3051 9.5435 17.539C8.7835 17.683 8.0155 17.803 7.0635 17.907C6.1115 18.011 5.4635 18.059 4.9435 18.091V27.931C4.9435 28.147 4.9995 29.307 5.7435 29.707V29.891H1.2395V29.707C1.9675 29.323 2.0395 28.147 2.0395 27.931M11.2635 2.17096H4.9195V16.267C6.29345 16.1927 7.65707 15.9864 8.9915 15.651C13.6155 14.283 15.8235 11.059 15.8555 7.25896C15.8555 5.05096 15.0555 3.69896 14.2555 2.97896C13.7367 2.57963 13.121 2.3256 12.4715 2.24296C12.0819 2.18879 11.6888 2.16472 11.2955 2.17096M10.6555 17.723V19.211C11.6647 19.1495 12.6692 19.0267 13.6635 18.843C13.9355 19.467 14.1755 20.059 14.3435 20.515V20.579C13.8395 20.667 13.3035 20.739 12.7435 20.803C11.9435 20.899 11.1435 20.947 10.6715 20.979V30.579C10.6715 30.787 10.7195 31.923 11.4715 32.315V32.507H7.0475V32.331C7.7595 31.955 7.8475 30.803 7.8475 30.595V18.235C8.79707 18.1133 9.73968 17.9424 10.6715 17.723M16.4875 17.915C17.9508 17.2779 19.1944 16.2245 20.0635 14.886C20.9326 13.5475 21.3889 11.9829 21.3755 10.387C21.3755 8.21896 20.6315 6.90696 19.7755 6.18696L19.6235 6.10696C19.5595 5.85096 19.4955 5.60296 19.4155 5.36296C19.2528 4.87735 19.0494 4.40634 18.8075 3.95496C18.9595 3.95496 19.1035 4.00296 19.2395 4.02696C20.4502 4.24397 21.5773 4.79142 22.4964 5.60885C23.4155 6.42627 24.0907 7.48185 24.4475 8.65896C24.8209 9.87024 24.9062 11.152 24.6964 12.4021C24.4867 13.6521 23.9878 14.8359 23.2395 15.859C22.517 16.7878 21.6689 17.6117 20.7195 18.307C20.5115 18.459 20.3835 18.539 20.1675 18.683C21.4321 20.5934 22.4584 22.6514 23.2235 24.811C23.8796 26.6975 24.38 28.6347 24.7195 30.603C24.9115 32.203 25.3995 32.363 25.5195 32.395V32.507H19.7755V32.331C19.9515 32.243 21.5035 31.603 21.5115 29.179C21.4533 27.1422 21.0419 25.131 20.2955 23.235C19.8093 21.9409 19.2402 20.6796 18.5915 19.459C18.3035 19.587 17.8875 19.731 17.4315 19.883C17.1355 19.195 16.8315 18.571 16.4875 17.939M15.1915 5.39496H10.6555V14.547C10.0762 14.8186 9.47715 15.0459 8.8635 15.227C8.52399 15.3273 8.17953 15.4101 7.8315 15.475V5.79496C7.8315 5.79496 7.9115 4.41096 7.1355 3.93896V3.76296H14.3915C14.7655 4.23552 15.0379 4.78023 15.1915 5.36296" fill="black"/>
</g>
<defs>
<clipPath id="clip0_601_24392">
<rect width="25.6" height="32" fill="white" transform="translate(0.575562 0.506958)"/>
</clipPath>
</defs>
</svg>
