<svg width="33" height="33" viewBox="0 0 33 33" fill="none" xmlns="http://www.w3.org/2000/svg">
<g clip-path="url(#clip0_601_24774)">
<path d="M16.5949 30.4664C8.66705 30.4664 2.17196 23.9395 2.17196 16.0117C2.17196 14.2287 2.49034 12.5413 3.09528 10.9493L11.5325 27.9193C11.6281 28.1422 11.7872 28.3333 12.042 28.3333C12.2967 28.3333 12.4559 28.1422 12.5514 27.9193L16.4357 19.2274C16.4675 19.1319 16.5312 19.0364 16.6267 19.0364C16.7222 19.0364 16.7541 19.1319 16.8178 19.2274L20.7021 27.9193C20.7976 28.1422 20.9568 28.3333 21.2115 28.3333C21.4662 28.3333 21.6254 28.1422 21.7209 27.9193L30.1582 10.9493C30.7631 12.5413 31.0815 14.2287 31.0815 16.0117C31.0178 23.9395 24.5227 30.4664 16.5949 30.4664ZM16.5949 12.7323C16.4994 12.7323 16.4675 12.6368 16.4039 12.5413L11.8828 2.35286C13.3473 1.81161 14.9393 1.52506 16.5949 1.52506C18.2505 1.52506 19.8424 1.81161 21.307 2.35286L16.7859 12.5413C16.7222 12.6686 16.6904 12.7323 16.5949 12.7323ZM11.9783 23.2072C11.8828 23.2072 11.8509 23.1117 11.7872 23.0162L4.46434 8.24303C5.76973 6.23719 7.52086 4.54974 9.65405 3.3717L14.9393 15.1202C15.003 15.3112 15.1622 15.3749 15.3213 15.3749H17.8684C18.0595 15.3749 18.1868 15.3431 18.2823 15.1202L23.5676 3.3717C25.6689 4.54974 27.4519 6.23719 28.7573 8.24303L21.3707 23.0162C21.3389 23.1117 21.2752 23.2072 21.1797 23.2072C21.0842 23.2072 21.0523 23.1117 20.9886 23.0162L18.2187 16.7121C18.1232 16.4893 17.9958 16.4574 17.8048 16.4574H15.2577C15.0666 16.4574 14.9393 16.4893 14.8438 16.7121L12.1693 23.0162C12.1375 23.1117 12.0738 23.2072 11.9783 23.2072ZM16.5949 31.931C25.4142 31.931 32.5142 24.831 32.5142 16.0117C32.5142 7.19235 25.4142 0.0923157 16.5949 0.0923157C7.77557 0.0923157 0.675537 7.19235 0.675537 16.0117C0.675537 24.831 7.77557 31.931 16.5949 31.931Z" fill="black"/>
</g>
<defs>
<clipPath id="clip0_601_24774">
<rect width="32" height="32" fill="white" transform="translate(0.575684 0.0324097)"/>
</clipPath>
</defs>
</svg>
