<svg width="33" height="33" viewBox="0 0 33 33" fill="none" xmlns="http://www.w3.org/2000/svg">
<path d="M16.576 6.37177C19.2649 6.37177 21.6551 7.46723 23.3982 9.21017C25.1911 10.9531 26.2366 13.393 26.2366 16.0824C26.2366 18.7215 25.1911 21.1616 23.3982 22.9045C21.6553 24.6474 19.2649 25.743 16.576 25.743C13.8867 25.743 11.4965 24.6476 9.70388 22.9045C7.96095 21.1616 6.86548 18.7216 6.86548 16.0824C6.86548 13.3932 7.96095 10.9533 9.70388 9.21017C11.4965 7.46723 13.8867 6.37177 16.576 6.37177ZM16.576 6.52095C13.9367 6.52095 11.5465 7.61641 9.85306 9.30982C8.11013 11.0526 7.01466 13.443 7.01466 16.0822C7.01466 18.7213 8.11013 21.1117 9.85306 22.8047C11.5463 24.5476 13.9367 25.5936 16.576 25.5936C19.215 25.5936 21.6056 24.5478 23.2984 22.8047C25.0413 21.1117 26.0873 18.7213 26.0873 16.0822C26.0873 13.443 25.0413 11.0526 23.2984 9.30982C21.6056 7.61656 19.215 6.52095 16.576 6.52095Z" fill="#C5C5C1"/>
<path d="M16.5759 1.24246C19.9621 1.24246 23.0996 2.3876 25.5891 4.28018L27.2322 2.6369L30.1207 5.52498L28.4775 7.21823C30.32 9.70829 31.3655 12.7455 31.3655 16.0323C31.3655 24.1991 24.7426 30.872 16.5757 30.872C8.40888 30.872 1.78564 24.1991 1.78564 16.0323C1.7858 7.8657 8.40903 1.24246 16.5759 1.24246ZM16.5759 4.72833C10.3511 4.72833 5.27166 9.80749 5.27166 16.0323C5.27166 22.307 10.3511 27.3365 16.5759 27.3365C22.8007 27.3365 27.8798 22.307 27.8798 16.0323C27.8798 9.80749 22.8007 4.72833 16.5759 4.72833Z" fill="url(#paint0_radial_601_1567)"/>
<path d="M16.5759 4.67834C19.7132 4.67834 22.5516 5.92345 24.6431 8.01488C26.6845 10.0566 27.9794 12.895 27.9794 16.0821C27.9794 19.2194 26.6847 22.0575 24.6431 24.1493C22.5515 26.1907 19.7131 27.4857 16.5759 27.4857C13.4385 27.4857 10.5504 26.1909 8.50865 24.1493C6.4669 22.0574 5.17212 19.2193 5.17212 16.0821C5.17212 12.895 6.4669 10.0566 8.50865 8.01488C10.5504 5.92345 13.4385 4.67834 16.5759 4.67834ZM16.5759 4.82798C13.4885 4.82798 10.6499 6.07278 8.60816 8.11454C6.56641 10.156 5.32145 12.9449 5.32145 16.0822C5.32145 19.1696 6.56625 22.008 8.60816 24.0498C10.6499 26.0415 13.4885 27.3363 16.5759 27.3363C19.6632 27.3363 22.5016 26.0415 24.5435 24.0498C26.5848 22.008 27.8301 19.1696 27.8301 16.0822C27.8301 12.9449 26.5848 10.156 24.5435 8.11454C22.5016 6.07278 19.6632 4.82798 16.5759 4.82798Z" fill="url(#paint1_linear_601_1567)"/>
<path d="M16.5759 1.14281C19.9621 1.14281 23.1491 2.2881 25.6392 4.2302L25.5892 4.28018C23.0996 2.38761 19.9621 1.24246 16.576 1.24246C8.40917 1.24246 1.78594 7.8657 1.78594 16.0323C1.78594 24.1991 8.40917 30.872 16.576 30.872C24.7429 30.872 31.3658 24.1991 31.3658 16.0323C31.3658 12.7457 30.3203 9.70829 28.4777 7.21824L28.5274 7.16825C30.37 9.65831 31.4655 12.6959 31.4655 16.0323C31.4655 20.1654 29.7725 23.9003 27.0833 26.5894C24.3941 29.2786 20.7092 30.922 16.576 30.922C12.4924 30.922 8.75767 29.2787 6.06876 26.5894C3.37954 23.8505 1.68628 20.1654 1.68628 16.0323C1.68628 11.9489 3.37954 8.2142 6.06876 5.52498C8.75752 2.83576 12.4425 1.14281 16.5759 1.14281Z" fill="url(#paint2_radial_601_1567)"/>
<path d="M16.576 4.77802C22.8007 4.77802 27.8799 9.80765 27.8799 16.0824C27.8799 22.3072 22.8007 27.3863 16.576 27.3863C10.3512 27.3863 5.27173 22.3072 5.27173 16.0824C5.27173 9.8075 10.3512 4.77802 16.576 4.77802ZM16.576 6.37177C11.2475 6.37177 6.91501 10.7043 6.91501 16.0824C6.91501 21.4109 11.2475 25.7429 16.576 25.7429C21.9044 25.7429 26.2365 21.4107 26.2365 16.0824C26.2365 10.7041 21.9044 6.37177 16.576 6.37177Z" fill="url(#paint3_radial_601_1567)"/>
<path opacity="0.67" d="M7.40242 19.0962H2.10718C2.23777 19.7183 2.4188 20.3207 2.62512 20.9118H8.2207C7.88912 20.3402 7.61255 19.7339 7.40242 19.0962Z" fill="url(#paint4_linear_601_1567)"/>
<path opacity="0.86" d="M25.7563 19.0962H31.0517C30.9209 19.7183 30.7399 20.3207 30.5336 20.9118H24.938C25.2697 20.3402 25.5463 19.7339 25.7563 19.0962Z" fill="url(#paint5_linear_601_1567)"/>
<path d="M31.3161 12.2974C31.6645 13.4927 31.8139 14.7375 31.8139 16.0323C31.8139 17.377 31.6149 18.6718 31.3161 19.9166H1.8855V19.8666H31.2662C31.615 18.6218 31.7644 17.327 31.7644 15.9826C31.7642 14.6878 31.6149 13.443 31.3161 12.2974Z" fill="#1A171B"/>
<path d="M1.83578 12.2479H31.3162C31.615 13.443 31.7642 14.6878 31.7642 15.9826C31.7642 17.327 31.615 18.6218 31.266 19.8666H1.88546C1.53681 18.6218 1.33765 17.327 1.33765 15.9826C1.33765 14.6878 1.53681 13.443 1.83578 12.2479Z" fill="url(#paint6_radial_601_1567)"/>
<path d="M27.83 1.64095L31.1167 4.92765L28.6766 7.36757L28.8259 7.56674L27.083 8.96133L26.535 9.16049L30.1207 5.52498L27.2322 2.63691L23.647 6.22243L23.7965 5.7243L27.83 1.64095Z" fill="url(#paint7_linear_601_1567)"/>
<path d="M24.5435 1.29214C27.4315 2.83592 29.7721 5.22616 31.3656 8.06456V1.29214H24.5435Z" fill="url(#paint8_radial_601_1567)"/>
<path d="M24.5435 1.29214C27.4315 2.83592 29.7721 5.22616 31.3656 8.06456" stroke="#B1B0A8" stroke-width="0.3402" stroke-linecap="round"/>
<path d="M24.5435 1.29214C27.3819 2.83592 29.7721 5.22616 31.3159 8.06456" stroke="#CBCAC4" stroke-width="0.2361" stroke-linecap="round"/>
<path d="M24.4937 1.29214C27.382 2.83592 29.7223 5.22616 31.3161 8.11455" stroke="#E6E6E1" stroke-width="0.1324" stroke-linecap="round"/>
<path d="M24.4937 1.29214C27.3321 2.8859 29.7223 5.22616 31.2661 8.11455" stroke="white" stroke-width="0.0283" stroke-linecap="round"/>
<path d="M31.3656 1.14281C31.4156 1.14281 31.4653 1.19248 31.4653 1.29199H24.5435H24.4438C24.4438 1.19248 24.4935 1.14281 24.5435 1.14281H31.3656Z" fill="url(#paint9_linear_601_1567)"/>
<path d="M31.4653 8.06456C31.4653 8.16422 31.4157 8.2142 31.3657 8.2142L31.3162 8.11454V1.14281C31.3162 1.14281 31.3162 1.14281 31.3657 1.14281C31.4157 1.14281 31.4653 1.19248 31.4653 1.29199V8.06456Z" fill="url(#paint10_linear_601_1567)"/>
<path d="M1.88925 12.3052C1.59043 13.5005 1.39111 14.7453 1.39111 16.04C1.39111 16.1472 1.42799 16.7817 1.43058 16.888L1.51698 17.8499C1.51561 17.7721 1.47782 16.2045 1.47782 16.1264C1.47782 14.8317 1.69359 13.6307 1.99241 12.4355L12.4247 12.3916L16.9274 12.3052H1.88925Z" fill="url(#paint11_linear_601_1567)"/>
<path d="M27.2325 17.8794C25.9123 17.8794 24.838 17.0732 24.838 16.0822C24.838 15.091 25.9123 14.2848 27.2325 14.2848C28.5807 14.2848 29.6776 15.0912 29.6776 16.0822C29.6774 17.0732 28.5806 17.8794 27.2325 17.8794ZM27.2325 14.792C26.7449 14.792 26.391 15.3347 26.391 16.0822C26.391 16.7893 26.7528 17.3225 27.2325 17.3225C27.689 17.3225 28.0745 16.7546 28.0745 16.0822C28.0745 15.3708 27.6968 14.792 27.2325 14.792ZM12.0942 17.8794C10.7737 17.8794 9.69937 17.0732 9.69937 16.0822C9.69937 15.1349 10.7961 14.3347 12.0942 14.3347C13.4422 14.3347 14.5387 15.1187 14.5387 16.0822C14.5387 17.0732 13.4422 17.8794 12.0942 17.8794ZM12.0942 14.8416C11.6142 14.8416 11.2521 15.3749 11.2521 16.0822C11.2521 16.7893 11.6142 17.3225 12.0942 17.3225C12.5507 17.3225 12.9362 16.7546 12.9362 16.0822C12.9364 15.4098 12.5507 14.8416 12.0942 14.8416ZM20.9582 17.7798L19.4106 14.8893L18.6179 14.8917L18.6134 14.4391L22.0043 14.4346L22.0089 14.8871L21.1575 14.8917L22.3567 16.9266L23.3943 14.8851L22.8008 14.8917L22.7962 14.4391L25.1412 14.4346L25.1458 14.8871L24.3444 14.8917L22.8035 17.7799H20.9582V17.7798ZM14.7334 17.7798L14.7289 17.2274L15.5301 17.2228L15.5255 14.8871L14.7334 14.8917L14.7289 14.4391L17.8708 14.4346L17.8754 14.8871L17.0737 14.8917L17.0783 17.2275L17.9203 17.223C18.1926 17.223 18.9105 17.0448 18.9615 16.2314L19.4639 16.2272L19.4685 17.7799H14.7334V17.7798ZM5.8196 17.7798L4.27187 14.8893L3.47918 14.8917L3.47461 14.4391L6.86539 14.4346L6.86996 14.8871L6.01876 14.8917L7.21785 16.9266L8.30539 14.885L7.66204 14.8917L7.65747 14.4391L10.0028 14.4346L10.0073 14.8871L9.20581 14.8917L7.66493 17.7799H5.8196V17.7798Z" fill="white"/>
<path d="M27.2324 14.2893C28.5773 14.2893 29.6729 15.0863 29.6729 16.0824C29.6729 17.0782 28.5775 17.875 27.2324 17.875C25.9381 17.875 24.8425 17.0782 24.8425 16.0824C24.8425 15.0863 25.9379 14.2893 27.2324 14.2893ZM27.2324 17.327C27.6806 17.327 28.0792 16.7792 28.0792 16.0822C28.0792 15.3353 27.6807 14.7875 27.2324 14.7875C26.7347 14.7875 26.3862 15.3353 26.3862 16.0822C26.3862 16.7792 26.7347 17.327 27.2324 17.327ZM12.0941 14.3393C13.4386 14.3393 14.534 15.1361 14.534 16.0822C14.534 17.078 13.4386 17.8748 12.0941 17.8748C10.7993 17.8748 9.70372 17.078 9.70372 16.0822C9.70388 15.136 10.7993 14.3393 12.0941 14.3393ZM12.0941 17.327C12.5423 17.327 12.9408 16.7792 12.9408 16.0822C12.9408 15.3852 12.5423 14.837 12.0941 14.837C11.596 14.837 11.2475 15.3852 11.2475 16.0822C11.2475 16.7792 11.596 17.327 12.0941 17.327ZM25.141 14.439V14.887H24.3442L22.8006 17.775H20.958L19.4144 14.887H18.6177V14.439H22.0041V14.887H21.1573L22.3526 16.9287L23.398 14.887H22.8006V14.439H25.141ZM17.8707 14.439V14.887H17.0738V17.2272C17.0738 17.2272 17.6216 17.2272 17.9206 17.2272C18.2194 17.2272 18.9164 17.0284 18.9664 16.2314C19.3645 16.2314 19.4642 16.2314 19.4642 16.2314V17.775H15.53H14.7334V17.2272H15.53V14.887H14.7334V14.439H17.8707ZM10.0027 14.439V14.887H9.20574L7.66212 17.775H5.81953L4.27591 14.887H3.47911V14.439H6.86548V14.887H6.01885L7.21397 16.9287L8.30944 14.887H7.66197V14.439H10.0027ZM27.2324 14.28C25.9096 14.28 24.8335 15.0886 24.8335 16.0822C24.8335 17.0758 25.9097 17.8838 27.2324 17.8838C28.5831 17.8838 29.6819 17.0756 29.6819 16.0822C29.6819 15.0886 28.5831 14.28 27.2324 14.28ZM27.2324 17.318C26.7552 17.318 26.3954 16.7868 26.3954 16.0824C26.3954 15.3374 26.7475 14.7968 27.2324 14.7968C27.6943 14.7968 28.07 15.3735 28.07 16.0824C28.07 16.7521 27.6864 17.318 27.2324 17.318ZM12.0941 14.3302C10.7934 14.3302 9.69458 15.1326 9.69458 16.0824C9.69458 17.0759 10.771 17.884 12.0941 17.884C13.4445 17.884 14.5432 17.0758 14.5432 16.0824C14.5433 15.1161 13.4447 14.3302 12.0941 14.3302ZM12.0941 17.318C11.6167 17.318 11.2566 16.7868 11.2566 16.0824C11.2566 15.3776 11.6167 14.8463 12.0941 14.8463C12.5481 14.8463 12.9316 15.4124 12.9316 16.0824C12.9316 16.7521 12.5481 17.318 12.0941 17.318ZM25.1501 14.4298H25.141H22.8007H22.7916V14.439V14.887V14.8961H22.8007H23.3833L22.352 16.9097L21.1733 14.8961H22.0041H22.0132V14.887V14.439V14.4298H22.0041H18.6177H18.6086V14.439V14.887V14.8961H18.6177H19.4089L20.9499 17.7793L20.9525 17.784H20.958H22.8006H22.806L22.8086 17.7793L24.3497 14.8961H25.1408H25.15V14.887V14.439V14.4298H25.1501ZM17.8799 14.4298H17.8707H14.7334H14.7242V14.439V14.887V14.8961H14.7334H15.5209V17.2182H14.7334H14.7242V17.2274V17.7752V17.7843H14.7334H15.53H19.464H19.4732V17.7752V16.2316V16.2224H19.464H18.9662H18.9575L18.9571 16.231C18.9062 17.0409 18.1915 17.2182 17.9203 17.2182H17.0826V14.8961H17.8706H17.8797V14.887V14.439V14.4298H17.8799ZM10.0118 14.4298H10.0027H7.66197H7.65283V14.439V14.887V14.8961H7.66197H8.29405L7.21351 16.9101L6.03469 14.8963H6.86548H6.87462V14.8871V14.4391V14.43H6.86548H3.47911H3.46997V14.4391V14.8871V14.8963H3.47911H4.27028L5.81146 17.7795L5.81405 17.7842H5.81953H7.66212H7.66761L7.6702 17.7795L9.21123 14.8961H10.0027H10.0118V14.887V14.439V14.4298Z" fill="#1D2D28"/>
<defs>
<radialGradient id="paint0_radial_601_1567" cx="0" cy="0" r="1" gradientUnits="userSpaceOnUse" gradientTransform="translate(6.00096 13.1151) scale(30.8921)">
<stop stop-color="white"/>
<stop offset="0.0469" stop-color="#FCFCFB"/>
<stop offset="0.2247" stop-color="#FAFAF9"/>
<stop offset="0.3719" stop-color="#B9B9B8"/>
<stop offset="0.4972" stop-color="#888887"/>
<stop offset="0.5923" stop-color="#6A6A69"/>
<stop offset="0.6461" stop-color="#5F5F5E"/>
<stop offset="0.7275" stop-color="#555554"/>
<stop offset="0.8673" stop-color="#3A3939"/>
<stop offset="1" stop-color="#1B1919"/>
</radialGradient>
<linearGradient id="paint1_linear_601_1567" x1="10.7384" y1="14.0672" x2="21.8142" y2="17.8809" gradientUnits="userSpaceOnUse">
<stop stop-color="#E2E2DC"/>
<stop offset="1" stop-color="white"/>
</linearGradient>
<radialGradient id="paint2_radial_601_1567" cx="0" cy="0" r="1" gradientUnits="userSpaceOnUse" gradientTransform="translate(25.3665 25.5647) scale(33.903 33.9029)">
<stop stop-color="#C5C6C2"/>
<stop offset="1" stop-color="#868680"/>
</radialGradient>
<radialGradient id="paint3_radial_601_1567" cx="0" cy="0" r="1" gradientUnits="userSpaceOnUse" gradientTransform="translate(21.909 21.4153) scale(23.8081 23.8081)">
<stop stop-color="white"/>
<stop offset="0.1986" stop-color="#F2F2F3"/>
<stop offset="0.2978" stop-color="#EAEAEB"/>
<stop offset="0.2992" stop-color="#E9E9EA"/>
<stop offset="0.3715" stop-color="#C3C3C3"/>
<stop offset="0.443" stop-color="#A5A5A5"/>
<stop offset="0.5126" stop-color="#8F8F8F"/>
<stop offset="0.5794" stop-color="#828281"/>
<stop offset="0.6404" stop-color="#7E7E7D"/>
<stop offset="0.7534" stop-color="#545352"/>
<stop offset="0.8551" stop-color="#353333"/>
<stop offset="0.9408" stop-color="#222020"/>
<stop offset="1" stop-color="#1B1919"/>
</radialGradient>
<linearGradient id="paint4_linear_601_1567" x1="5.16391" y1="20.9983" x2="5.16391" y2="19.9321" gradientUnits="userSpaceOnUse">
<stop stop-color="white" stop-opacity="0"/>
<stop offset="0.17" stop-color="#FAFAF9" stop-opacity="0"/>
<stop offset="0.427" stop-color="#BBBBB8" stop-opacity="0.1"/>
<stop offset="0.5232" stop-color="#8F8F8C" stop-opacity="0.2"/>
<stop offset="0.6238" stop-color="#686866" stop-opacity="0.3"/>
<stop offset="0.7234" stop-color="#4A4948" stop-opacity="0.6"/>
<stop offset="0.8206" stop-color="#343432" stop-opacity="0.8"/>
<stop offset="0.9141" stop-color="#272625" stop-opacity="0.9"/>
<stop offset="1" stop-color="#232221"/>
</linearGradient>
<linearGradient id="paint5_linear_601_1567" x1="27.9948" y1="20.9983" x2="27.9948" y2="19.9321" gradientUnits="userSpaceOnUse">
<stop stop-color="white" stop-opacity="0"/>
<stop offset="0.17" stop-color="#FAFAF9" stop-opacity="0"/>
<stop offset="0.427" stop-color="#BBBBB8" stop-opacity="0"/>
<stop offset="0.5232" stop-color="#8F8F8C" stop-opacity="0"/>
<stop offset="0.6238" stop-color="#686866" stop-opacity="0"/>
<stop offset="0.7234" stop-color="#4A4948" stop-opacity="0.25"/>
<stop offset="0.8206" stop-color="#343432" stop-opacity="0.5"/>
<stop offset="0.9141" stop-color="#272625" stop-opacity="0.75"/>
<stop offset="1" stop-color="#232221"/>
</linearGradient>
<radialGradient id="paint6_radial_601_1567" cx="0" cy="0" r="1" gradientUnits="userSpaceOnUse" gradientTransform="translate(2.71682 13.1165) scale(19.2195 19.2195)">
<stop stop-color="#006AB1"/>
<stop offset="0.0016" stop-color="#006AB1"/>
<stop offset="0.1275" stop-color="#0061A4"/>
<stop offset="0.2416" stop-color="#005E9F"/>
<stop offset="0.5062" stop-color="#00548E"/>
<stop offset="0.8371" stop-color="#004374"/>
<stop offset="0.9588" stop-color="#004173"/>
<stop offset="1" stop-color="#003B6F"/>
</radialGradient>
<linearGradient id="paint7_linear_601_1567" x1="30.8251" y1="9.04328" x2="23.335" y2="1.55313" gradientUnits="userSpaceOnUse">
<stop offset="0.0056" stop-color="#212111"/>
<stop offset="0.6461" stop-color="#41403F"/>
<stop offset="0.6508" stop-color="#454443"/>
<stop offset="0.6558" stop-color="#52514F"/>
<stop offset="0.6608" stop-color="#666564"/>
<stop offset="0.6659" stop-color="#838281"/>
<stop offset="0.6711" stop-color="#A9A8A6"/>
<stop offset="0.6762" stop-color="#D6D5D2"/>
<stop offset="0.68" stop-color="#FDFCF9"/>
<stop offset="0.6826" stop-color="#FAF9F6"/>
<stop offset="0.6842" stop-color="#F2F1EE"/>
<stop offset="0.6856" stop-color="#E3E2DF"/>
<stop offset="0.6869" stop-color="#CECECA"/>
<stop offset="0.688" stop-color="#B3B3AF"/>
<stop offset="0.6891" stop-color="#93938E"/>
<stop offset="0.69" stop-color="#70706B"/>
<stop offset="0.6924" stop-color="#6D6D68"/>
<stop offset="0.7145" stop-color="#535250"/>
<stop offset="0.7396" stop-color="#3E3C3D"/>
<stop offset="0.7692" stop-color="#2E2B2D"/>
<stop offset="0.8059" stop-color="#222023"/>
<stop offset="0.8573" stop-color="#1C191D"/>
<stop offset="1" stop-color="#1A171B"/>
</linearGradient>
<radialGradient id="paint8_radial_601_1567" cx="0" cy="0" r="1" gradientUnits="userSpaceOnUse" gradientTransform="translate(30.2091 2.04989) scale(8.03209)">
<stop stop-color="#555552"/>
<stop offset="1" stop-color="#50504D"/>
</radialGradient>
<linearGradient id="paint9_linear_601_1567" x1="24.4438" y1="1.21746" x2="31.4652" y2="1.21746" gradientUnits="userSpaceOnUse">
<stop stop-color="#5D5D5F"/>
<stop offset="0.0852" stop-color="#505051"/>
<stop offset="0.2581" stop-color="#3C3C3C"/>
<stop offset="0.4497" stop-color="#2E2D2D"/>
<stop offset="0.6724" stop-color="#262524"/>
<stop offset="1" stop-color="#232221"/>
</linearGradient>
<linearGradient id="paint10_linear_601_1567" x1="31.3906" y1="8.21426" x2="31.3906" y2="1.14282" gradientUnits="userSpaceOnUse">
<stop stop-color="#5D5D5F"/>
<stop offset="0.096" stop-color="#555456"/>
<stop offset="0.4584" stop-color="#393939"/>
<stop offset="0.7723" stop-color="#292827"/>
<stop offset="1" stop-color="#232221"/>
</linearGradient>
<linearGradient id="paint11_linear_601_1567" x1="5.40853" y1="9.91916" x2="9.90444" y2="16" gradientUnits="userSpaceOnUse">
<stop stop-color="white"/>
<stop offset="0.1091" stop-color="#D8E8F3"/>
<stop offset="0.3376" stop-color="#8CBCDC"/>
<stop offset="0.5419" stop-color="#5099C9"/>
<stop offset="0.7143" stop-color="#257FBC"/>
<stop offset="0.8481" stop-color="#0A70B4"/>
<stop offset="0.927" stop-color="#006AB1"/>
<stop offset="0.9288" stop-color="#046BB2"/>
<stop offset="0.9489" stop-color="#2678B8"/>
<stop offset="0.968" stop-color="#3E81BD"/>
<stop offset="0.9856" stop-color="#4D86C0"/>
<stop offset="1" stop-color="#5288C1"/>
</linearGradient>
</defs>
</svg>
